<?xml version="1.0" encoding="utf-8"?>
<!-- Generator: Adobe Illustrator 22.1.0, SVG Export Plug-In . SVG Version: 6.00 Build 0)  -->
<svg version="1.1"
	 id="Layer_1" inkscape:version="0.92.2 5c3e80d, 2017-08-06" sodipodi:docname="201806020009-Alphabet-01.svg" xmlns:cc="http://creativecommons.org/ns#" xmlns:dc="http://purl.org/dc/elements/1.1/" xmlns:inkscape="http://www.inkscape.org/namespaces/inkscape" xmlns:rdf="http://www.w3.org/1999/02/22-rdf-syntax-ns#" xmlns:sodipodi="http://sodipodi.sourceforge.net/DTD/sodipodi-0.dtd" xmlns:svg="http://www.w3.org/2000/svg"
	 xmlns="http://www.w3.org/2000/svg" xmlns:xlink="http://www.w3.org/1999/xlink" x="0px" y="0px" viewBox="0 0 7647.2 3455.6"
	 style="enable-background:new 0 0 7647.2 3455.6;" xml:space="preserve">
<style type="text/css">
	.st0{stroke:#000000;stroke-width:3;}
</style>
<sodipodi:namedview  bordercolor="#666666" borderopacity="1" gridtolerance="10" guidetolerance="10" id="namedview631" inkscape:current-layer="Layer_1" inkscape:cx="923.61226" inkscape:cy="780.84402" inkscape:measure-end="0,0" inkscape:measure-start="0,0" inkscape:pageopacity="0" inkscape:pageshadow="2" inkscape:window-height="722" inkscape:window-maximized="0" inkscape:window-width="1366" inkscape:window-x="0" inkscape:window-y="0" inkscape:zoom="0.51877916" objecttolerance="10" pagecolor="#ffffff" showgrid="false">
	</sodipodi:namedview>
<path id="path4" d="M2455.7,727.8c0-26.5-37.6-26.5-62.5-26.5h-140.5v1.5v100l0,0h3l0,0v-28.7c15.5-1.7,143.5-15.5,165.8-20.8
	l31.4,50.2l2.5-1.6l-30.9-49.4C2444.4,747.1,2455.7,741.1,2455.7,727.8z M2255.7,704.3h137.5c25.1,0,59.5,0,59.5,23.5
	c0,11.9-10.8,17-30.9,22.4c-18.4,4.9-149.8,19.2-166.1,20.9V704.3z"/>
<g id="g10">
	<g id="g8">
		<path id="path6" d="M5904.2,931.5h-203v-32.7l86.4-17.3h-86.4v-53h203v32.7l-86.4,17.3h86.4V931.5z M5704.2,928.5h197v-47h-98.4
			l-98.6,19.7V928.5z M5704.2,878.5h98.4l98.6-19.7v-27.3h-197V878.5z"/>
	</g>
</g>
<g id="g16">
	<g id="g14">
		<path id="path12" d="M5904.2,620.9h-203V568l86.4-8.6l-86.4-8.6v-32.9h203v32.9l-86.4,8.6l86.4,8.6V620.9z M5704.2,617.9h197
			v-47.1l-98.5-9.9l-98.5,9.9V617.9z M5704.2,548.1l98.5,9.9l98.5-9.9V521h-197V548.1z"/>
	</g>
</g>
<g id="g22">
	<g id="g20">
		<path id="path18" d="M5909,757.4h-207.9v-33l96.7-19.2l-101.6-50.8h207.9v32.7l-97.1,19.3L5909,757.4z M5704.2,754.4h192.1l-94-47
			l-98.1,19.5V754.4z M5709,657.4l93.7,46.8l98.5-19.6v-27.3L5709,657.4L5709,657.4z"/>
	</g>
</g>
<g id="g28">
	<g id="g26">
		<path id="path24" d="M5904.2,1075.6h-203v-32.7l93.9-18.8l-93.9-18.8v-32.7h203v32.7l-93.9,18.8l93.9,18.8V1075.6z M5704.2,1072.6
			h197v-27.3l-98.5-19.7l-98.5,19.7V1072.6z M5704.2,1002.9l98.5,19.7l98.5-19.7v-27.3h-197V1002.9z"/>
	</g>
</g>
<g id="g32">
	<rect id="rect30" x="1261.1" y="1019.9" width="3" height="100"/>
</g>
<polygon id="polygon34" points="1727.6,1018.4 1527.6,1018.4 1527.6,1021.4 1626.1,1021.4 1626.1,1119.9 1629.1,1119.9 
	1629.1,1021.4 1727.6,1021.4 "/>
<polygon id="polygon36" points="1210.8,847 1213.3,845.4 1164.3,767 1212.6,747.6 1211.5,744.8 1013.5,824 1013.5,746.2 
	1010.5,746.2 1010.5,846.2 1013.5,846.2 1013.5,827.2 1161.4,768.1 "/>
<polygon id="polygon38" points="977.9,1120.7 980.4,1119.1 931.4,1040.6 979.7,1021.3 978.6,1018.5 780.6,1097.7 780.6,1019.9 
	777.6,1019.9 777.6,1119.9 780.6,1119.9 780.6,1100.9 928.5,1041.8 "/>
<polygon id="polygon40" points="425.6,1019.9 425.6,1097.7 227.6,1018.5 227.1,1019.9 225.6,1019.9 225.6,1119.9 228.6,1119.9 
	228.6,1022.1 425.6,1100.9 425.6,1119.9 428.6,1119.9 428.6,1019.9 "/>
<polygon id="polygon42" points="1727.7,1233.3 1727.7,1230.3 1527.5,1230.3 1527.5,1233.3 1682.5,1233.3 1526.7,1330.5 
	1527.5,1331.8 1527.5,1333.3 1727.7,1333.3 1727.7,1330.3 1532.8,1330.3 1688.1,1233.3 "/>
<polygon id="polygon44" points="1728.5,1371.6 1727.7,1370.3 1727.7,1368.8 1527.5,1368.8 1527.5,1371.8 1722.5,1371.8 
	1567.1,1468.8 1527.5,1468.8 1527.5,1471.8 1727.7,1471.8 1727.7,1468.8 1572.8,1468.8 "/>
<polygon id="polygon46" points="1728.4,1510.1 1727.7,1507.3 1527.5,1507.3 1527.5,1510.3 1721.4,1510.3 1526.9,1607.4 
	1527.5,1610.3 1727.7,1610.3 1727.7,1607.3 1533.9,1607.3 "/>
<polygon id="polygon46_1_" points="6219.1,2950 6218.4,2947.2 6018.2,2947.2 6018.2,2950.2 6212.1,2950.2 6017.6,3047.3 
	6018.2,3050.2 6218.4,3050.2 6218.4,3047.2 6024.6,3047.2 "/>
<polygon id="polygon48" points="1702.6,2053.3 1702.6,2131.1 1504.6,2051.9 1504.1,2053.3 1502.6,2053.3 1502.6,2153.3 
	1505.6,2153.3 1505.6,2055.6 1702.6,2134.4 1702.6,2153.3 1705.6,2153.3 1705.6,2053.3 "/>
<polygon id="polygon48_1_" points="3480,2038.9 3480,2116.7 3282,2037.5 3281.5,2038.9 3280,2038.9 3280,2138.9 3283,2138.9 
	3283,2041.2 3480,2120 3480,2138.9 3483,2138.9 3483,2038.9 "/>
<polygon id="polygon48_2_" points="3386.4,2950.2 3386.4,3028 3188.4,2948.8 3187.9,2950.2 3186.4,2950.2 3186.4,3050.2 
	3189.4,3050.2 3189.4,2952.5 3386.4,3031.3 3386.4,3050.2 3389.4,3050.2 3389.4,2950.2 "/>
<polygon id="polygon50" points="1484.4,847.2 1486.8,845.3 1421.5,767 1486,747.7 1485.2,744.8 1287.1,804.2 1287.1,746.2 
	1284.1,746.2 1284.1,846.2 1287.1,846.2 1287.1,807.4 1418.4,768 "/>
<polygon id="polygon52" points="425.6,1168.2 425.6,1226.2 227.5,1166.7 227.1,1168.2 225.6,1168.2 225.6,1268.2 228.6,1268.2 
	228.6,1170.2 425.6,1229.3 425.6,1268.2 428.6,1268.2 428.6,1168.2 "/>
<polygon id="polygon54" points="837.9,594.8 837.9,652.8 637.9,592.8 637.9,694.8 640.9,694.8 640.9,596.9 837.9,656 837.9,694.8 
	840.9,694.8 840.9,594.8 "/>
<path id="path56" d="M1182.5,912.5c16.8-2.4,31.1-8.7,31.1-25c0-26.5-37.6-26.5-62.5-26.5h-140.6v103H1151c24.9,0,62.5,0,62.5-26.5
	C1213.5,921.2,1199.3,914.9,1182.5,912.5z M1013.5,864H1151c25.1,0,59.5,0,59.5,23.5S1176.1,911,1151,911h-137.5V864z M1151,961
	h-137.5v-47H1151c25.1,0,59.5,0,59.5,23.5S1176.1,961,1151,961z"/>
<path id="path58" d="M1685.8,585.2c16.8-2.4,31.1-8.7,31.1-25c0-26.5-37.6-26.5-62.5-26.5h-140.5v103h140.5c24.9,0,62.5,0,62.5-26.5
	C1716.9,593.9,1702.6,587.6,1685.8,585.2z M1516.9,536.7h137.5c25.1,0,59.5,0,59.5,23.5s-34.4,23.5-59.5,23.5h-137.5V536.7z
	 M1654.4,633.7h-137.5v-47h137.5c25.1,0,59.5,0,59.5,23.5S1679.5,633.7,1654.4,633.7z"/>
<path id="path58_1_" d="M625.5,2998.7c16.8-2.4,31.1-8.7,31.1-25c0-26.5-37.6-26.5-62.5-26.5H453.6v103h140.5
	c24.9,0,62.5,0,62.5-26.5C656.6,3007.4,642.3,3001.1,625.5,2998.7z M456.6,2950.2h137.5c25.1,0,59.5,0,59.5,23.5
	s-34.4,23.5-59.5,23.5H456.6V2950.2z M594.1,3047.2H456.6v-47h137.5c25.1,0,59.5,0,59.5,23.5S619.2,3047.2,594.1,3047.2z"/>
<path id="path60" d="M1733.5,230.3c16.8-2.4,31.1-8.7,31.1-25c0-26.5-37.6-26.5-62.5-26.5h-140.5v103h140.5c24.9,0,62.5,0,62.5-26.5
	C1764.6,239,1750.3,232.8,1733.5,230.3z M1564.6,181.8h137.5c25.1,0,59.5,0,59.5,23.5s-34.4,23.5-59.5,23.5h-137.5L1564.6,181.8
	L1564.6,181.8z M1702.1,278.8h-137.5v-47h137.5c25.1,0,59.5,0,59.5,23.5S1727.2,278.8,1702.1,278.8z"/>
<path id="path62" d="M1213.5,1168.8c0-26.5-37.6-26.5-62.5-26.5h-140.5v101.5h3v-48.5H1151c8.6,0,18.7,0,28.2-1.1l31.5,50.4l2.5-1.6
	l-30.8-49.2C1199.3,1191.3,1213.5,1185.1,1213.5,1168.8z M1013.5,1192.3v-47H1151c25.1,0,59.5,0,59.5,23.5s-34.4,23.5-59.5,23.5
	H1013.5z"/>
<path id="path64" d="M1213.5,1046.1c0-26.5-37.6-26.5-62.5-26.5h-140.5v1.5v100l0,0h3l0,0v-28.7c15.5-1.7,143.5-15.5,165.8-20.8
	l31.4,50.2l2.5-1.6l-30.9-49.4C1202.2,1065.4,1213.5,1059.4,1213.5,1046.1z M1013.5,1022.6H1151c25.1,0,59.5,0,59.5,23.5
	c0,11.9-10.8,17-30.9,22.4c-18.4,4.9-149.8,19.2-166.1,20.9V1022.6z"/>
<g id="g68">
	<path id="path66" d="M1445.1,1121.4c-0.3,0-0.7,0-1,0h-120c-5.3,0-21.5,0-21.5-11.5h3c0,5.8,5.9,8.5,18.5,8.5h120
		c12.1,0,27.3,0,39-3.1c13.1-3.5,19.5-10.1,19.5-20.4c0-11.9-24.3-14.7-38.8-16.4l-4.2-0.5c-69.2-8.1-107.8-12.7-114.8-13.6
		l-0.8-0.1c-12.4-1.7-41.5-5.6-41.5-19.4c0-26.5,40.7-26.5,62.5-26.5h119c5.9,0,21.5,0,21.5,11.5h-3c0-5.8-5.9-8.5-18.5-8.5h-119
		c-30.9,0-59.5,2.8-59.5,23.5c0,11.2,28.3,15,38.9,16.4l0.8,0.1c7,0.9,45.6,5.5,114.7,13.6l4.2,0.5c16.5,1.9,41.4,4.8,41.4,19.4
		c0,11.7-7.3,19.5-21.7,23.3C1472.1,1121.3,1457.2,1121.4,1445.1,1121.4z"/>
</g>
<g id="g72">
	<rect id="rect70" x="740.7" y="2053.3" width="3" height="100"/>
</g>
<g id="g76">
	<rect id="rect74" x="977.1" y="594.8" width="3" height="100"/>
</g>
<g id="g80">
	<rect id="rect78" x="1228.6" y="2053.3" width="3" height="100"/>
</g>
<g id="g80_1_">
	<rect id="rect78_1_" x="2156.1" y="1904.2" width="3" height="100"/>
</g>
<g id="g80_2_">
	<rect id="rect78_2_" x="2169.6" y="2950.2" width="3" height="100"/>
</g>
<polygon id="polygon82" points="1203.1,2051.8 1003.1,2051.8 1003.1,2054.8 1101.6,2054.8 1101.6,2153.3 1104.6,2153.3 
	1104.6,2054.8 1203.1,2054.8 "/>
<g id="g92">
	<g id="g86">
		<rect id="rect84" x="3369.6" y="1023.3" width="3" height="100"/>
	</g>
	<g id="g90">
		<rect id="rect88" x="3271.1" y="1021.8" width="200" height="3"/>
	</g>
</g>
<polygon id="polygon94" points="466.9,2154.1 469.4,2152.5 420.4,2074.1 468.7,2054.7 467.6,2051.9 269.7,2131.1 269.7,2053.3 
	266.7,2053.3 266.7,2153.3 269.7,2153.3 269.7,2134.4 417.6,2075.2 "/>
<polygon id="polygon94_1_" points="2610.3,3050.2 2612.8,3048.6 2563.8,2970.2 2612.1,2950.8 2611,2948 2413.1,3027.2 
	2413.1,2949.4 2410.1,2949.4 2410.1,3049.4 2413.1,3049.4 2413.1,3030.5 2561,2971.3 "/>
<path id="path96" d="M706.7,2078.3c0-26.5-37.6-26.5-62.5-26.5H503.7v1.5v100l0,0h3l0,0v-28.7c15.5-1.7,143.5-15.5,165.8-20.8
	l31.4,50.2l2.5-1.6l-30.9-49.4C695.3,2097.6,706.7,2091.6,706.7,2078.3z M506.7,2054.8h137.5c25.1,0,59.5,0,59.5,23.5
	c0,11.9-10.8,17-30.9,22.4c-18.4,4.9-149.8,19.2-166.1,20.9L506.7,2054.8L506.7,2054.8z"/>
<path id="path96_1_" d="M3874.6,2975.2c0-26.5-37.6-26.5-62.5-26.5h-140.5v1.5v100l0,0h3l0,0v-28.7c15.5-1.7,143.5-15.5,165.8-20.8
	l3-0.8C3863.2,2994.5,3874.6,2988.5,3874.6,2975.2z M3674.6,2951.7h137.5c25.1,0,59.5,0,59.5,23.5c0,11.9-10.8,17-30.9,22.4
	c-18.4,4.9-149.8,19.2-166.1,20.9V2951.7L3674.6,2951.7z"/>
<g id="g110">
	<g id="g100">
		<path id="path98" d="M3037.7,1123.3h-3v-101.5h140.5c24.9,0,62.5,0,62.5,26.5c0,13.7-12.1,19.7-33.1,25.3
			c-18.9,5.1-151.1,19.4-166.9,21.1V1123.3z M3037.7,1024.8v66.8c16.4-1.8,147.8-16,166.1-20.9c20-5.4,30.9-10.5,30.9-22.4
			c0-23.5-34.4-23.5-59.5-23.5H3037.7z"/>
	</g>
	<g id="g104">
		<rect id="rect102" x="3034.7" y="1023.3" width="3" height="100"/>
	</g>
	<g id="g108">
		
			<rect id="rect106" x="3218.7" y="1067.6" transform="matrix(0.848 -0.53 0.53 0.848 -92.3465 1873.5637)" width="3" height="60.3"/>
	</g>
</g>
<g id="g110_1_">
	<g id="g100_1_">
		<path id="path98_1_" d="M1918.1,2003.4h-3v-101.5h140.5c24.9,0,62.5,0,62.5,26.5c0,13.7-12.1,19.7-33.1,25.3
			c-18.9,5.1-151.1,19.4-166.9,21.1V2003.4z M1918.1,1904.9v66.8c16.4-1.8,147.8-16,166.1-20.9c20-5.4,30.9-10.5,30.9-22.4
			c0-23.5-34.4-23.5-59.5-23.5H1918.1z"/>
	</g>
	<g id="g104_1_">
		<rect id="rect102_1_" x="1915.1" y="1903.4" width="3" height="100"/>
	</g>
	<g id="g108_1_">
		
			<rect id="rect106_1_" x="2099.1" y="1947.7" transform="matrix(0.848 -0.53 0.53 0.848 -728.9561 1413.9476)" width="3" height="60.3"/>
	</g>
</g>
<g id="g110_2_">
	<g id="g100_2_">
		<path id="path98_2_" d="M2866.7,2003.4h-3v-101.5h140.5c24.9,0,62.5,0,62.5,26.5c0,13.7-12.1,19.7-33.1,25.3
			c-18.9,5.1-151.1,19.4-166.9,21.1V2003.4z M2866.7,1904.9v66.8c16.4-1.8,147.8-16,166.1-20.9c20-5.4,30.9-10.5,30.9-22.4
			c0-23.5-34.4-23.5-59.5-23.5H2866.7z"/>
	</g>
	<g id="g104_2_">
		<rect id="rect102_2_" x="2863.7" y="1903.4" width="3" height="100"/>
	</g>
	<g id="g108_2_">
		
			<rect id="rect106_2_" x="3047.7" y="1947.7" transform="matrix(0.848 -0.53 0.53 0.848 -584.7601 1916.7299)" width="3" height="60.3"/>
	</g>
</g>
<polygon id="polygon112" points="1996.8,874.5 1993.8,874.5 1993.8,942 1796.8,942 1796.8,874.5 1793.8,874.5 1793.8,945 
	1893.8,945 1893.8,974.5 1896.8,974.5 1896.8,945 1996.8,945 "/>
<polygon id="polygon114" points="3202.3,701.3 3002.3,701.3 3002.3,704.3 3100.8,704.3 3100.8,802.8 3103.8,802.8 3103.8,704.3 
	3202.3,704.3 "/>
<polygon id="polygon116" points="2202.8,701.3 2002.8,701.3 2002.8,704.3 2101.3,704.3 2101.3,802.8 2104.3,802.8 2104.3,704.3 
	2202.8,704.3 "/>
<path id="path118" d="M1999.3,205.3c0-26.5-37.6-26.5-62.5-26.5h-140.5v1.5v100l0,0h3l0,0v-28.7c15.5-1.7,143.5-15.5,165.8-20.8
	l31.4,50.2l2.5-1.6l-30.9-49.4C1987.9,224.6,1999.3,218.7,1999.3,205.3z M1799.3,181.8h137.5c25.1,0,59.5,0,59.5,23.5
	c0,11.9-10.8,17-30.9,22.4c-18.4,4.9-149.8,19.2-166.1,20.9V181.8z"/>
<polygon id="polygon120" points="959.5,596.3 959.5,593.3 858,593.3 858,696.3 959.5,696.3 959.5,693.3 861,693.3 861,676.3 
	959.5,676.3 959.5,673.3 861,673.3 861,596.3 "/>
<polygon id="polygon122" points="423,1370.1 423,1367.1 221.5,1367.1 221.5,1470.1 423,1470.1 423,1467.1 224.5,1467.1 
	224.5,1450.1 423,1450.1 423,1447.1 224.5,1447.1 224.5,1370.1 "/>
<g id="g126">
	<rect id="rect124" x="454.4" y="1368.6" width="3" height="100"/>
</g>
<g id="g130">
	<path id="path128" d="M920.2,2154.8c-0.3,0-0.7,0-1,0H799.1c-5.3,0-21.5,0-21.5-11.5h3c0,5.8,5.9,8.5,18.5,8.5h120
		c12.2,0,27.3,0,39-3.1c13.1-3.5,19.5-10.1,19.5-20.4c0-11.9-24.3-14.7-38.8-16.4l-4.2-0.5c-69.2-8.1-107.8-12.7-114.8-13.6
		l-0.8-0.1c-12.4-1.7-41.5-5.6-41.5-19.4c0-26.5,40.7-26.5,62.5-26.5h119c5.9,0,21.5,0,21.5,11.5h-3c0-5.8-5.9-8.5-18.5-8.5H840.1
		c-30.9,0-59.5,2.8-59.5,23.5c0,11.2,28.3,15,38.9,16.4l0.8,0.1c7,0.9,45.6,5.5,114.7,13.6l4.2,0.5c16.5,1.9,41.4,4.8,41.4,19.4
		c0,11.7-7.3,19.5-21.7,23.3C947.2,2154.8,932.3,2154.8,920.2,2154.8z"/>
</g>
<polygon id="polygon82_2_" points="4856.1,2948.7 4656.1,2948.7 4656.1,2951.7 4754.6,2951.7 4754.6,3050.2 4757.6,3050.2 
	4757.6,2951.7 4856.1,2951.7 "/>
<path id="path96_2_" d="M4359.7,2974.5c0-26.5-37.6-26.5-62.5-26.5h-140.5v1.5v100l0,0h3l0,0v-28.7c15.5-1.7,143.5-15.5,165.8-20.8
	l31.4,50.2l2.5-1.6l-30.9-49.4C4348.3,2993.8,4359.7,2987.8,4359.7,2974.5z M4159.7,2951h137.5c25.1,0,59.5,0,59.5,23.5
	c0,11.9-10.8,17-30.9,22.4c-18.4,4.9-149.8,19.2-166.1,20.9V2951L4159.7,2951z"/>
<g id="g130_2_">
	<path id="path128_2_" d="M4573.2,3050.2c-0.3,0-0.7,0-1,0h-120.1c-5.3,0-21.5,0-21.5-11.5h3c0,5.8,5.9,8.5,18.5,8.5h120
		c12.2,0,27.3,0,39-3.1c13.1-3.5,19.5-10.1,19.5-20.4c0-11.9-24.3-14.7-38.8-16.4l-4.2-0.5c-69.2-8.1-107.8-12.7-114.8-13.6
		l-0.8-0.1c-12.4-1.7-41.5-5.6-41.5-19.4c0-26.5,40.7-26.5,62.5-26.5h119c5.9,0,21.5,0,21.5,11.5h-3c0-5.8-5.9-8.5-18.5-8.5h-118.9
		c-30.9,0-59.5,2.8-59.5,23.5c0,11.2,28.3,15,38.9,16.4l0.8,0.1c7,0.9,45.6,5.5,114.7,13.6l4.2,0.5c16.5,1.9,41.4,4.8,41.4,19.4
		c0,11.7-7.3,19.5-21.7,23.3C4600.2,3050.2,4585.3,3050.2,4573.2,3050.2z"/>
</g>
<g id="g134">
	<path id="path132" d="M646.2,1798.6c-0.3,0-0.7,0-1,0h-120c-5.3,0-21.5,0-21.5-11.5h3c0,5.8,5.9,8.5,18.5,8.5h120
		c12.2,0,27.3,0,39-3.1c13.1-3.5,19.5-10.1,19.5-20.4c0-11.9-24.3-14.7-38.8-16.4l-4.2-0.5c-69.2-8.1-107.8-12.7-114.8-13.6
		l-0.8-0.1c-12.4-1.7-41.5-5.6-41.5-19.4c0-26.5,40.7-26.5,62.5-26.5h119c5.9,0,21.5,0,21.5,11.5h-3c0-5.8-5.9-8.5-18.5-8.5h-119
		c-30.9,0-59.5,2.8-59.5,23.5c0,11.2,28.3,15,38.9,16.4l0.8,0.1c7,0.9,45.6,5.5,114.7,13.6l4.2,0.5c16.5,1.9,41.4,4.8,41.4,19.4
		c0,11.7-7.3,19.5-21.7,23.3C673.2,1798.5,658.4,1798.6,646.2,1798.6z"/>
</g>
<path id="path136" d="M1406.1,2051.8h-78c-24.9,0-62.5,0-62.5,26.5v75h3v-49.7h197v49.7h3v-75
	C1468.6,2051.8,1431,2051.8,1406.1,2051.8z M1268.6,2100.7v-22.3c0-23.5,34.4-23.5,59.5-23.5h78c25.1,0,59.5,0,59.5,23.5v22.3
	H1268.6z"/>
<polygon id="polygon82_1_" points="2335.9,2041.7 2135.9,2041.7 2135.9,2044.7 2234.4,2044.7 2234.4,2143.2 2237.4,2143.2 
	2237.4,2044.7 2335.9,2044.7 "/>
<g id="g130_1_">
	<path id="path128_1_" d="M2053,2144.7c-0.3,0-0.7,0-1,0h-120.1c-5.3,0-21.5,0-21.5-11.5h3c0,5.8,5.9,8.5,18.5,8.5h120
		c12.2,0,27.3,0,39-3.1c13.1-3.5,19.5-10.1,19.5-20.4c0-11.9-24.3-14.7-38.8-16.4l-4.2-0.5c-69.2-8.1-107.8-12.7-114.8-13.6
		l-0.8-0.1c-12.4-1.7-41.5-5.6-41.5-19.4c0-26.5,40.7-26.5,62.5-26.5h119c5.9,0,21.5,0,21.5,11.5h-3c0-5.8-5.9-8.5-18.5-8.5h-118.9
		c-30.9,0-59.5,2.8-59.5,23.5c0,11.2,28.3,15,38.9,16.4l0.8,0.1c7,0.9,45.6,5.5,114.7,13.6l4.2,0.5c16.5,1.9,41.4,4.8,41.4,19.4
		c0,11.7-7.3,19.5-21.7,23.3C2080,2144.7,2065.1,2144.7,2053,2144.7z"/>
</g>
<path id="path136_1_" d="M2498.9,2041.7h-78c-24.9,0-62.5,0-62.5,26.5v75h3v-49.7h197v49.7h3v-75
	C2561.4,2041.7,2523.8,2041.7,2498.9,2041.7z M2361.4,2090.6v-22.3c0-23.5,34.4-23.5,59.5-23.5h78c25.1,0,59.5,0,59.5,23.5v22.3
	H2361.4z"/>
<path id="path138" d="M1251,1397.1h-78c-24.9,0-62.5,0-62.5,26.5v75h3v-49.7h197v49.7h3v-75
	C1313.5,1397.1,1275.9,1397.1,1251,1397.1z M1113.5,1446v-22.3c0-23.5,34.4-23.5,59.5-23.5h78c25.1,0,59.5,0,59.5,23.5v22.3H1113.5z
	"/>
<path id="path140" d="M1068.4,1662.6c-14.1-19.6-29.4-31.2-41.1-31.2h-78c-11.7,0-27,11.7-41.1,31.2c-12.8,17.8-21.4,38-21.4,50.2
	v20h3v-18.5h197v18.5h3v-20C1089.8,1700.6,1081.2,1680.4,1068.4,1662.6z M910.6,1664.3c13.5-18.8,27.9-30,38.7-30h78
	c10.7,0,25.2,11.2,38.7,30c12,16.6,20.1,35.2,20.8,47h-197C890.5,1699.5,898.7,1681,910.6,1664.3z"/>
<path id="path142" d="M1068.4,1538.5c-14.1-19.6-29.4-31.2-41.1-31.2h-78c-11.7,0-27,11.7-41.1,31.2c-12.8,17.8-21.4,38-21.4,50.2
	v20h3v-18.5h197v18.5h3v-20C1089.8,1576.6,1081.2,1556.4,1068.4,1538.5z M910.6,1540.3c13.5-18.8,27.9-30,38.7-30h78
	c10.7,0,25.2,11.2,38.7,30c12,16.6,20.1,35.2,20.8,47h-197C890.5,1575.5,898.7,1556.9,910.6,1540.3z"/>
<path id="path144" d="M1508,1662.1c-23.4-15.1-48.1-26.5-57.7-26.5s-34.3,11.4-57.7,26.5c-13.2,8.5-43.8,30.1-43.8,46.3v28.8h3
	v-27.3h197v27.3h3v-28.8C1551.9,1692.2,1521.2,1670.6,1508,1662.1z M1394.3,1664.6c22.2-14.3,47.3-26,56-26s33.9,11.7,56,26
	c25.3,16.4,40.9,32,42.3,42.2h-196.8C1353.4,1696.6,1369,1681,1394.3,1664.6z"/>
<path id="path146" d="M1313.2,1556.7c-1.5-2-36.7-49.5-62.2-49.5h-78c-25.5,0-60.7,47.4-62.2,49.5l-0.3,0.4v51.7h3v-49.7h197v49.7h3
	v-51.7L1313.2,1556.7z M1173,1510.3h78c20.8,0,50.4,36.1,58,45.8h-193.9C1122.7,1546.4,1152.2,1510.3,1173,1510.3z"/>
<path id="path148" d="M1310.8,1733.6l2.6-1.6l-61.4-100.7h-79.7l-61.4,100.7l2.6,1.6l30.8-50.4h135.9L1310.8,1733.6z M1145.9,1680.2
	l28-45.8h76.3l28,45.8H1145.9z"/>
<path id="path150" d="M1311,1861.5l2.1-2.1l-27.4-27.4h26.3v-3h-29.3l-70.7-70.7l-70.7,70.7H1112v3h26.3l-27.4,27.4l2.1,2.1
	l29.5-29.5h138.9L1311,1861.5z M1145.6,1829l66.5-66.5l66.5,66.5H1145.6z"/>
<path id="path152" d="M1087.2,1861.5l2.1-2.1l-101.1-101.1l-101.1,101.1l2.1,2.1l20.7-20.7h156.4L1087.2,1861.5z M913,1837.8
	l75.2-75.2l75.2,75.2H913z"/>
<g id="g162">
	<g id="g156">
		<polygon id="polygon154" points="3000.2,1124.4 2901.2,1025.5 2802.3,1124.4 2800.2,1122.3 2901.2,1021.2 3002.3,1122.3 		"/>
	</g>
	<g id="g160">
		<rect id="rect158" x="2822.4" y="1100.7" width="157.7" height="3"/>
	</g>
</g>
<path id="path164" d="M1955.2,636.2l2.1-2.1L1856.2,533l-101,101.1l2.1,2.1l20.7-20.7h156.4L1955.2,636.2z M1781.1,612.5l75.2-75.2
	l75.2,75.2H1781.1z"/>
<polygon id="polygon166" points="2112.7,536.2 2110.6,534.1 2032.8,611.9 1955,534.1 1952.9,536.2 2031.3,614.6 2031.3,635.2 
	2034.3,635.2 2034.3,614.6 "/>
<polygon id="polygon166_1_" points="5904.1,2951.2 5902,2949.1 5824.2,3026.9 5746.4,2949.1 5744.3,2951.2 5822.7,3029.6 
	5822.7,3050.2 5825.7,3050.2 5825.7,3029.6 "/>
<g id="g172">
	<g id="g170">
		<polygon id="polygon168" points="2326.2,1363.4 2326.2,1261 2329.2,1261 2329.2,1358.5 2427.7,1309.3 2428.4,1309.6 
			2526.2,1358.5 2526.2,1261 2529.2,1261 2529.2,1363.4 2427.7,1312.6 		"/>
	</g>
</g>
<g id="g172_1_">
	<g id="g170_1_">
		<polygon id="polygon168_1_" points="1915.1,1740.9 1915.1,1638.5 1918.1,1638.5 1918.1,1736 2016.6,1686.8 2017.3,1687.1 
			2115.1,1736 2115.1,1638.5 2118.1,1638.5 2118.1,1740.9 2016.6,1690.1 		"/>
	</g>
</g>
<g id="g172_3_">
	<g id="g170_3_">
		<polygon id="polygon168_3_" points="5267.6,3050.2 5267.6,2947.8 5270.6,2947.8 5270.6,3045.3 5369.1,2996.1 5369.8,2996.4 
			5467.6,3045.3 5467.6,2947.8 5470.6,2947.8 5470.6,3050.2 5369.1,2999.4 		"/>
	</g>
</g>
<g id="g172_2_">
	<g id="g170_2_">
		<polygon id="polygon168_2_" points="1915.1,1868.7 1915.1,1766.3 1918.1,1766.3 1918.1,1863.8 2016.6,1814.6 2017.3,1814.9 
			2115.1,1863.8 2115.1,1766.3 2118.1,1766.3 2118.1,1868.7 2016.6,1817.9 		"/>
	</g>
</g>
<path id="path174" d="M1558,1859.4l-101.1-101.1l-101.1,101.1l2.1,2.1l50.7-50.7h95.3v-1.1l51.8,51.8L1558,1859.4z M1411.7,1807.8
	l45.2-45.2l45.2,45.2H1411.7z"/>
<polygon id="polygon176" points="655.9,1370.1 655.9,1367.1 454.4,1367.1 454.4,1470.1 655.9,1470.1 655.9,1467.1 457.4,1467.1 
	457.4,1440.2 655.9,1440.2 655.9,1437.2 457.4,1437.2 457.4,1370.1 "/>
<polygon id="polygon176_1_" points="1439.3,2950.2 1439.3,2947.2 1237.8,2947.2 1237.8,3050.2 1439.3,3050.2 1439.3,3047.2 
	1240.8,3047.2 1240.8,3020.3 1439.3,3020.3 1439.3,3017.3 1240.8,3017.3 1240.8,2950.2 "/>
<g id="g190">
	<g id="g180">
		<rect id="rect178" x="2329.8" y="1023.3" width="3" height="100"/>
	</g>
	<g id="g184">
		<rect id="rect182" x="2529.8" y="1023.3" width="3" height="100"/>
	</g>
	<g id="g188">
		<rect id="rect186" x="2331.3" y="1085.3" width="200" height="3"/>
	</g>
</g>
<g id="g200">
	<g id="g194">
		<rect id="rect192" x="2566.3" y="1091.9" width="200" height="3"/>
	</g>
	<g id="g198">
		<polygon id="polygon196" points="2766.3,1124.8 2564.8,1124.8 2564.8,1021.8 2766.3,1021.8 2766.3,1024.8 2567.8,1024.8 
			2567.8,1121.8 2766.3,1121.8 		"/>
	</g>
</g>
<polygon id="polygon202" points="2705.7,704.3 2705.7,701.3 2504.2,701.3 2504.2,804.3 2705.7,804.3 2705.7,801.3 2507.2,801.3 
	2507.2,774.4 2705.7,774.4 2705.7,771.4 2507.2,771.4 2507.2,704.3 "/>
<polygon id="polygon204" points="2954,704.3 2954,701.3 2752.5,701.3 2752.5,804.3 2954,804.3 2954,801.3 2755.5,801.3 
	2755.5,774.4 2954,774.4 2954,771.4 2755.5,771.4 2755.5,704.3 "/>
<polygon id="polygon206" points="888.3,1370.1 888.3,1367.1 686.8,1367.1 686.8,1470.1 888.3,1470.1 888.3,1467.1 689.8,1467.1 
	689.8,1420.1 888.3,1420.1 888.3,1417.1 689.8,1417.1 689.8,1370.1 "/>
<polygon id="polygon206_1_" points="1676.9,2950.2 1676.9,2947.2 1475.4,2947.2 1475.4,3050.2 1478.4,3050.2 1478.4,3000.2 
	1647.2,3000.2 1647.2,2997.2 1478.4,2997.2 1478.4,2950.2 "/>
<g id="g210">
	<path id="path208" d="M690.2,1920.5h-170c-9.1,0-16.5-7.4-16.5-16.5v-70c0-9.1,7.4-16.5,16.5-16.5h170c9.1,0,16.5,7.4,16.5,16.5v70
		C706.7,1913.1,699.3,1920.5,690.2,1920.5z M520.2,1820.5c-7.4,0-13.5,6.1-13.5,13.5v70c0,7.4,6.1,13.5,13.5,13.5h170
		c7.4,0,13.5-6.1,13.5-13.5v-70c0-7.4-6.1-13.5-13.5-13.5H520.2z"/>
</g>
<g id="g214">
	<path id="path212" d="M355.9,1920.5c-84.2,0-101.5-20.6-101.5-51.5c0-12.4,2.1-26.5,17.7-36.6c15.5-10,42.9-14.9,83.8-14.9
		s68.3,4.9,83.8,14.9c15.6,10.1,17.7,24.2,17.7,36.6C457.4,1899.9,440.2,1920.5,355.9,1920.5z M355.9,1820.5
		c-40.3,0-67.1,4.7-82.2,14.4c-14.4,9.3-16.3,22.5-16.3,34.1c0,23.5,7.6,48.5,98.5,48.5s98.5-25,98.5-48.5
		c0-11.6-1.9-24.8-16.3-34.1C423.1,1825.2,396.2,1820.5,355.9,1820.5z"/>
</g>
<g id="g214_1_">
	<path id="path212_1_" d="M3999.4,3050.2c-84.2,0-101.5-20.6-101.5-51.5c0-12.4,2.1-26.5,17.7-36.6c15.5-10,42.9-14.9,83.8-14.9
		c40.9,0,68.3,4.9,83.8,14.9c15.6,10.1,17.7,24.2,17.7,36.6C4100.9,3029.6,4083.7,3050.2,3999.4,3050.2z M3999.4,2950.2
		c-40.3,0-67.1,4.7-82.2,14.4c-14.4,9.3-16.3,22.5-16.3,34.1c0,23.5,7.6,48.5,98.5,48.5c90.9,0,98.5-25,98.5-48.5
		c0-11.6-1.9-24.8-16.3-34.1C4066.6,2954.9,4039.7,2950.2,3999.4,2950.2z"/>
</g>
<path d="M689,2413.4c-15.5-10-42.9-14.9-83.8-14.9H503.7v103h101.5c84.3,0,101.5-20.6,101.5-51.5
	C706.7,2437.6,704.6,2423.5,689,2413.4z M605.2,2498.5h-98.5v-97h98.5c40.3,0,67.2,4.7,82.2,14.4c14.4,9.3,16.3,22.5,16.3,34.1
	C703.7,2473.5,696.1,2498.5,605.2,2498.5z"/>
<path d="M3281.9,1914.9c-15.5-10-42.9-14.9-83.8-14.9h-101.5v103h101.5c84.3,0,101.5-20.6,101.5-51.5
	C3299.6,1939.1,3297.5,1925,3281.9,1914.9z M3198.1,2000h-98.5v-97h98.5c40.3,0,67.2,4.7,82.2,14.4c14.4,9.3,16.3,22.5,16.3,34.1
	C3296.6,1975,3289,2000,3198.1,2000z"/>
<path d="M2095.6,2202.7c-15.5-10-42.9-14.9-83.8-14.9h-101.5v103h101.5c84.3,0,101.5-20.6,101.5-51.5
	C2113.3,2226.9,2111.2,2212.8,2095.6,2202.7z M2011.8,2287.8h-98.5v-97h98.5c40.3,0,67.2,4.7,82.2,14.4
	c14.4,9.3,16.3,22.5,16.3,34.1C2110.3,2262.8,2102.7,2287.8,2011.8,2287.8z"/>
<path d="M1173.6,2962.1c-15.5-10-42.9-14.9-83.8-14.9H988.3v103h101.5c84.3,0,101.5-20.6,101.5-51.5
	C1191.3,2986.3,1189.2,2972.2,1173.6,2962.1z M1089.8,3047.2h-98.5v-97h98.5c40.3,0,67.2,4.7,82.2,14.4
	c14.4,9.3,16.3,22.5,16.3,34.1C1188.3,3022.2,1180.7,3047.2,1089.8,3047.2z"/>
<path d="M3025,1775.3c-15.5-10-42.9-14.9-83.8-14.9h-101.5v103h101.5c84.3,0,101.5-20.6,101.5-51.5
	C3042.7,1799.5,3040.6,1785.4,3025,1775.3z M2941.2,1860.4h-98.5v-97h98.5c40.3,0,67.2,4.7,82.2,14.4c14.4,9.3,16.3,22.5,16.3,34.1
	C3039.7,1835.4,3032.1,1860.4,2941.2,1860.4z"/>
<g id="g218">
	<path id="path216" d="M355.9,1791.8c-50.2,0-75.4,0-88.2-6.4c-13.3-6.7-13.3-19.5-13.3-45.1s0-38.4,13.3-45.1
		c12.8-6.4,38-6.4,88.2-6.4s75.4,0,88.2,6.4c13.3,6.7,13.3,19.5,13.3,45.1s0,38.4-13.3,45.1C431.3,1791.8,406.1,1791.8,355.9,1791.8
		z M355.9,1691.8c-49.7,0-74.6,0-86.8,6.1c-11.7,5.8-11.7,18.1-11.7,42.4s0,36.6,11.7,42.4c12.2,6.1,37.1,6.1,86.8,6.1
		s74.6,0,86.8-6.1c11.7-5.8,11.7-18.1,11.7-42.4s0-36.6-11.7-42.4C430.6,1691.8,405.6,1691.8,355.9,1691.8z"/>
</g>
<g id="g232">
	<g id="g222">
		
			<rect id="rect220" x="3030.5" y="1299.5" transform="matrix(0.9286 -0.3712 0.3712 0.9286 -258.7009 1257.7759)" width="215.4" height="3"/>
	</g>
	<g id="g226">
		<rect id="rect224" x="3036.5" y="1261" width="3" height="100"/>
	</g>
	<g id="g230">
		
			<rect id="rect228" x="3211.5" y="1273.8" transform="matrix(0.848 -0.53 0.53 0.848 -211.7207 1903.6631)" width="3" height="94.3"/>
	</g>
</g>
<g id="g246">
	<g id="g236">
		<path id="path234" d="M2802.7,1361h-3v-101.5h140.5c24.9,0,62.5,0,62.5,26.5c0,13.7-12.1,19.7-33.1,25.3
			c-18.9,5.1-151.1,19.4-166.9,21.1V1361z M2802.7,1262.5v66.8c16.4-1.8,147.8-16,166.1-20.9c20-5.4,30.9-10.5,30.9-22.4
			c0-23.5-34.4-23.5-59.5-23.5H2802.7z"/>
	</g>
	<g id="g240">
		<rect id="rect238" x="2799.7" y="1261" width="3" height="100"/>
	</g>
	<g id="g244">
		
			<rect id="rect242" x="2983.7" y="1305.2" transform="matrix(0.848 -0.53 0.53 0.848 -253.9882 1785.1207)" width="3" height="60.3"/>
	</g>
</g>
<g id="g250">
	<path id="path248" d="M2664.5,1362.5c-50.2,0-75.4,0-88.2-6.4c-13.3-6.7-13.3-19.5-13.3-45.1s0-38.4,13.3-45.1
		c12.8-6.4,38-6.4,88.2-6.4s75.4,0,88.2,6.4c13.3,6.7,13.3,19.5,13.3,45.1s0,38.4-13.3,45.1
		C2739.8,1362.5,2714.7,1362.5,2664.5,1362.5z M2664.5,1262.5c-49.7,0-74.6,0-86.8,6.1c-11.7,5.8-11.7,18.1-11.7,42.4
		s0,36.6,11.7,42.4c12.2,6.1,37.1,6.1,86.8,6.1s74.6,0,86.8-6.1c11.7-5.8,11.7-18.1,11.7-42.4s0-36.6-11.7-42.4
		C2739.1,1262.5,2714.2,1262.5,2664.5,1262.5z"/>
</g>
<g id="g260">
	<g id="g254">
		<path id="path252" d="M5398.7,2151.6c-50.2,0-75.4,0-88.2-6.4c-13.3-6.7-13.3-19.5-13.3-45.1c0-25.6,0-38.4,13.3-45.1
			c12.8-6.4,38-6.4,88.2-6.4s75.4,0,88.2,6.4c13.3,6.7,13.3,19.5,13.3,45.1c0,25.6,0,38.4-13.3,45.1
			C5474.1,2151.6,5448.9,2151.6,5398.7,2151.6z M5398.7,2051.6c-49.7,0-74.6,0-86.8,6.1c-11.7,5.8-11.7,18.1-11.7,42.4
			s0,36.6,11.7,42.4c12.2,6.1,37.1,6.1,86.8,6.1s74.6,0,86.8-6.1c11.7-5.8,11.7-18.1,11.7-42.4s0-36.6-11.7-42.4
			C5473.4,2051.6,5448.4,2051.6,5398.7,2051.6z"/>
	</g>
	<g id="g258">
		
			<rect id="rect256" x="5294.5" y="2098.5" transform="matrix(0.9579 -0.2872 0.2872 0.9579 -375.6647 1638.9738)" width="208.8" height="3"/>
	</g>
</g>
<g id="g262">
</g>
<g id="g268">
	<g id="g266">
		<polygon id="polygon264" points="5267.2,2150.1 5264.2,2150.1 5264.2,2052.3 5216.3,2071.5 5215.2,2068.7 5267.2,2047.9 		"/>
	</g>
</g>
<g id="g274">
	<g id="g272">
		<polygon id="polygon270" points="2342.7,280.3 2339.7,280.3 2339.7,182.6 2291.8,201.7 2290.6,199 2342.7,178.1 		"/>
	</g>
</g>
<g id="g278">
	<path id="path276" d="M1901.8,804.3c-0.3,0-0.7,0-1,0h-120c-5.3,0-21.5,0-21.5-11.5h3c0,5.8,5.9,8.5,18.5,8.5h120
		c12.1,0,27.3,0,39-3.1c13.1-3.5,19.5-10.1,19.5-20.4c0-11.9-24.3-14.7-38.8-16.4l-4.2-0.5c-69.2-8.1-107.8-12.7-114.8-13.6
		l-0.8-0.1c-12.4-1.7-41.5-5.6-41.5-19.4c0-26.5,40.7-26.5,62.5-26.5h119c5.9,0,21.5,0,21.5,11.5h-3c0-5.8-5.9-8.5-18.5-8.5h-119
		c-30.9,0-59.5,2.8-59.5,23.5c0,11.2,28.3,15,38.9,16.4l0.8,0.1c7,0.9,45.6,5.5,114.7,13.6l4.2,0.5c16.5,1.9,41.4,4.8,41.4,19.4
		c0,11.7-7.3,19.5-21.7,23.3C1928.8,804.2,1914,804.3,1901.8,804.3z"/>
</g>
<g id="g290">
	<g id="g284">
		<g id="g282">
			<polygon id="polygon280" points="5735.7,2121.6 5534.2,2121.6 5534.2,2098.9 5735.4,2048.7 5736.1,2051.6 5537.2,2101.3 
				5537.2,2118.6 5735.7,2118.6 			"/>
		</g>
	</g>
	<g id="g288">
		<rect id="rect286" x="5734.2" y="2070.1" width="3" height="80"/>
	</g>
</g>
<g id="g296">
	<g id="g294">
		<polygon id="polygon292" points="5773.1,2151.6 5772.4,2148.7 5971.2,2098.9 5971.2,2081.6 5771.2,2081.6 5771.2,2048.6 
			5972.7,2048.6 5972.7,2051.6 5774.2,2051.6 5774.2,2078.6 5974.2,2078.6 5974.2,2101.3 		"/>
	</g>
</g>
<g id="g306">
	<g id="g300">
		<path id="path298" d="M3757.6,411c-50.2,0-75.4,0-88.2-6.4c-13.3-6.7-13.3-19.5-13.3-45.1s0-38.4,13.3-45.1
			c12.8-6.4,38-6.4,88.2-6.4s75.4,0,88.2,6.4c13.3,6.7,13.3,19.5,13.3,45.1s0,38.4-13.3,45.1C3832.9,411,3807.8,411,3757.6,411z
			 M3757.6,311c-49.7,0-74.6,0-86.8,6.1c-11.7,5.8-11.7,18.1-11.7,42.4s0,36.6,11.7,42.4c12.2,6.1,37.1,6.1,86.8,6.1
			s74.6,0,86.8-6.1c11.7-5.8,11.7-18.1,11.7-42.4s0-36.6-11.7-42.4C3832.2,311,3807.3,311,3757.6,311z"/>
	</g>
	<g id="g304">
		
			<rect id="rect302" x="3653.3" y="357.9" transform="matrix(0.9579 -0.2872 0.2872 0.9579 55.0822 1094.3109)" width="208.8" height="3"/>
	</g>
</g>
<g id="g308">
</g>
<g id="g314">
	<g id="g312">
		<polygon id="polygon310" points="3968.9,409.5 3965.9,409.5 3965.9,311.7 3918,330.9 3916.8,328.1 3968.9,307.3 		"/>
	</g>
</g>
<g id="g326">
	<g id="g320">
		<g id="g318">
			<polygon id="polygon316" points="4826,381 4624.5,381 4624.5,358.3 4825.6,308.1 4826.4,311 4627.5,360.7 4627.5,378 4826,378 
							"/>
		</g>
	</g>
	<g id="g324">
		<rect id="rect322" x="4824.5" y="329.5" width="3" height="80"/>
	</g>
</g>
<g id="g334">
	<g id="g332">
		<g id="g330">
			<path id="path328" d="M6174.4,619.4h-3v-28.2l-200-50.7v-22.7l203,0.7V619.4z M5974.4,538.3l197,49.9v-66.6l-197-0.7V538.3z"/>
		</g>
	</g>
</g>
<g id="g340">
	<g id="g338">
		<polygon id="polygon336" points="4863.3,411 4862.6,408.1 5061.5,358.3 5061.5,341 4861.5,341 4861.5,308 5063,308 5063,311 
			4864.5,311 4864.5,338 5064.5,338 5064.5,360.7 		"/>
	</g>
</g>
<g id="g346">
	<g id="g344">
		<path id="path342" d="M5148,411.3V308h201.5v3H5151v27h200v37.8L5148,411.3z M5151,341v66.7l197-34.5V341H5151L5151,341z"/>
	</g>
</g>
<g id="g352">
	<g id="g350">
		<path id="path348" d="M5148,1274.7v-71.8h1.4l-0.1-1.5l200-30l0.4,3l-180.1,27H5351v37.8L5148,1274.7z M5151,1204.4v66.7l197-34.5
			v-32.2H5151z"/>
	</g>
</g>
<g id="g358">
	<g id="g356">
		<path id="path354" d="M5351,604.1h-203v-103h201.5v3H5151v27h200V604.1z M5151,601.1h197v-67h-197V601.1z"/>
	</g>
</g>
<g id="g364">
	<g id="g362">
		<path id="path360" d="M5351,931.5h-203V860h1.4l-0.1-1.5l200-30l0.4,3l-180.1,27H5351L5351,931.5L5351,931.5z M5151,928.5h197v-67
			h-197V928.5z"/>
	</g>
</g>
<g id="g370">
	<g id="g368">
		<path id="path366" d="M5148,746.3V643.1h201.5v3H5151v27.1l200,20v29.5L5148,746.3z M5151,676.2v66.7l197-22.9v-24.1L5151,676.2z"
			/>
	</g>
</g>
<g id="g376">
	<g id="g374">
		<path id="path372" d="M5148,1117.2v-70.3l-10.6-1.1l211.9-31.8l0.4,3l-188.1,28.2l189.4,18.9v29.5l-1.3,0.2L5148,1117.2z
			 M5151,1047.1v66.7l197-22.9v-24.1L5151,1047.1z"/>
	</g>
</g>
<polygon id="polygon378" points="2334.5,410.2 2334.5,383.2 2533,383.2 2533,380.2 2331.5,380.2 2331.5,413.2 2531.5,413.2 
	2531.5,430.6 2332.6,480.3 2333.4,483.2 2534.5,432.9 2534.5,410.2 "/>
<polygon id="polygon380" points="2096.6,380.2 2096.6,383.2 2295.1,383.2 2295.1,410.2 2096.6,410.2 2096.6,413.2 2295.1,413.2 
	2295.1,430.6 2096.2,480.3 2096.9,483.2 2298.1,432.9 2298.1,411.7 2298.1,410.2 2298.1,380.2 "/>
<polygon id="polygon382" points="2072.5,178.8 2072.5,181.8 2271,181.8 2271,208.8 2072.5,208.8 2072.5,211.8 2271,211.8 
	2271,229.2 2072.1,278.9 2072.8,281.8 2274,231.5 2274,210.3 2274,208.8 2274,178.8 "/>
<g id="g386">
	<polygon id="polygon384" points="4276,604.1 4074.5,604.1 4074.5,571.1 4274.5,571.1 4274.5,553.8 4075.6,504.1 4076.3,501.1 
		4277.5,551.4 4277.5,574.1 4077.5,574.1 4077.5,601.1 4276,601.1 	"/>
</g>
<g id="g390">
	<polygon id="polygon388" points="4276,761.5 4074.5,761.5 4074.5,728.8 4274.5,678.8 4274.5,661.5 4076,661.5 4076,658.5 
		4277.5,658.5 4277.5,681.2 4077.5,731.2 4077.5,758.5 4276,758.5 	"/>
</g>
<g id="g394">
	<polygon id="polygon392" points="4276,411 4074.5,411 4074.5,378.3 4274.5,328.3 4274.5,311 4076,311 4076,308 4277.5,308 
		4277.5,330.7 4077.5,380.7 4077.5,408 4276,408 	"/>
</g>
<g id="g398">
	<polygon id="polygon396" points="1849.5,481.7 1846.5,481.7 1846.5,450.6 2046.5,400.6 2046.5,383.2 1848,383.2 1848,380.2 
		2049.5,380.2 2049.5,402.9 1849.5,452.9 	"/>
</g>
<g id="g402">
	<polygon id="polygon400" points="2377.4,280.3 2374.4,280.3 2374.4,249.2 2574.4,199.2 2574.4,181.8 2375.9,181.8 2375.9,178.8 
		2577.4,178.8 2577.4,201.5 2377.4,251.5 	"/>
</g>
<g id="g406">
	<polygon id="polygon404" points="4276,920.9 4068.2,920.9 4274.5,838.4 4274.5,820.9 4076,820.9 4076,817.9 4277.5,817.9 
		4277.5,840.4 4276.5,840.8 4083.7,917.9 4276,917.9 	"/>
</g>
<g id="g410">
	<polygon id="polygon408" points="4276,1058.8 4069.6,1058.8 4269.6,958.8 4076,958.8 4076,955.8 4282.3,955.8 4082.3,1055.8 
		4276,1055.8 	"/>
</g>
<g id="g414">
	<polygon id="polygon412" points="4276,1216.2 4074.5,1216.2 4074.5,1183.7 4239.3,1116.2 4076,1116.2 4076,1113.2 4276,1113.2 
		4276,1116.2 4247.3,1116.2 4077.5,1185.7 4077.5,1213.2 4276,1213.2 	"/>
</g>
<polygon id="polygon416" points="1494.8,1257.8 1494.8,1230.3 1293.3,1230.3 1293.3,1233.3 1491.8,1233.3 1491.8,1255.4 
	1291.8,1305.4 1291.8,1333.3 1493.3,1333.3 1493.3,1330.3 1294.8,1330.3 1294.8,1307.8 "/>
<g id="g426">
	<g id="g420">
		
			<rect id="rect418" x="5543.5" y="1884.5" transform="matrix(0.9762 -0.2169 0.2169 0.9762 -274.9071 1267.2821)" width="184.4" height="3"/>
	</g>
	<g id="g424">
		<path id="path422" d="M5737.5,1937.7h-203.8l10.5-31.6l-10.2-71.4h203.8l-10.5,31.6L5737.5,1937.7z M5537.8,1934.7H5734l-9.8-68.6
			l9.5-28.4h-196.2l9.8,68.6L5537.8,1934.7z"/>
	</g>
</g>
<g id="g436">
	<g id="g430">
		
			<rect id="rect428" x="5691.3" y="358" transform="matrix(0.9762 -0.2168 0.2168 0.9762 59.626 1262.4291)" width="184.4" height="3"/>
	</g>
	<g id="g434">
		<path id="path432" d="M5885.3,411h-203.8l10.5-31.6l-10.2-71.4h203.8l-10.5,31.6L5885.3,411z M5685.7,408h196.2l-9.8-68.6
			l9.5-28.4h-196.2l9.8,68.6L5685.7,408z"/>
	</g>
</g>
<g id="g442">
	<g id="g440">
		<polygon id="polygon438" points="5267.2,1936.2 5264.2,1936.2 5264.2,1838.4 5216.3,1857.6 5215.2,1854.8 5267.2,1834 		"/>
	</g>
</g>
<g id="g448">
	<g id="g446">
		<polygon id="polygon444" points="5824.2,1936.2 5821.2,1936.2 5821.2,1838.4 5773.3,1857.6 5772.2,1854.8 5824.2,1834 		"/>
	</g>
</g>
<g id="g460">
	<g id="g454">
		<g id="g452">
			<polygon id="polygon450" points="5498.7,1887.7 5297.2,1887.7 5297.2,1834.7 5498.7,1834.7 5498.7,1837.7 5300.2,1837.7 
				5300.2,1884.7 5498.7,1884.7 			"/>
		</g>
	</g>
	<g id="g458">
		<rect id="rect456" x="5497.2" y="1836.2" width="3" height="100"/>
	</g>
</g>
<g id="g472">
	<g id="g466">
		<g id="g464">
			<polygon id="polygon462" points="6172.9,361 5971.4,361 5971.4,308 6172.9,308 6172.9,311 5974.4,311 5974.4,358 6172.9,358 			
				"/>
		</g>
	</g>
	<g id="g470">
		<rect id="rect468" x="6171.4" y="309.5" width="3" height="100"/>
	</g>
</g>
<polygon id="polygon474" points="2217,874.5 2217,893.3 2020,942.5 2020,874.5 2017,874.5 2017,974.5 2020,974.5 2020,945.6 
	2220,895.6 2220,874.5 "/>
<g id="g484">
	<g id="g478">
		<polygon id="polygon476" points="4351.3,411 4350.6,408.1 4549.5,358.3 4549.5,341 4351,341 4351,338 4552.5,338 4552.5,360.7 		
			"/>
	</g>
	<g id="g482">
		<polygon id="polygon480" points="4552.5,339.5 4549.5,339.5 4549.5,311 4351,311 4351,308 4552.5,308 		"/>
	</g>
</g>
<g id="g488">
	<polygon id="polygon486" points="5395.7,409.5 5392.7,409.5 5392.7,378.3 5592.7,328.3 5592.7,311 5394.2,311 5394.2,308 
		5595.7,308 5595.7,330.7 5395.7,380.7 	"/>
</g>
<g id="g306_1_">
	<g id="g300_1_">
		<path id="path298_1_" d="M307.9,3316.2c-50.2,0-75.4,0-88.2-6.4c-13.3-6.7-13.3-19.5-13.3-45.1c0-25.6,0-38.4,13.3-45.1
			c12.8-6.4,38-6.4,88.2-6.4s75.4,0,88.2,6.4c13.3,6.7,13.3,19.5,13.3,45.1c0,25.6,0,38.4-13.3,45.1
			C383.2,3316.2,358.1,3316.2,307.9,3316.2z M307.9,3216.2c-49.7,0-74.6,0-86.8,6.1c-11.7,5.8-11.7,18.1-11.7,42.4
			c0,24.3,0,36.6,11.7,42.4c12.2,6.1,37.1,6.1,86.8,6.1s74.6,0,86.8-6.1c11.7-5.8,11.7-18.1,11.7-42.4c0-24.3,0-36.6-11.7-42.4
			C382.5,3216.2,357.6,3216.2,307.9,3216.2z"/>
	</g>
	<g id="g304_1_">
		
			<rect id="rect302_1_" x="203.6" y="3263" transform="matrix(0.9579 -0.2872 0.2872 0.9579 -924.5739 225.984)" width="208.8" height="3"/>
	</g>
</g>
<g id="g314_1_">
	<g id="g312_1_">
		<polygon id="polygon310_1_" points="519.2,3314.7 516.2,3314.7 516.2,3216.9 468.3,3236.1 467.1,3233.3 519.2,3212.5 		"/>
	</g>
</g>
<g id="g326_1_">
	<g id="g320_1_">
		<g id="g318_1_">
			<polygon id="polygon316_1_" points="1376.3,3286.2 1174.8,3286.2 1174.8,3263.5 1375.9,3213.3 1376.7,3216.2 1177.8,3265.9 
				1177.8,3283.2 1376.3,3283.2 			"/>
		</g>
	</g>
	<g id="g324_1_">
		<rect id="rect322_1_" x="1374.8" y="3234.7" width="3" height="80"/>
	</g>
</g>
<g id="g340_1_">
	<g id="g338_1_">
		<polygon id="polygon336_1_" points="1413.6,3316.2 1412.9,3313.3 1611.8,3263.5 1611.8,3246.2 1411.8,3246.2 1411.8,3213.2 
			1613.3,3213.2 1613.3,3216.2 1414.8,3216.2 1414.8,3243.2 1614.8,3243.2 1614.8,3265.9 		"/>
	</g>
</g>
<g id="g346_1_">
	<g id="g344_1_">
		<path id="path342_1_" d="M1698.3,3316.5v-103.3h201.5v3h-198.5v27h200v37.8L1698.3,3316.5z M1701.3,3246.2v66.7l197-34.5v-32.2
			H1701.3L1701.3,3246.2z"/>
	</g>
</g>
<g id="g394_1_">
	<polygon id="polygon392_1_" points="826.3,3316.2 624.8,3316.2 624.8,3283.5 824.8,3233.5 824.8,3216.2 626.3,3216.2 626.3,3213.2 
		827.8,3213.2 827.8,3235.9 627.8,3285.9 627.8,3313.2 826.3,3313.2 	"/>
</g>
<g id="g436_1_">
	<g id="g430_1_">
		
			<rect id="rect428_1_" x="2241.6" y="3263.1" transform="matrix(0.9762 -0.2168 0.2168 0.9762 -652.2672 583.6312)" width="184.4" height="3"/>
	</g>
	<g id="g434_1_">
		<path id="path432_1_" d="M2435.6,3316.2h-203.8l10.5-31.6l-10.2-71.4h203.8l-10.5,31.6L2435.6,3316.2z M2236,3313.2h196.2
			l-9.8-68.6l9.5-28.4h-196.2l9.8,68.6L2236,3313.2z"/>
	</g>
</g>
<g id="g472_1_">
	<g id="g466_1_">
		<g id="g464_1_">
			<polygon id="polygon462_1_" points="2723.2,3266.2 2521.7,3266.2 2521.7,3213.2 2723.2,3213.2 2723.2,3216.2 2524.7,3216.2 
				2524.7,3263.2 2723.2,3263.2 			"/>
		</g>
	</g>
	<g id="g470_1_">
		<rect id="rect468_1_" x="2721.7" y="3214.7" width="3" height="100"/>
	</g>
</g>
<g id="g484_1_">
	<g id="g478_1_">
		<polygon id="polygon476_1_" points="901.6,3316.2 900.9,3313.3 1099.8,3263.5 1099.8,3246.2 901.3,3246.2 901.3,3243.2 
			1102.8,3243.2 1102.8,3265.9 		"/>
	</g>
	<g id="g482_1_">
		<polygon id="polygon480_1_" points="1102.8,3244.7 1099.8,3244.7 1099.8,3216.2 901.3,3216.2 901.3,3213.2 1102.8,3213.2 		"/>
	</g>
</g>
<g id="g488_1_">
	<polygon id="polygon486_1_" points="1946,3314.7 1943,3314.7 1943,3283.5 2143,3233.5 2143,3216.2 1944.5,3216.2 1944.5,3213.2 
		2146,3213.2 2146,3235.9 1946,3285.9 	"/>
</g>
<polygon id="polygon490" points="3899.4,1372.1 3896.4,1372.1 3896.4,1468.5 3799,1371 3797.9,1372.1 3796.4,1372.1 3796.4,1468.5 
	3699,1371 3696.8,1373.1 3796.8,1473.1 3797.9,1472.1 3799.4,1472.1 3799.4,1375.7 3896.8,1473.1 3897.9,1472.1 3899.4,1472.1 "/>
<g id="g504">
	<g id="g494">
		
			<rect id="rect492" x="4364.3" y="1410.5" transform="matrix(0.9286 -0.3712 0.3712 0.9286 -204.6289 1760.8011)" width="215.4" height="3"/>
	</g>
	<g id="g498">
		<rect id="rect496" x="4370.3" y="1372.1" width="3" height="100"/>
	</g>
	<g id="g502">
		
			<rect id="rect500" x="4545.3" y="1384.9" transform="matrix(0.848 -0.53 0.53 0.848 -67.869 2627.4607)" width="3" height="94.3"/>
	</g>
</g>
<g id="g518">
	<g id="g508">
		<rect id="rect506" x="3696.4" y="1993.2" width="3" height="100"/>
	</g>
	<g id="g512">
		<rect id="rect510" x="3896.4" y="1993.2" width="3" height="100"/>
	</g>
	<g id="g516">
		<polygon id="polygon514" points="3897.3,2074.6 3797.9,2034.8 3698.4,2074.6 3697.3,2071.8 3797.9,2031.6 3898.4,2071.8 		"/>
	</g>
</g>
<g id="g536">
	<polygon id="polygon534" points="3842.7,1970.6 3807.2,1871.5 3770,1970.5 3705.9,1868 3708.5,1866.4 3769.4,1963.8 3807.2,1862.8 
		3843.4,1963.7 3904.3,1866.4 3906.8,1868 	"/>
</g>
<g id="g550">
	<g id="g540">
		<path id="path538" d="M4157.9,1472.1h-3v-101.5h140.5c24.9,0,62.5,0,62.5,26.5c0,13.7-12.1,19.7-33.1,25.3
			c-18.9,5.1-151.1,19.4-166.9,21.1L4157.9,1472.1L4157.9,1472.1z M4157.9,1373.6v66.8c16.4-1.8,147.8-16,166.1-20.9
			c20-5.4,30.9-10.5,30.9-22.4c0-23.5-34.4-23.5-59.5-23.5H4157.9z"/>
	</g>
	<g id="g544">
		<rect id="rect542" x="4154.9" y="1372.1" width="3" height="100"/>
	</g>
	<g id="g548">
		
			<rect id="rect546" x="4338.9" y="1416.4" transform="matrix(0.848 -0.53 0.53 0.848 -106.9052 2520.2688)" width="3" height="60.3"/>
	</g>
</g>
<g id="g564">
	<g id="g554">
		
			<rect id="rect552" x="4340.6" y="2031.6" transform="matrix(0.9286 -0.3712 0.3712 0.9286 -436.874 1796.389)" width="215.4" height="3"/>
	</g>
	<g id="g558">
		<rect id="rect556" x="4346.6" y="1993.2" width="3" height="100"/>
	</g>
	<g id="g562">
		
			<rect id="rect560" x="4521.6" y="2006" transform="matrix(0.848 -0.53 0.53 0.848 -400.6593 2709.3184)" width="3" height="94.3"/>
	</g>
</g>
<g id="g568">
	<polygon id="polygon566" points="3848.2,2375.7 3797.9,2315.3 3747.6,2375.7 3696.5,2273.6 3699.2,2272.3 3748.2,2370.2 
		3797.9,2310.6 3847.6,2370.2 3896.5,2272.3 3899.2,2273.6 	"/>
</g>
<g id="g582">
	<g id="g572">
		<path id="path570" d="M4132.9,2093.2h-3v-101.5h140.5c24.9,0,62.5,0,62.5,26.5c0,13.7-12.1,19.7-33.1,25.3
			c-18.9,5.1-151.1,19.4-166.9,21.1L4132.9,2093.2L4132.9,2093.2z M4132.9,1994.7v66.8c16.4-1.8,147.8-16,166.1-20.9
			c20-5.4,30.9-10.5,30.9-22.4c0-23.5-34.4-23.5-59.5-23.5H4132.9z"/>
	</g>
	<g id="g576">
		<rect id="rect574" x="4129.9" y="1993.2" width="3" height="100"/>
	</g>
	<g id="g580">
		
			<rect id="rect578" x="4313.9" y="2037.4" transform="matrix(0.848 -0.53 0.53 0.848 -439.8743 2601.4231)" width="3" height="60.3"/>
	</g>
</g>
<g id="g588">
	<g id="g586">
		<polygon id="polygon584" points="3908.7,1660.7 3807.2,1559.2 3705.7,1660.7 3705.7,1557.1 3708.7,1557.1 3708.7,1653.5 
			3807.2,1555 3905.7,1653.5 3905.7,1557.1 3908.7,1557.1 		"/>
	</g>
</g>
<g id="g588_1_">
	<g id="g586_1_">
		<polygon id="polygon584_1_" points="2837.9,2031.2 2939.4,2132.7 3040.9,2031.2 3040.9,2134.8 3037.9,2134.8 3037.9,2038.4 
			2939.4,2136.9 2840.9,2038.4 2840.9,2134.8 2837.9,2134.8 		"/>
	</g>
</g>
<g id="g588_2_">
	<g id="g586_2_">
		<polygon id="polygon584_2_" points="2926.6,2944.5 3028.1,3046 3129.6,2944.5 3129.6,3048.1 3126.6,3048.1 3126.6,2951.7 
			3028.1,3050.2 2929.6,2951.7 2929.6,3048.1 2926.6,3048.1 		"/>
	</g>
</g>
<g id="g594">
	<g id="g592">
		<polygon id="polygon590" points="3908.7,1805.7 3807.2,1755 3705.7,1805.7 3705.7,1703.3 3708.7,1703.3 3708.7,1800.9 
			3807.2,1751.6 3807.9,1751.9 3905.7,1800.9 3905.7,1703.3 3908.7,1703.3 		"/>
	</g>
</g>
<g id="g598">
	<path id="path596" d="M4038.9,1658.6c-50.2,0-75.4,0-88.2-6.4c-13.3-6.7-13.3-19.5-13.3-45.1s0-38.4,13.3-45.1
		c12.8-6.4,38-6.4,88.2-6.4s75.4,0,88.2,6.4c13.3,6.7,13.3,19.5,13.3,45.1s0,38.4-13.3,45.1
		C4114.3,1658.6,4089.1,1658.6,4038.9,1658.6z M4038.9,1558.6c-49.7,0-74.6,0-86.8,6.1c-11.7,5.8-11.7,18.1-11.7,42.4
		s0,36.6,11.7,42.4c12.2,6.1,37.1,6.1,86.8,6.1s74.6,0,86.8-6.1c11.7-5.8,11.7-18.1,11.7-42.4s0-36.6-11.7-42.4
		C4113.6,1558.6,4088.6,1558.6,4038.9,1558.6z"/>
</g>
<g id="g602">
	<path id="path600" d="M4014.6,2094.7c-50.2,0-75.4,0-88.2-6.4c-13.3-6.7-13.3-19.5-13.3-45.1c0-25.6,0-38.4,13.3-45.1
		c12.8-6.4,38-6.4,88.2-6.4s75.4,0,88.2,6.4c13.3,6.7,13.3,19.5,13.3,45.1c0,25.6,0,38.4-13.3,45.1
		C4090,2094.7,4064.8,2094.7,4014.6,2094.7z M4014.6,1994.7c-49.7,0-74.6,0-86.8,6.1c-11.7,5.8-11.7,18.1-11.7,42.4
		s0,36.6,11.7,42.4c12.2,6.1,37.1,6.1,86.8,6.1s74.6,0,86.8-6.1c11.7-5.8,11.7-18.1,11.7-42.4s0-36.6-11.7-42.4
		C4089.3,1994.7,4064.3,1994.7,4014.6,1994.7z"/>
</g>
<g id="g606">
	<path id="path604" d="M4038.9,1476.4c-88.8,0-107-21.7-107-54.3c0-13.1,2.2-28,18.7-38.6c16.4-10.6,45.3-15.7,88.4-15.7
		s72,5.1,88.4,15.7s18.7,25.5,18.7,38.6C4146,1454.7,4127.8,1476.4,4038.9,1476.4z M4038.9,1370.8c-42.5,0-70.9,5-86.7,15.2
		c-15.2,9.8-17.3,23.7-17.3,36.1c0,24.8,8,51.3,104,51.3s104-26.5,104-51.3c0-21.9-8.7-30.5-17.3-36.1
		C4109.8,1375.8,4081.5,1370.8,4038.9,1370.8z"/>
</g>
<g id="g624">
	<g id="g610">
		<rect id="rect608" x="3896.4" y="2139.3" width="3" height="100"/>
	</g>
	<g id="g614">
		<rect id="rect612" x="3696.4" y="2139.3" width="3" height="100"/>
	</g>
	<g id="g618">
		
			<rect id="rect616" x="3692.3" y="2187.8" transform="matrix(0.9286 -0.3712 0.3712 0.9286 -543.0648 1556.9028)" width="161.6" height="3"/>
	</g>
	<g id="g622">
		
			<rect id="rect620" x="3871.3" y="2150.2" transform="matrix(0.7682 -0.6402 0.6402 0.7682 -503.8584 2986.8687)" width="3" height="78.1"/>
	</g>
</g>
<polygon points="3896.4,1229.4 3896.4,1307.2 3799.4,1268.4 3799.4,1229.4 3796.4,1229.4 3796.4,1268.4 3699.4,1307.2 
	3699.4,1229.4 3696.4,1229.4 3696.4,1329.4 3699.4,1329.4 3699.4,1310.4 3797.9,1271 3896.4,1310.4 3896.4,1329.4 3899.4,1329.4 
	3899.4,1229.4 "/>
<g id="g4358" transform="translate(249.43281,466.15311)">
	<g id="g4348">
		<rect id="rect4346" x="1918.7" y="1175.4" width="3" height="100"/>
	</g>
	<g id="g4352">
		<rect id="rect4350" x="2118.7" y="1175.4" width="3" height="100"/>
	</g>
	<g id="g4356">
		<rect id="rect4354" x="1920.2" y="1237.4" width="200" height="3"/>
	</g>
</g>
<g id="g4358_2_" transform="translate(249.43281,466.15311)">
	<g id="g4348_2_">
		<rect id="rect4346_2_" x="1651.9" y="2484.1" width="3" height="100"/>
	</g>
	<g id="g4352_2_">
		<rect id="rect4350_2_" x="1851.9" y="2484.1" width="3" height="100"/>
	</g>
	<g id="g4356_2_">
		<rect id="rect4354_2_" x="1653.4" y="2546.1" width="200" height="3"/>
	</g>
</g>
<g id="g4358_1_" transform="translate(249.43281,466.15311)">
	<g id="g4348_1_">
		<rect id="rect4346_1_" x="2160.5" y="1435.3" width="3" height="100"/>
	</g>
	<g id="g4352_1_">
		<rect id="rect4350_1_" x="2360.5" y="1435.3" width="3" height="100"/>
	</g>
	<g id="g4356_1_">
		<rect id="rect4354_1_" x="2162" y="1497.3" width="200" height="3"/>
	</g>
</g>
<g id="g4368" transform="translate(-1.3630208,464.79009)">
	<g id="g4362">
		<polygon id="polygon4360" points="2490.1,1177.6 2391.2,1276.5 2389.1,1274.4 2490.1,1173.3 2591.2,1274.4 2589.1,1276.5 		"/>
	</g>
	<g id="g4366">
		<rect id="rect4364" x="2411.3" y="1252.8" width="157.7" height="3"/>
	</g>
</g>
<g id="g4368_1_" transform="translate(-1.3630208,464.79009)">
	<g id="g4362_1_">
		<polygon id="polygon4360_1_" points="2736.6,1439.4 2637.7,1538.3 2635.6,1536.2 2736.6,1435.1 2837.7,1536.2 2835.6,1538.3 		"/>
	</g>
	<g id="g4366_1_">
		<rect id="rect4364_1_" x="2657.8" y="1514.6" width="157.7" height="3"/>
	</g>
</g>
<g id="g4368_2_" transform="translate(-1.3630208,464.79009)">
	<g id="g4362_2_">
		<polygon id="polygon4360_2_" points="3163.1,1572.8 3064.2,1671.7 3062.1,1669.6 3163.1,1568.5 3264.2,1669.6 3262.1,1671.7 		"/>
	</g>
	<g id="g4366_2_">
		<rect id="rect4364_2_" x="3084.3" y="1648" width="157.7" height="3"/>
	</g>
</g>
<g id="g4368_3_" transform="translate(-1.3630208,464.79009)">
	<g id="g4362_3_">
		<polygon id="polygon4360_3_" points="294.5,2486.6 195.6,2585.5 193.5,2583.4 294.5,2482.3 395.6,2583.4 393.5,2585.5 		"/>
	</g>
	<g id="g4366_3_">
		<rect id="rect4364_3_" x="215.7" y="2561.8" width="157.7" height="3"/>
	</g>
</g>
<g id="g4378" transform="translate(-290.32343,464.79009)">
	<g id="g4372">
		<rect id="rect4370" x="2958.5" y="1175.4" width="3" height="100"/>
	</g>
	<g id="g4376">
		<rect id="rect4374" x="2860" y="1173.9" width="200" height="3"/>
	</g>
</g>
<g id="g4384" transform="translate(2.7260416,354.38541)">
	<path id="path4382" inkscape:connector-curvature="0" d="M2253.4,1514.6c-50.2,0-75.4,0-88.2-6.4c-13.3-6.7-13.3-19.5-13.3-45.1
		s0-38.4,13.3-45.1c12.8-6.4,38-6.4,88.2-6.4s75.4,0,88.2,6.4c13.3,6.7,13.3,19.5,13.3,45.1s0,38.4-13.3,45.1
		C2328.7,1514.6,2303.6,1514.6,2253.4,1514.6z M2253.4,1414.6c-49.7,0-74.6,0-86.8,6.1c-11.7,5.8-11.7,18.1-11.7,42.4
		s0,36.6,11.7,42.4c12.2,6.1,37.1,6.1,86.8,6.1s74.6,0,86.8-6.1c11.7-5.8,11.7-18.1,11.7-42.4s0-36.6-11.7-42.4
		C2328,1414.6,2303.1,1414.6,2253.4,1414.6z"/>
</g>
<g id="g4384_1_" transform="translate(2.7260416,354.38541)">
	<path id="path4382_1_" inkscape:connector-curvature="0" d="M2233.2,1936.4c-50.2,0-75.4,0-88.2-6.4c-13.3-6.7-13.3-19.5-13.3-45.1
		s0-38.4,13.3-45.1c12.8-6.4,38-6.4,88.2-6.4s75.4,0,88.2,6.4c13.3,6.7,13.3,19.5,13.3,45.1s0,38.4-13.3,45.1
		C2308.5,1936.4,2283.4,1936.4,2233.2,1936.4z M2233.2,1836.4c-49.7,0-74.6,0-86.8,6.1c-11.7,5.8-11.7,18.1-11.7,42.4
		s0,36.6,11.7,42.4c12.2,6.1,37.1,6.1,86.8,6.1s74.6,0,86.8-6.1c11.7-5.8,11.7-18.1,11.7-42.4s0-36.6-11.7-42.4
		C2307.8,1836.4,2282.9,1836.4,2233.2,1836.4z"/>
</g>
<g id="g4384_2_" transform="translate(2.7260416,354.38541)">
	<path id="path4382_2_" inkscape:connector-curvature="0" d="M3533.8,2695.9c-50.2,0-75.4,0-88.2-6.4c-13.3-6.7-13.3-19.5-13.3-45.1
		c0-25.6,0-38.4,13.3-45.1c12.8-6.4,38-6.4,88.2-6.4s75.4,0,88.2,6.4c13.3,6.7,13.3,19.5,13.3,45.1c0,25.6,0,38.4-13.3,45.1
		C3609.1,2695.9,3584,2695.9,3533.8,2695.9z M3533.8,2595.9c-49.7,0-74.6,0-86.8,6.1c-11.7,5.8-11.7,18.1-11.7,42.4
		s0,36.6,11.7,42.4c12.2,6.1,37.1,6.1,86.8,6.1s74.6,0,86.8-6.1c11.7-5.8,11.7-18.1,11.7-42.4s0-36.6-11.7-42.4
		C3608.4,2595.9,3583.5,2595.9,3533.8,2595.9z"/>
</g>
<g id="g4388" transform="translate(226.32793,352.45781)">
	<path id="path4386" inkscape:connector-curvature="0" sodipodi:nodetypes="cscscsccscscscc" d="M2156.4,1411.9c0,0-1.5,27-1.5,51.3
		s0,36.6,11.7,42.4c12.2,6.1,37.1,6.1,86.8,6.1s74.6,0,86.8-6.1c11.7-5.8,11.7-18.1,11.7-42.4s-0.5-50.9-0.5-50.9l3.4-0.3
		c0,0,0,25.6,0,51.2c0,25.6,0,38.4-13.3,45.1c-12.9,6.4-38,6.4-88.2,6.4s-75.4,0-88.2-6.4c-13.3-6.7-13.3-19.5-13.3-45.1
		s0.7-51.6,0.7-51.6L2156.4,1411.9z"/>
</g>
<g id="g4402" transform="matrix(1,0,0,-1,-197.63802,3784.2509)">
	<g id="g4412" transform="translate(-160.71386,3.6142547)">
		<g id="g4396" transform="translate(-0.5)">
			<rect id="rect4394" x="2958.5" y="2018.8" width="3" height="-100"/>
		</g>
		<g id="g4400" transform="translate(98)">
			<rect id="rect4398" x="2860" y="1920.3" width="200" height="-3"/>
		</g>
	</g>
</g>
<g id="g4402_1_" transform="matrix(1,0,0,-1,-197.63802,3784.2509)">
	<g id="g4412_1_" transform="translate(-160.71386,3.6142547)">
		<g id="g4396_1_" transform="translate(-0.5)">
			<rect id="rect4394_1_" x="2958.5" y="1746.6" width="3" height="-100"/>
		</g>
		<g id="g4400_1_" transform="translate(98)">
			<rect id="rect4398_1_" x="2860" y="1648.1" width="200" height="-3"/>
		</g>
	</g>
</g>
<g id="g4402_2_" transform="matrix(1,0,0,-1,-197.63802,3784.2509)">
	<g id="g4412_2_" transform="translate(-160.71386,3.6142547)">
		<g id="g4396_2_" transform="translate(-0.5)">
			<rect id="rect4394_2_" x="2982.9" y="1763.7" width="3" height="-100"/>
		</g>
		<g id="g4400_2_" transform="translate(98)">
			<rect id="rect4398_2_" x="2884.4" y="1665.2" width="200" height="-3"/>
		</g>
	</g>
</g>
<g id="g4402_3_" transform="matrix(1,0,0,-1,-197.63802,3784.2509)">
	<g id="g4412_3_" transform="translate(-160.71386,3.6142547)">
		<g id="g4396_3_" transform="translate(-0.5)">
			<rect id="rect4394_3_" x="3028.5" y="831.9" width="3" height="-100"/>
		</g>
		<g id="g4400_3_" transform="translate(98)">
			<rect id="rect4398_3_" x="2930" y="733.4" width="200" height="-3"/>
		</g>
	</g>
</g>
<path d="M703.3,2282.9c-0.8,12-3.3,19.1-11.3,23.1c-12.2,6.1-37.1,6.1-86.7,6.1s-74.5,0-86.7-6.1c-11.7-5.8-11.7-18.1-11.7-42.4
	s0-36.6,11.7-42.4c12.2-6.1,37.1-6.1,86.7-6.1s74.6,0,86.7,6.1c8.1,4,10.6,11.1,11.3,23.1h3c-0.8-13.3-3.5-21.1-13-25.8
	c-12.8-6.4-38-6.4-88.1-6.4s-75.3,0-88.1,6.4c-13.3,6.7-13.3,19.5-13.3,45.1s0,38.4,13.3,45.1c12.8,6.4,38,6.4,88.1,6.4
	s75.3,0,88.1-6.4c9.4-4.7,12.2-12.6,13-25.8H703.3z"/>
<path d="M2385.6,1971.9c-0.8,12-3.3,19.1-11.3,23.1c-12.2,6.1-37.1,6.1-86.7,6.1c-49.7,0-74.5,0-86.7-6.1
	c-11.7-5.8-11.7-18.1-11.7-42.4s0-36.6,11.7-42.4c12.2-6.1,37.1-6.1,86.7-6.1c49.7,0,74.6,0,86.7,6.1c8.1,4,10.6,11.1,11.3,23.1h3
	c-0.8-13.3-3.5-21.1-13-25.8c-12.8-6.4-38-6.4-88.1-6.4c-50.2,0-75.3,0-88.1,6.4c-13.3,6.7-13.3,19.5-13.3,45.1s0,38.4,13.3,45.1
	c12.8,6.4,38,6.4,88.1,6.4c50.2,0,75.3,0,88.1-6.4c9.4-4.7,12.2-12.6,13-25.8H2385.6z"/>
<path d="M914.2,3018c-0.8,12-3.3,19.1-11.3,23.1c-12.2,6.1-37.1,6.1-86.7,6.1s-74.5,0-86.7-6.1c-11.7-5.8-11.7-18.1-11.7-42.4
	s0-36.6,11.7-42.4c12.2-6.1,37.1-6.1,86.7-6.1s74.6,0,86.7,6.1c8.1,4,10.6,11.1,11.3,23.1h3c-0.8-13.3-3.5-21.1-13-25.8
	c-12.8-6.4-38-6.4-88.1-6.4s-75.3,0-88.1,6.4c-13.3,6.7-13.3,19.5-13.3,45.1s0,38.4,13.3,45.1c12.8,6.4,38,6.4,88.1,6.4
	s75.3,0,88.1-6.4c9.4-4.7,12.2-12.6,13-25.8H914.2z"/>
<path d="M907.7,2306.7c-12.6,5.5-37.5,5.5-85.4,5.5c-49.7,0-74.5,0-86.7-6.1c-11.7-5.8-11.7-18.1-11.7-42.4s0-36.6,11.7-42.4
	c12.2-6.1,37.1-6.1,86.7-6.1c47.9,0,72.9,0,85.4,5.5l3.4-1.7c-0.2-0.1-0.5-0.3-0.7-0.4c-12.8-6.4-38-6.4-88.1-6.4
	c-50.2,0-75.3,0-88.1,6.4c-13.3,6.7-13.3,19.5-13.3,45.1c0,25.6,0,38.4,13.3,45.1c12.8,6.4,38,6.4,88.1,6.4c50.2,0,75.3,0,88.1-6.4
	c0.2-0.1,0.5-0.2,0.7-0.4L907.7,2306.7z"/>
<line class="st0" x1="3999.4" y1="2998.7" x2="4097.9" y2="3050.2"/>
</svg>
