<?xml version="1.0" encoding="utf-8"?>
<!-- Generator: Adobe Illustrator 22.1.0, SVG Export Plug-In . SVG Version: 6.00 Build 0)  -->
<svg version="1.1"
	 id="Layer_1" inkscape:version="0.92.2 5c3e80d, 2017-08-06" sodipodi:docname="201806020009-Alphabet-01.svg" xmlns:cc="http://creativecommons.org/ns#" xmlns:dc="http://purl.org/dc/elements/1.1/" xmlns:inkscape="http://www.inkscape.org/namespaces/inkscape" xmlns:rdf="http://www.w3.org/1999/02/22-rdf-syntax-ns#" xmlns:sodipodi="http://sodipodi.sourceforge.net/DTD/sodipodi-0.dtd" xmlns:svg="http://www.w3.org/2000/svg"
	 xmlns="http://www.w3.org/2000/svg" xmlns:xlink="http://www.w3.org/1999/xlink" x="0px" y="0px" viewBox="0 0 8192 7685.1"
	 style="enable-background:new 0 0 8192 7685.1;" xml:space="preserve">
<style type="text/css">
	.st0{fill:none;stroke:#000000;stroke-width:3;}
	.st1{fill:none;stroke:#231F20;stroke-width:3;stroke-miterlimit:10;}
	.st2{fill:none;stroke:#231F20;stroke-width:6;stroke-miterlimit:5;}
	.st3{fill:none;stroke:#231F20;stroke-width:3;stroke-miterlimit:2;}
	.st4{fill:none;stroke:#FFFFFF;stroke-width:6;stroke-miterlimit:10;}
	.st5{fill:none;stroke:#231F20;stroke-width:3;stroke-linejoin:bevel;stroke-miterlimit:10;}
	.st6{fill:#231F20;}
	.st7{font-family:'ViennaExtendedPlain';}
	.st8{font-size:100px;}
	.st9{font-family:'58Rodeo-Regular';}
	.st10{font-family:'Silverfake';}
	.st11{font-family:'EurostileRegular';}
	.st12{font-family:'TitlingGothicFBExtended-Thin';}
</style>
<g id="g80_4_">
	<rect id="rect78_4_" x="1890.7" y="1138.8" width="2.6" height="194.7"/>
</g>
<sodipodi:namedview  bordercolor="#666666" borderopacity="1" gridtolerance="10" guidetolerance="10" id="namedview631" inkscape:current-layer="Layer_1" inkscape:cx="923.61226" inkscape:cy="780.84402" inkscape:measure-end="0,0" inkscape:measure-start="0,0" inkscape:pageopacity="0" inkscape:pageshadow="2" inkscape:window-height="722" inkscape:window-maximized="0" inkscape:window-width="1366" inkscape:window-x="0" inkscape:window-y="0" inkscape:zoom="0.51877916" objecttolerance="10" pagecolor="#ffffff" showgrid="false">
	</sodipodi:namedview>
<path id="path4" d="M4637.6,1109.8c0-23.4-33.2-23.4-55.1-23.4h-123.9v1.3v88.2l0,0h2.6l0,0v-25.3c13.7-1.5,126.6-13.7,146.3-18.3
	l27.7,44.3l2.2-1.4l-27.3-43.6C4627.6,1126.8,4637.6,1121.5,4637.6,1109.8z M4461.2,1089h121.3c22.1,0,52.5,0,52.5,20.7
	c0,10.5-9.5,15-27.3,19.8c-16.2,4.3-132.1,16.9-146.5,18.4V1089z"/>
<g id="g10">
	<g id="g8">
		<path id="path6" d="M7679.8,1289.5h-179.1v-28.8l76.2-15.3h-76.2v-46.8h179.1v28.8l-76.2,15.3h76.2V1289.5z M7503.4,1286.8h173.8
			v-41.5h-86.8l-87,17.4V1286.8z M7503.4,1242.7h86.8l87-17.4v-24.1h-173.8V1242.7z"/>
	</g>
</g>
<g id="g16">
	<g id="g14">
		<path id="path12" d="M7679.8,1015.5h-179.1v-46.7l76.2-7.6l-76.2-7.6v-29h179.1v29l-76.2,7.6l76.2,7.6V1015.5z M7503.4,1012.8
			h173.8v-41.6l-86.9-8.7l-86.9,8.7V1012.8z M7503.4,951.3l86.9,8.7l86.9-8.7v-23.9h-173.8V951.3z"/>
	</g>
</g>
<g id="g22">
	<g id="g20">
		<path id="path18" d="M7684,1135.9h-183.4v-29.1l85.3-16.9l-89.6-44.8h183.4v28.8l-85.7,17L7684,1135.9z M7503.4,1133.2h169.5
			l-82.9-41.5l-86.5,17.2v24.3H7503.4z M7507.6,1047.7l82.7,41.3l86.9-17.3v-24.1L7507.6,1047.7L7507.6,1047.7z"/>
	</g>
</g>
<g id="g28">
	<g id="g26">
		<path id="path24" d="M7679.8,1416.6h-179.1v-28.8l82.8-16.6l-82.8-16.6v-28.8h179.1v28.8l-82.8,16.6l82.8,16.6V1416.6z
			 M7503.4,1414h173.8v-24.1l-86.9-17.4l-86.9,17.4V1414z M7503.4,1352.5l86.9,17.4l86.9-17.4v-24.1h-173.8V1352.5z"/>
	</g>
</g>
<g id="g32">
	<rect id="rect30" x="3583.8" y="1367.5" width="2.6" height="88.2"/>
</g>
<polygon id="polygon34" points="3995.3,1366.1 3818.9,1366.1 3818.9,1368.8 3905.8,1368.8 3905.8,1455.7 3908.4,1455.7 
	3908.4,1368.8 3995.3,1368.8 "/>
<polygon id="polygon36" points="3539.4,1214.9 3541.6,1213.5 3498.4,1144.4 3541,1127.2 3540,1124.8 3365.3,1194.6 3365.3,1126 
	3362.7,1126 3362.7,1214.2 3365.3,1214.2 3365.3,1197.5 3495.8,1145.3 "/>
<polygon id="polygon38" points="3333.9,1456.4 3336.1,1455 3292.9,1385.7 3335.5,1368.7 3334.5,1366.2 3159.9,1436.1 3159.9,1367.5 
	3157.2,1367.5 3157.2,1455.7 3159.9,1455.7 3159.9,1438.9 3290.4,1386.8 "/>
<polygon id="polygon40" points="2846.7,1367.5 2846.7,1436.1 2672,1366.2 2671.6,1367.5 2670.3,1367.5 2670.3,1455.7 2672.9,1455.7 
	2672.9,1369.4 2846.7,1438.9 2846.7,1455.7 2849.3,1455.7 2849.3,1367.5 "/>
<polygon id="polygon42" points="3995.4,1555.7 3995.4,1553.1 3818.8,1553.1 3818.8,1555.7 3955.5,1555.7 3818.1,1641.5 
	3818.8,1642.6 3818.8,1643.9 3995.4,1643.9 3995.4,1641.3 3823.5,1641.3 3960.5,1555.7 "/>
<polygon id="polygon44" points="3996.1,1677.7 3995.4,1676.6 3995.4,1675.3 3818.8,1675.3 3818.8,1677.9 3990.8,1677.9 
	3853.7,1763.5 3818.8,1763.5 3818.8,1766.1 3995.4,1766.1 3995.4,1763.5 3858.7,1763.5 "/>
<polygon id="polygon46" points="3996,1799.9 3995.4,1797.4 3818.8,1797.4 3818.8,1800.1 3989.8,1800.1 3818.2,1885.7 3818.8,1888.3 
	3995.4,1888.3 3995.4,1885.7 3824.4,1885.7 "/>
<polygon id="polygon46_1_" points="7984.1,2999.6 7983.5,2997.1 7806.8,2997.1 7806.8,2999.8 7977.9,2999.8 7806.3,3085.4 
	7806.8,3088 7983.5,3088 7983.5,3085.3 7812.5,3085.3 "/>
<polygon id="polygon48" points="3973.2,2279.1 3973.2,2347.7 3798.6,2277.9 3798.1,2279.1 3796.8,2279.1 3796.8,2367.3 
	3799.5,2367.3 3799.5,2281.1 3973.2,2350.7 3973.2,2367.3 3975.9,2367.3 3975.9,2279.1 "/>
<polygon id="polygon48_1_" points="5541.2,2266.4 5541.2,2335 5366.6,2265.2 5366.1,2266.4 5364.8,2266.4 5364.8,2354.6 
	5367.4,2354.6 5367.4,2268.4 5541.2,2337.9 5541.2,2354.6 5543.9,2354.6 5543.9,2266.4 "/>
<polygon id="polygon48_2_" points="5458.7,2999.8 5458.7,3068.4 5284,2998.5 5283.5,2999.8 5282.2,2999.8 5282.2,3088 5284.9,3088 
	5284.9,3001.8 5458.7,3071.3 5458.7,3088 5461.3,3088 5461.3,2999.8 "/>
<polygon id="polygon50" points="3780.8,1215.1 3782.9,1213.4 3725.3,1144.4 3782.2,1127.3 3781.5,1124.8 3606.7,1177.2 3606.7,1126 
	3604.1,1126 3604.1,1214.2 3606.7,1214.2 3606.7,1180 3722.5,1145.2 "/>
<polygon id="polygon52" points="2846.7,1498.3 2846.7,1549.5 2671.9,1497 2671.6,1498.3 2670.3,1498.3 2670.3,1586.5 2672.9,1586.5 
	2672.9,1500.1 2846.7,1552.2 2846.7,1586.5 2849.3,1586.5 2849.3,1498.3 "/>
<polygon id="polygon54" points="3210.4,992.5 3210.4,1043.6 3034,990.7 3034,1080.7 3036.6,1080.7 3036.6,994.3 3210.4,1046.4 
	3210.4,1080.7 3213.1,1080.7 3213.1,992.5 "/>
<path id="path56" d="M3514.4,1272.7c14.8-2.1,27.4-7.7,27.4-22.1c0-23.4-33.2-23.4-55.1-23.4h-124v90.9h123.9c22,0,55.1,0,55.1-23.4
	C3541.8,1280.4,3529.2,1274.8,3514.4,1272.7z M3365.3,1229.9h121.3c22.1,0,52.5,0,52.5,20.7s-30.3,20.7-52.5,20.7h-121.3V1229.9z
	 M3486.6,1315.5h-121.3V1274h121.3c22.1,0,52.5,0,52.5,20.7S3508.8,1315.5,3486.6,1315.5z"/>
<path id="path58" d="M3958.4,984c14.8-2.1,27.4-7.7,27.4-22.1c0-23.4-33.2-23.4-55.1-23.4h-123.9v90.9h123.9c22,0,55.1,0,55.1-23.4
	C3985.9,991.7,3973.2,986.1,3958.4,984z M3809.4,941.2h121.3c22.1,0,52.5,0,52.5,20.7s-30.3,20.7-52.5,20.7h-121.3V941.2z
	 M3930.7,1026.8h-121.3v-41.5h121.3c22.1,0,52.5,0,52.5,20.7C3983.2,1026.8,3952.9,1026.8,3930.7,1026.8z"/>
<path id="path58_1_" d="M3023.1,3042.5c14.8-2.1,27.4-7.7,27.4-22.1c0-23.4-33.2-23.4-55.1-23.4h-123.9v90.9h123.9
	c22,0,55.1,0,55.1-23.4C3050.5,3050.2,3037.9,3044.7,3023.1,3042.5z M2874.1,2999.8h121.3c22.1,0,52.5,0,52.5,20.7
	s-30.3,20.7-52.5,20.7h-121.3V2999.8z M2995.3,3085.3H2874v-41.5h121.3c22.1,0,52.5,0,52.5,20.7S3017.5,3085.3,2995.3,3085.3z"/>
<path id="path60" d="M4000.5,670.9c14.8-2.1,27.4-7.7,27.4-22.1c0-23.4-33.2-23.4-55.1-23.4h-123.9v90.9h123.9
	c22,0,55.1,0,55.1-23.4C4027.9,678.6,4015.3,673.1,4000.5,670.9z M3851.5,628.1h121.3c22.1,0,52.5,0,52.5,20.7s-30.3,20.7-52.5,20.7
	h-121.3V628.1L3851.5,628.1z M3972.8,713.7h-121.3v-41.5h121.3c22.1,0,52.5,0,52.5,20.7S3994.9,713.7,3972.8,713.7z"/>
<path id="path62" d="M3541.8,1498.8c0-23.4-33.2-23.4-55.1-23.4h-123.9v89.5h2.6v-42.8h121.3c7.6,0,16.5,0,24.9-1l27.8,44.5l2.2-1.4
	l-27.2-43.4C3529.2,1518.7,3541.8,1513.2,3541.8,1498.8z M3365.3,1519.6v-41.5h121.3c22.1,0,52.5,0,52.5,20.7s-30.3,20.7-52.5,20.7
	h-121.3V1519.6z"/>
<path id="path64" d="M3541.8,1390.6c0-23.4-33.2-23.4-55.1-23.4h-123.9v1.3v88.2l0,0h2.6l0,0v-25.3c13.7-1.5,126.6-13.7,146.3-18.3
	l27.7,44.3l2.2-1.4l-27.3-43.6C3531.8,1407.6,3541.8,1402.3,3541.8,1390.6z M3365.3,1369.8h121.3c22.1,0,52.5,0,52.5,20.7
	c0,10.5-9.5,15-27.3,19.8c-16.2,4.3-132.2,16.9-146.5,18.4V1369.8z"/>
<g id="g68">
	<path id="path66" d="M3746.1,1457c-0.3,0-0.6,0-0.9,0h-105.9c-4.7,0-19,0-19-10.1h2.6c0,5.1,5.2,7.5,16.3,7.5h105.9
		c10.7,0,24.1,0,34.4-2.7c11.6-3.1,17.2-8.9,17.2-18c0-10.5-21.4-13-34.2-14.5l-3.7-0.4c-61-7.1-95.1-11.2-101.3-12l-0.7-0.1
		c-10.9-1.5-36.6-4.9-36.6-17.1c0-23.4,35.9-23.4,55.1-23.4h105c5.2,0,19,0,19,10.1h-2.6c0-5.1-5.2-7.5-16.3-7.5h-105
		c-27.3,0-52.5,2.5-52.5,20.7c0,9.9,25,13.2,34.3,14.5l0.7,0.1c6.2,0.8,40.2,4.9,101.2,12l3.7,0.4c14.6,1.7,36.5,4.2,36.5,17.1
		c0,10.3-6.4,17.2-19.1,20.6C3769.9,1456.9,3756.8,1457,3746.1,1457z"/>
</g>
<g id="g72">
	<rect id="rect70" x="3124.7" y="2279.1" width="2.6" height="88.2"/>
</g>
<g id="g76">
	<rect id="rect74" x="3333.2" y="992.5" width="2.6" height="88.2"/>
</g>
<g id="g80">
	<rect id="rect78" x="3555.1" y="2279.1" width="2.6" height="88.2"/>
</g>
<g id="g80_1_">
	<rect id="rect78_1_" x="4373.3" y="2147.6" width="2.6" height="88.2"/>
</g>
<g id="g80_2_">
	<rect id="rect78_2_" x="4402.9" y="2999.8" width="2.6" height="88.2"/>
</g>
<polygon id="polygon82" points="3532.6,2277.8 3356.2,2277.8 3356.2,2280.4 3443.1,2280.4 3443.1,2367.3 3445.7,2367.3 
	3445.7,2280.4 3532.6,2280.4 "/>
<g id="g92">
	<g id="g86">
		<rect id="rect84" x="5443.8" y="1370.5" width="2.6" height="88.2"/>
	</g>
	<g id="g90">
		<rect id="rect88" x="5356.9" y="1369.1" width="176.4" height="2.6"/>
	</g>
</g>
<polygon id="polygon94" points="2883.1,2368 2885.3,2366.6 2842.1,2297.5 2884.7,2280.3 2883.8,2277.9 2709.2,2347.7 2709.2,2279.1 
	2706.5,2279.1 2706.5,2367.3 2709.2,2367.3 2709.2,2350.7 2839.6,2298.4 "/>
<polygon id="polygon94_1_" points="4809.3,3088 4811.5,3086.6 4768.3,3017.4 4810.9,3000.3 4809.9,2997.8 4635.3,3067.7 
	4635.3,2999.1 4632.7,2999.1 4632.7,3087.3 4635.3,3087.3 4635.3,3070.6 4765.8,3018.4 "/>
<path id="path96" d="M3094.7,2301.2c0-23.4-33.2-23.4-55.1-23.4h-123.9v1.3v88.2l0,0h2.6l0,0V2342c13.7-1.5,126.6-13.7,146.3-18.3
	l27.7,44.3l2.2-1.4l-27.3-43.6C3084.6,2318.2,3094.7,2312.9,3094.7,2301.2z M2918.2,2280.4h121.3c22.1,0,52.5,0,52.5,20.7
	c0,10.5-9.5,15-27.3,19.8c-16.2,4.3-132.2,16.9-146.5,18.4V2280.4L2918.2,2280.4z"/>
<path id="path96_1_" d="M5889.3,3021.8c0-23.4-33.2-23.4-55.1-23.4h-123.9v1.3v88.2l0,0h2.6l0,0v-25.3
	c13.7-1.5,126.6-13.7,146.3-18.3l2.6-0.7C5879.3,3038.8,5889.3,3033.5,5889.3,3021.8z M5712.9,3001.1h121.3c22.1,0,52.5,0,52.5,20.7
	c0,10.5-9.5,15-27.3,19.8c-16.2,4.3-132.2,16.9-146.5,18.4V3001.1L5712.9,3001.1z"/>
<g id="g110">
	<g id="g100">
		<path id="path98" d="M5151,1458.7h-2.6v-89.5h123.9c22,0,55.1,0,55.1,23.4c0,12.1-10.7,17.4-29.2,22.3
			c-16.7,4.5-133.3,17.1-147.2,18.6L5151,1458.7L5151,1458.7z M5151,1371.8v58.9c14.5-1.6,130.4-14.1,146.5-18.4
			c17.6-4.8,27.3-9.3,27.3-19.8c0-20.7-30.3-20.7-52.5-20.7H5151z"/>
	</g>
	<g id="g104">
		<rect id="rect102" x="5148.4" y="1370.5" width="2.6" height="88.2"/>
	</g>
	<g id="g108">
		
			<rect id="rect106" x="5310.7" y="1409.5" transform="matrix(0.848 -0.53 0.53 0.848 46.2996 3033.6436)" width="2.6" height="53.2"/>
	</g>
</g>
<g id="g110_1_">
	<g id="g100_1_">
		<path id="path98_1_" d="M4163.4,2235.1h-2.6v-89.5h123.9c22,0,55.1,0,55.1,23.4c0,12.1-10.7,17.4-29.2,22.3
			c-16.7,4.5-133.3,17.1-147.2,18.6L4163.4,2235.1L4163.4,2235.1z M4163.4,2148.2v58.9c14.5-1.6,130.4-14.1,146.5-18.4
			c17.6-4.8,27.3-9.3,27.3-19.8c0-20.7-30.3-20.7-52.5-20.7H4163.4z"/>
	</g>
	<g id="g104_1_">
		<rect id="rect102_1_" x="4160.7" y="2146.9" width="2.6" height="88.2"/>
	</g>
	<g id="g108_1_">
		
			<rect id="rect106_1_" x="4323" y="2185.9" transform="matrix(0.848 -0.53 0.53 0.848 -515.325 2628.1729)" width="2.6" height="53.2"/>
	</g>
</g>
<g id="g110_2_">
	<g id="g100_2_">
		<path id="path98_2_" d="M5000.2,2235.1h-2.6v-89.5h123.9c22,0,55.1,0,55.1,23.4c0,12.1-10.7,17.4-29.2,22.3
			c-16.7,4.5-133.3,17.1-147.2,18.6L5000.2,2235.1L5000.2,2235.1z M5000.2,2148.2v58.9c14.5-1.6,130.4-14.1,146.5-18.4
			c17.6-4.8,27.3-9.3,27.3-19.8c0-20.7-30.3-20.7-52.5-20.7H5000.2z"/>
	</g>
	<g id="g104_2_">
		<rect id="rect102_2_" x="4997.5" y="2146.9" width="2.6" height="88.2"/>
	</g>
	<g id="g108_2_">
		
			<rect id="rect106_2_" x="5159.9" y="2185.9" transform="matrix(0.848 -0.53 0.53 0.848 -388.1045 3071.7373)" width="2.6" height="53.2"/>
	</g>
</g>
<polygon id="polygon112" points="4232.8,1239.2 4230.1,1239.2 4230.1,1298.7 4056.3,1298.7 4056.3,1239.2 4053.7,1239.2 
	4053.7,1301.4 4141.9,1301.4 4141.9,1327.4 4144.6,1327.4 4144.6,1301.4 4232.8,1301.4 "/>
<polygon id="polygon114" points="5296.2,1086.4 5119.8,1086.4 5119.8,1089 5206.7,1089 5206.7,1175.9 5209.4,1175.9 5209.4,1089 
	5296.2,1089 "/>
<polygon id="polygon116" points="4414.5,1086.4 4238.1,1086.4 4238.1,1089 4325,1089 4325,1175.9 4327.6,1175.9 4327.6,1089 
	4414.5,1089 "/>
<path id="path118" d="M4235,648.8c0-23.4-33.2-23.4-55.1-23.4H4056v1.3V715l0,0h2.6l0,0v-25.3c13.7-1.5,126.6-13.7,146.3-18.3
	l27.7,44.3l2.2-1.4l-27.3-43.6C4224.9,665.9,4235,660.7,4235,648.8z M4058.6,628.1h121.3c22.1,0,52.5,0,52.5,20.7
	c0,10.5-9.5,15-27.3,19.8c-16.2,4.3-132.1,16.9-146.5,18.4V628.1z"/>
<polygon id="polygon120" points="3317.7,993.8 3317.7,991.1 3228.2,991.1 3228.2,1082 3317.7,1082 3317.7,1079.3 3230.8,1079.3 
	3230.8,1064.3 3317.7,1064.3 3317.7,1061.7 3230.8,1061.7 3230.8,993.8 "/>
<polygon id="polygon122" points="2844.4,1676.4 2844.4,1673.8 2666.7,1673.8 2666.7,1764.6 2844.4,1764.6 2844.4,1762 2669.3,1762 
	2669.3,1747 2844.4,1747 2844.4,1744.3 2669.3,1744.3 2669.3,1676.4 "/>
<g id="g126">
	<rect id="rect124" x="2872.1" y="1675.1" width="2.6" height="88.2"/>
</g>
<g id="g130">
	<path id="path128" d="M3283,2368.6c-0.3,0-0.6,0-0.9,0h-105.9c-4.7,0-19,0-19-10.1h2.6c0,5.1,5.2,7.5,16.3,7.5H3282
		c10.8,0,24.1,0,34.4-2.7c11.6-3.1,17.2-8.9,17.2-18c0-10.5-21.4-13-34.2-14.5l-3.7-0.4c-61-7.1-95.1-11.2-101.3-12l-0.7-0.1
		c-10.9-1.5-36.6-4.9-36.6-17.1c0-23.4,35.9-23.4,55.1-23.4h105c5.2,0,19,0,19,10.1h-2.6c0-5.1-5.2-7.5-16.3-7.5h-104.9
		c-27.3,0-52.5,2.5-52.5,20.7c0,9.9,25,13.2,34.3,14.5l0.7,0.1c6.2,0.8,40.2,4.9,101.2,12l3.7,0.4c14.6,1.7,36.5,4.2,36.5,17.1
		c0,10.3-6.4,17.2-19.1,20.6C3306.8,2368.6,3293.7,2368.6,3283,2368.6z"/>
</g>
<polygon id="polygon82_2_" points="6755.2,2998.4 6578.8,2998.4 6578.8,3001.1 6665.7,3001.1 6665.7,3088 6668.3,3088 
	6668.3,3001.1 6755.2,3001.1 "/>
<path id="path96_2_" d="M6317.3,3021.2c0-23.4-33.2-23.4-55.1-23.4h-123.9v1.3v88.2l0,0h2.6l0,0V3062
	c13.7-1.5,126.6-13.7,146.3-18.3l27.7,44.3l2.2-1.4l-27.3-43.6C6307.2,3038.2,6317.3,3032.9,6317.3,3021.2z M6140.8,3000.5h121.3
	c22.1,0,52.5,0,52.5,20.7c0,10.5-9.5,15-27.3,19.8c-16.2,4.3-132.2,16.9-146.5,18.4V3000.5L6140.8,3000.5z"/>
<g id="g130_2_">
	<path id="path128_2_" d="M6505.6,3088c-0.3,0-0.6,0-0.9,0h-105.9c-4.7,0-19,0-19-10.1h2.6c0,5.1,5.2,7.5,16.3,7.5h105.9
		c10.8,0,24.1,0,34.4-2.7c11.6-3.1,17.2-8.9,17.2-18c0-10.5-21.4-13-34.2-14.5l-3.7-0.4c-61-7.1-95.1-11.2-101.3-12l-0.7-0.1
		c-10.9-1.5-36.6-4.9-36.6-17.1c0-23.4,35.9-23.4,55.1-23.4h105c5.2,0,19,0,19,10.1h-2.6c0-5.1-5.2-7.5-16.3-7.5H6435
		c-27.3,0-52.5,2.5-52.5,20.7c0,9.9,25,13.2,34.3,14.5l0.7,0.1c6.2,0.8,40.2,4.9,101.2,12l3.7,0.4c14.6,1.7,36.5,4.2,36.5,17.1
		c0,10.3-6.4,17.2-19.1,20.6C6529.4,3088,6516.3,3088,6505.6,3088z"/>
</g>
<g id="g134">
	<path id="path132" d="M3041.3,2054.4c-0.3,0-0.6,0-0.9,0h-105.9c-4.7,0-19,0-19-10.1h2.6c0,5.1,5.2,7.5,16.3,7.5h105.9
		c10.8,0,24.1,0,34.4-2.7c11.6-3.1,17.2-8.9,17.2-18c0-10.5-21.4-13-34.2-14.5l-3.7-0.4c-61-7.1-95.1-11.2-101.3-12l-0.7-0.1
		c-10.9-1.5-36.6-4.9-36.6-17.1c0-23.4,35.9-23.4,55.1-23.4h105c5.2,0,19,0,19,10.1h-2.6c0-5.1-5.2-7.5-16.3-7.5h-105
		c-27.3,0-52.5,2.5-52.5,20.7c0,9.9,25,13.2,34.3,14.5l0.7,0.1c6.2,0.8,40.2,4.9,101.2,12l3.7,0.4c14.6,1.7,36.5,4.2,36.5,17.1
		c0,10.3-6.4,17.2-19.1,20.6C3065.1,2054.3,3052.1,2054.4,3041.3,2054.4z"/>
</g>
<path id="path136" d="M3711.7,2277.8h-68.8c-22,0-55.1,0-55.1,23.4v66.2h2.6v-43.8h173.8v43.8h2.6v-66.2
	C3766.8,2277.8,3733.6,2277.8,3711.7,2277.8z M3590.4,2320.9v-19.7c0-20.7,30.3-20.7,52.5-20.7h68.8c22.1,0,52.5,0,52.5,20.7v19.7
	H3590.4z"/>
<path id="path136_2_" d="M2769.7,2884.5h-68.8c-22,0-55.1,0-55.1,23.4v66.2h2.6v-43.8h173.8v43.8h2.6v-66.2
	C2824.8,2884.5,2791.7,2884.5,2769.7,2884.5z M2648.4,2927.7V2908c0-20.7,30.3-20.7,52.5-20.7h68.8c22.1,0,52.5,0,52.5,20.7v19.7
	H2648.4z"/>
<polygon id="polygon82_1_" points="4531.9,2268.9 4355.5,2268.9 4355.5,2271.5 4442.4,2271.5 4442.4,2358.4 4445,2358.4 
	4445,2271.5 4531.9,2271.5 "/>
<g id="g130_1_">
	<path id="path128_1_" d="M4282.4,2359.7c-0.3,0-0.6,0-0.9,0h-105.9c-4.7,0-19,0-19-10.1h2.6c0,5.1,5.2,7.5,16.3,7.5h105.9
		c10.8,0,24.1,0,34.4-2.7c11.6-3.1,17.2-8.9,17.2-18c0-10.5-21.4-13-34.2-14.5l-3.7-0.4c-61-7.1-95.1-11.2-101.3-12l-0.7-0.1
		c-10.9-1.5-36.6-4.9-36.6-17.1c0-23.4,35.9-23.4,55.1-23.4h105c5.2,0,19,0,19,10.1h-2.6c0-5.1-5.2-7.5-16.3-7.5h-104.9
		c-27.3,0-52.5,2.5-52.5,20.7c0,9.9,25,13.2,34.3,14.5l0.7,0.1c6.2,0.8,40.2,4.9,101.2,12l3.7,0.4c14.6,1.7,36.5,4.2,36.5,17.1
		c0,10.3-6.4,17.2-19.1,20.6C4306.2,2359.7,4293,2359.7,4282.4,2359.7z"/>
</g>
<path id="path136_1_" d="M4675.7,2268.9h-68.8c-22,0-55.1,0-55.1,23.4v66.2h2.6v-43.8h173.8v43.8h2.6v-66.2
	C4730.9,2268.9,4697.7,2268.9,4675.7,2268.9z M4554.4,2312v-19.7c0-20.7,30.3-20.7,52.5-20.7h68.8c22.1,0,52.5,0,52.5,20.7v19.7
	H4554.4z"/>
<path id="path138" d="M3574.9,1700.2H3506c-22,0-55.1,0-55.1,23.4v66.2h2.6V1746h173.8v43.8h2.6v-66.2
	C3630,1700.2,3596.8,1700.2,3574.9,1700.2z M3453.6,1743.4v-19.7c0-20.7,30.3-20.7,52.5-20.7h68.8c22.1,0,52.5,0,52.5,20.7v19.7
	H3453.6z"/>
<path id="path140" d="M3413.8,1934.4c-12.4-17.3-25.9-27.5-36.3-27.5h-68.8c-10.3,0-23.8,10.3-36.3,27.5
	c-11.3,15.7-18.9,33.5-18.9,44.3v17.6h2.6V1980H3430v16.3h2.6v-17.6C3432.6,1968,3425.1,1950.1,3413.8,1934.4z M3274.6,1935.9
	c11.9-16.6,24.6-26.5,34.1-26.5h68.8c9.4,0,22.2,9.9,34.1,26.5c10.6,14.6,17.7,31.1,18.3,41.5h-173.8
	C3256.8,1967,3264.1,1950.7,3274.6,1935.9z"/>
<path id="path142" d="M3413.8,1825c-12.4-17.3-25.9-27.5-36.3-27.5h-68.8c-10.3,0-23.8,10.3-36.3,27.5
	c-11.3,15.7-18.9,33.5-18.9,44.3v17.6h2.6v-16.3H3430v16.3h2.6v-17.6C3432.6,1858.6,3425.1,1840.8,3413.8,1825z M3274.6,1826.6
	c11.9-16.6,24.6-26.5,34.1-26.5h68.8c9.4,0,22.2,9.9,34.1,26.5c10.6,14.6,17.7,31.1,18.3,41.5h-173.8
	C3256.8,1857.6,3264.1,1841.2,3274.6,1826.6z"/>
<path id="path144" d="M3801.6,1934c-20.6-13.3-42.4-23.4-50.9-23.4s-30.3,10.1-50.9,23.4c-11.6,7.5-38.6,26.6-38.6,40.8v25.4h2.6
	v-24.1h173.8v24.1h2.6v-25.4C3840.3,1960.6,3813.2,1941.5,3801.6,1934z M3701.3,1936.2c19.6-12.6,41.7-22.9,49.4-22.9
	s29.9,10.3,49.4,22.9c22.3,14.5,36.1,28.2,37.3,37.2h-173.6C3665.2,1964.4,3678.9,1950.7,3701.3,1936.2z"/>
<path id="path146" d="M3629.7,1841c-1.3-1.8-32.4-43.7-54.9-43.7H3506c-22.5,0-53.5,41.8-54.9,43.7l-0.3,0.4v45.6h2.6v-43.8h173.8
	v43.8h2.6v-45.6L3629.7,1841z M3506,1800.1h68.8c18.3,0,44.5,31.8,51.2,40.4h-171C3461.7,1831.9,3487.7,1800.1,3506,1800.1z"/>
<path id="path148" d="M3627.6,1997.1l2.3-1.4l-54.2-88.8h-70.3l-54.2,88.8l2.3,1.4l27.2-44.5h119.9L3627.6,1997.1z M3482.1,1950
	l24.7-40.4h67.3l24.7,40.4H3482.1z"/>
<path id="path150" d="M3627.8,2109.9l1.9-1.9l-24.2-24.2h23.2v-2.6h-25.8l-62.4-62.4l-62.4,62.4h-25.8v2.6h23.2l-24.2,24.2l1.9,1.9
	l26-26h122.5L3627.8,2109.9z M3481.9,2081.2l58.7-58.7l58.7,58.7H3481.9z"/>
<path id="path152" d="M3430.4,2109.9l1.9-1.9l-89.2-89.2l-89.2,89.2l1.9,1.9l18.3-18.3h138L3430.4,2109.9z M3276.7,2089l66.3-66.3
	l66.3,66.3H3276.7z"/>
<g id="g162">
	<g id="g156">
		<polygon id="polygon154" points="5118,1459.7 5030.6,1372.4 4943.4,1459.7 4941.5,1457.8 5030.6,1368.6 5119.8,1457.8 		"/>
	</g>
	<g id="g160">
		<rect id="rect158" x="4961.1" y="1438.7" width="139.1" height="2.6"/>
	</g>
</g>
<path id="path164" d="M4196.1,1029l1.9-1.9l-89.2-89.2l-89.1,89.2l1.9,1.9l18.3-18.3h138L4196.1,1029z M4042.5,1008.1l66.3-66.3
	l66.3,66.3H4042.5z"/>
<polygon id="polygon166" points="4335,940.8 4333.2,938.9 4264.5,1007.5 4195.9,938.9 4194.1,940.8 4263.2,1009.9 4263.2,1028.1 
	4265.9,1028.1 4265.9,1009.9 "/>
<polygon id="polygon166_1_" points="7733,3000.6 7731.2,2998.8 7662.5,3067.4 7593.9,2998.8 7592,3000.6 7661.2,3069.8 7661.2,3088 
	7663.8,3088 7663.8,3069.8 "/>
<g id="g172">
	<g id="g170">
		<polygon id="polygon168" points="4523.4,1670.5 4523.4,1580.2 4526,1580.2 4526,1666.2 4612.9,1622.8 4613.5,1623 4699.8,1666.2 
			4699.8,1580.2 4702.5,1580.2 4702.5,1670.5 4612.9,1625.7 		"/>
	</g>
</g>
<g id="g172_1_">
	<g id="g170_1_">
		<polygon id="polygon168_1_" points="4160.7,2003.5 4160.7,1913.2 4163.4,1913.2 4163.4,1999.2 4250.2,1955.8 4250.9,1956.1 
			4337.1,1999.2 4337.1,1913.2 4339.8,1913.2 4339.8,2003.5 4250.2,1958.7 		"/>
	</g>
</g>
<g id="g172_3_">
	<g id="g170_3_">
		<polygon id="polygon168_3_" points="7184.6,3088 7184.6,2997.6 7187.3,2997.6 7187.3,3083.7 7274.2,3040.3 7274.8,3040.5 
			7361.1,3083.7 7361.1,2997.6 7363.7,2997.6 7363.7,3088 7274.2,3043.2 		"/>
	</g>
</g>
<g id="g172_2_">
	<g id="g170_2_">
		<polygon id="polygon168_2_" points="4160.7,2116.3 4160.7,2025.9 4163.4,2025.9 4163.4,2111.9 4250.2,2068.5 4250.9,2068.8 
			4337.1,2111.9 4337.1,2025.9 4339.8,2025.9 4339.8,2116.3 4250.2,2071.4 		"/>
	</g>
</g>
<path id="path174" d="M3845.7,2108.1l-89.2-89.2l-89.2,89.2l1.9,1.9l44.7-44.7h84.1v-1l45.7,45.7L3845.7,2108.1z M3716.6,2062.5
	l39.9-39.9l39.9,39.9H3716.6z"/>
<polygon id="polygon176" points="3049.9,1676.4 3049.9,1673.8 2872.1,1673.8 2872.1,1764.6 3049.9,1764.6 3049.9,1762 2874.8,1762 
	2874.8,1738.2 3049.9,1738.2 3049.9,1735.6 2874.8,1735.6 2874.8,1676.4 "/>
<polygon id="polygon176_1_" points="3741,2999.8 3741,2997.1 3563.2,2997.1 3563.2,3088 3741,3088 3741,3085.3 3565.9,3085.3 
	3565.9,3061.6 3741,3061.6 3741,3059 3565.9,3059 3565.9,2999.8 "/>
<g id="g190">
	<g id="g180">
		<rect id="rect178" x="4526.5" y="1370.5" width="2.6" height="88.2"/>
	</g>
	<g id="g184">
		<rect id="rect182" x="4703" y="1370.5" width="2.6" height="88.2"/>
	</g>
	<g id="g188">
		<rect id="rect186" x="4527.9" y="1425.2" width="176.4" height="2.6"/>
	</g>
</g>
<g id="g200">
	<g id="g194">
		<rect id="rect192" x="4735.2" y="1431" width="176.4" height="2.6"/>
	</g>
	<g id="g198">
		<polygon id="polygon196" points="4911.6,1460 4733.9,1460 4733.9,1369.1 4911.6,1369.1 4911.6,1371.8 4736.5,1371.8 
			4736.5,1457.4 4911.6,1457.4 		"/>
	</g>
</g>
<polygon id="polygon202" points="4858.2,1089 4858.2,1086.4 4680.4,1086.4 4680.4,1177.3 4858.2,1177.3 4858.2,1174.6 4683,1174.6 
	4683,1150.9 4858.2,1150.9 4858.2,1148.2 4683,1148.2 4683,1089 "/>
<polygon id="polygon204" points="5077.2,1089 5077.2,1086.4 4899.4,1086.4 4899.4,1177.3 5077.2,1177.3 5077.2,1174.6 
	4902.1,1174.6 4902.1,1150.9 5077.2,1150.9 5077.2,1148.2 4902.1,1148.2 4902.1,1089 "/>
<polygon id="polygon206" points="3254.9,1676.4 3254.9,1673.8 3077.1,1673.8 3077.1,1764.6 3254.9,1764.6 3254.9,1762 3079.8,1762 
	3079.8,1720.5 3254.9,1720.5 3254.9,1717.9 3079.8,1717.9 3079.8,1676.4 "/>
<polygon id="polygon122_1_" points="3738.8,2865.3 3738.8,2862.7 3561,2862.7 3561,2953.5 3738.8,2953.5 3738.8,2950.9 
	3563.6,2950.9 3563.6,2935.9 3738.8,2935.9 3738.8,2933.2 3563.6,2933.2 3563.6,2865.3 "/>
<g>
	<polygon id="polygon206_2_" points="3741.8,3124.7 3741.8,3122 3564,3122 3564,3212.9 3741.8,3212.9 3741.8,3210.2 3566.6,3210.2 
		3566.6,3168.8 3741.8,3168.8 3741.8,3166.1 3566.6,3166.1 3566.6,3124.7 	"/>
</g>
<polygon id="polygon206_1_" points="3950.6,2999.8 3950.6,2997.1 3772.8,2997.1 3772.8,3088 3775.5,3088 3775.5,3060.2 
	3924.4,3060.2 3924.4,3057.5 3775.5,3057.5 3775.5,2999.8 "/>
<polygon id="polygon206_3_" points="3950.6,3123.5 3950.6,3120.9 3772.8,3120.9 3772.8,3211.7 3775.5,3211.7 3775.5,3167.6 
	3924.4,3167.6 3924.4,3165 3775.5,3165 3775.5,3123.5 "/>
<g id="g210">
	<path id="path208" d="M3080.1,2162h-150c-8,0-14.6-6.5-14.6-14.6v-61.8c0-8,6.5-14.6,14.6-14.6h150c8,0,14.6,6.5,14.6,14.6v61.8
		C3094.7,2155.4,3088.2,2162,3080.1,2162z M2930.2,2073.7c-6.5,0-11.9,5.4-11.9,11.9v61.8c0,6.5,5.4,11.9,11.9,11.9h150
		c6.5,0,11.9-5.4,11.9-11.9v-61.8c0-6.5-5.4-11.9-11.9-11.9H2930.2z"/>
</g>
<g id="g214">
	<path id="path212" d="M2785.2,2162c-74.3,0-89.5-18.2-89.5-45.4c0-10.9,1.9-23.4,15.6-32.3c13.7-8.8,37.8-13.1,73.9-13.1
		c36.1,0,60.3,4.3,73.9,13.1c13.8,8.9,15.6,21.3,15.6,32.3C2874.8,2143.8,2859.6,2162,2785.2,2162z M2785.2,2073.7
		c-35.6,0-59.2,4.1-72.5,12.7c-12.7,8.2-14.4,19.8-14.4,30.1c0,20.7,6.7,42.8,86.9,42.8s86.9-22.1,86.9-42.8
		c0-10.2-1.7-21.9-14.4-30.1C2844.5,2077.9,2820.8,2073.7,2785.2,2073.7z"/>
</g>
<g id="g214_1_">
	<path id="path212_1_" d="M5999.4,3088c-74.3,0-89.5-18.2-89.5-45.4c0-10.9,1.9-23.4,15.6-32.3c13.7-8.8,37.8-13.1,73.9-13.1
		s60.3,4.3,73.9,13.1c13.8,8.9,15.6,21.3,15.6,32.3C6089,3069.8,6073.8,3088,5999.4,3088z M5999.4,2999.8
		c-35.6,0-59.2,4.1-72.5,12.7c-12.7,8.2-14.4,19.8-14.4,30.1c0,20.7,6.7,42.8,86.9,42.8s86.9-22.1,86.9-42.8
		c0-10.2-1.7-21.9-14.4-30.1C6058.7,3003.9,6035,2999.8,5999.4,2999.8z"/>
</g>
<path d="M3079.1,2596.8c-13.7-8.8-37.8-13.1-73.9-13.1h-89.5v90.9h89.5c74.4,0,89.5-18.2,89.5-45.4
	C3094.7,2618.1,3092.8,2605.7,3079.1,2596.8z M3005.1,2671.9h-86.9v-85.6h86.9c35.6,0,59.3,4.1,72.5,12.7
	c12.7,8.2,14.4,19.8,14.4,30.1C3092,2649.8,3085.3,2671.9,3005.1,2671.9z"/>
<path d="M5366.5,2157c-13.7-8.8-37.8-13.1-73.9-13.1H5203v90.9h89.5c74.4,0,89.5-18.2,89.5-45.4
	C5382.1,2178.4,5380.2,2165.9,5366.5,2157z M5292.5,2232.1h-86.9v-85.6h86.9c35.6,0,59.3,4.1,72.5,12.7
	c12.7,8.2,14.4,19.8,14.4,30.1C5379.4,2210,5372.7,2232.1,5292.5,2232.1z"/>
<path d="M4319.9,2410.9c-13.7-8.8-37.8-13.1-73.9-13.1h-89.5v90.9h89.5c74.4,0,89.5-18.2,89.5-45.4
	C4335.6,2432.3,4333.7,2419.8,4319.9,2410.9z M4246,2486h-86.9v-85.6h86.9c35.6,0,59.3,4.1,72.5,12.7c12.7,8.2,14.4,19.8,14.4,30.1
	C4332.9,2463.9,4326.2,2486,4246,2486z"/>
<path d="M3496.3,3010.3c-13.7-8.8-37.8-13.1-73.9-13.1h-89.5v90.9h89.5c74.4,0,89.5-18.2,89.5-45.4
	C3512,3031.6,3510.1,3019.2,3496.3,3010.3z M3422.4,3085.3h-86.9v-85.6h86.9c35.6,0,59.3,4.1,72.5,12.7
	c12.7,8.2,14.4,19.8,14.4,30.1C3509.3,3063.3,3502.6,3085.3,3422.4,3085.3z"/>
<path d="M5139.8,2033.9c-13.7-8.8-37.8-13.1-73.9-13.1h-89.5v90.9h89.5c74.4,0,89.5-18.2,89.5-45.4
	C5155.5,2055.2,5153.6,2042.8,5139.8,2033.9z M5065.9,2108.9H4979v-85.6h86.9c35.6,0,59.3,4.1,72.5,12.7
	c12.7,8.2,14.4,19.8,14.4,30.1C5152.8,2086.9,5146.1,2108.9,5065.9,2108.9z"/>
<g id="g218">
	<path id="path216" d="M2785.2,2048.4c-44.3,0-66.5,0-77.8-5.6c-11.7-5.9-11.7-17.2-11.7-39.8s0-33.9,11.7-39.8
		c11.3-5.6,33.5-5.6,77.8-5.6s66.5,0,77.8,5.6c11.7,5.9,11.7,17.2,11.7,39.8s0,33.9-11.7,39.8
		C2851.7,2048.4,2829.5,2048.4,2785.2,2048.4z M2785.2,1960.2c-43.8,0-65.8,0-76.6,5.4c-10.3,5.1-10.3,16-10.3,37.4
		s0,32.3,10.3,37.4c10.8,5.4,32.7,5.4,76.6,5.4s65.8,0,76.6-5.4c10.3-5.1,10.3-16,10.3-37.4s0-32.3-10.3-37.4
		C2851.1,1960.2,2829.1,1960.2,2785.2,1960.2z"/>
</g>
<g id="g232">
	<g id="g222">
		
			<rect id="rect220" x="5145.4" y="1614.1" transform="matrix(0.9286 -0.3712 0.3712 0.9286 -225.2271 2060.5725)" width="190" height="2.6"/>
	</g>
	<g id="g226">
		<rect id="rect224" x="5150" y="1580.2" width="2.6" height="88.2"/>
	</g>
	<g id="g230">
		
			<rect id="rect228" x="5304.4" y="1591.4" transform="matrix(0.848 -0.53 0.53 0.848 -59.0085 3060.2375)" width="2.6" height="83.2"/>
	</g>
</g>
<g id="g246">
	<g id="g236">
		<path id="path234" d="M4943.7,1668.4h-2.6v-89.5H5065c22,0,55.1,0,55.1,23.4c0,12.1-10.7,17.4-29.2,22.3
			c-16.7,4.5-133.3,17.1-147.2,18.6L4943.7,1668.4L4943.7,1668.4z M4943.7,1581.5v58.9c14.5-1.6,130.4-14.1,146.5-18.4
			c17.6-4.8,27.3-9.3,27.3-19.8c0-20.7-30.3-20.7-52.5-20.7H4943.7z"/>
	</g>
	<g id="g240">
		<rect id="rect238" x="4941.1" y="1580.2" width="2.6" height="88.2"/>
	</g>
	<g id="g244">
		
			<rect id="rect242" x="5103.4" y="1619.1" transform="matrix(0.848 -0.53 0.53 0.848 -96.2967 2955.6338)" width="2.6" height="53.2"/>
	</g>
</g>
<g id="g250">
	<path id="path248" d="M4821.8,1669.7c-44.3,0-66.5,0-77.8-5.6c-11.7-5.9-11.7-17.2-11.7-39.8s0-33.9,11.7-39.8
		c11.3-5.6,33.5-5.6,77.8-5.6s66.5,0,77.8,5.6c11.7,5.9,11.7,17.2,11.7,39.8s0,33.9-11.7,39.8
		C4888.2,1669.7,4866.1,1669.7,4821.8,1669.7z M4821.8,1581.5c-43.8,0-65.8,0-76.6,5.4c-10.3,5.1-10.3,16-10.3,37.4
		s0,32.3,10.3,37.4c10.8,5.4,32.7,5.4,76.6,5.4c43.8,0,65.8,0,76.6-5.4c10.3-5.1,10.3-16,10.3-37.4s0-32.3-10.3-37.4
		C4887.6,1581.5,4865.7,1581.5,4821.8,1581.5z"/>
</g>
<g id="g260">
	<g id="g254">
		<path id="path252" d="M7233.9,2365.8c-44.3,0-66.5,0-77.8-5.6c-11.7-5.9-11.7-17.2-11.7-39.8s0-33.9,11.7-39.8
			c11.3-5.6,33.5-5.6,77.8-5.6s66.5,0,77.8,5.6c11.7,5.9,11.7,17.2,11.7,39.8s0,33.9-11.7,39.8
			C7300.4,2365.8,7278.2,2365.8,7233.9,2365.8z M7233.9,2277.6c-43.8,0-65.8,0-76.6,5.4c-10.3,5.1-10.3,16-10.3,37.4
			s0,32.3,10.3,37.4c10.8,5.4,32.7,5.4,76.6,5.4s65.8,0,76.6-5.4c10.3-5.1,10.3-16,10.3-37.4s0-32.3-10.3-37.4
			C7299.8,2277.6,7277.7,2277.6,7233.9,2277.6z"/>
	</g>
	<g id="g258">
		
			<rect id="rect256" x="7142.6" y="2319" transform="matrix(0.9579 -0.2872 0.2872 0.9579 -361.5977 2175.4976)" width="184.2" height="2.6"/>
	</g>
</g>
<g id="g262">
</g>
<g id="g268">
	<g id="g266">
		<polygon id="polygon264" points="7117.9,2364.5 7115.2,2364.5 7115.2,2278.2 7073,2295.2 7072,2292.7 7117.9,2274.3 		"/>
	</g>
</g>
<g id="g274">
	<g id="g272">
		<polygon id="polygon270" points="4537.9,715 4535.3,715 4535.3,628.8 4493,645.7 4492,643.3 4537.9,624.8 		"/>
	</g>
</g>
<g id="g278">
	<path id="path276" d="M4149,1177.3c-0.3,0-0.6,0-0.9,0h-105.9c-4.7,0-19,0-19-10.1h2.6c0,5.1,5.2,7.5,16.3,7.5H4148
		c10.7,0,24.1,0,34.4-2.7c11.6-3.1,17.2-8.9,17.2-18c0-10.5-21.4-13-34.2-14.5l-3.7-0.4c-61-7.1-95.1-11.2-101.3-12l-0.7-0.1
		c-10.9-1.5-36.6-4.9-36.6-17.1c0-23.4,35.9-23.4,55.1-23.4h105c5.2,0,19,0,19,10.1h-2.6c0-5.1-5.2-7.5-16.3-7.5h-105
		c-27.3,0-52.5,2.5-52.5,20.7c0,9.9,25,13.2,34.3,14.5l0.7,0.1c6.2,0.8,40.2,4.9,101.2,12l3.7,0.4c14.6,1.7,36.5,4.2,36.5,17.1
		c0,10.3-6.4,17.2-19.1,20.6C4172.8,1177.2,4159.7,1177.3,4149,1177.3z"/>
</g>
<g id="g290">
	<g id="g284">
		<g id="g282">
			<polygon id="polygon280" points="7531.2,2339.4 7353.4,2339.4 7353.4,2319.3 7530.9,2275.1 7531.5,2277.6 7356,2321.5 
				7356,2336.7 7531.2,2336.7 			"/>
		</g>
	</g>
	<g id="g288">
		<rect id="rect286" x="7529.8" y="2293.9" width="2.6" height="70.6"/>
	</g>
</g>
<g id="g296">
	<g id="g294">
		<polygon id="polygon292" points="7564.2,2365.8 7563.5,2363.3 7738.9,2319.3 7738.9,2304.1 7562.5,2304.1 7562.5,2275 
			7740.2,2275 7740.2,2277.6 7565.1,2277.6 7565.1,2301.4 7741.6,2301.4 7741.6,2321.5 		"/>
	</g>
</g>
<g id="g306">
	<g id="g300">
		<path id="path298" d="M5786.1,830.3c-44.3,0-66.5,0-77.8-5.6c-11.7-5.9-11.7-17.2-11.7-39.8s0-33.9,11.7-39.8
			c11.3-5.6,33.5-5.6,77.8-5.6s66.5,0,77.8,5.6c11.7,5.9,11.7,17.2,11.7,39.8s0,33.9-11.7,39.8
			C5852.6,830.3,5830.4,830.3,5786.1,830.3z M5786.1,742.1c-43.8,0-65.8,0-76.6,5.4c-10.3,5.1-10.3,16-10.3,37.4s0,32.3,10.3,37.4
			c10.8,5.4,32.7,5.4,76.6,5.4s65.8,0,76.6-5.4c10.3-5.1,10.3-16,10.3-37.4s0-32.3-10.3-37.4C5851.9,742.1,5830,742.1,5786.1,742.1z
			"/>
	</g>
	<g id="g304">
		
			<rect id="rect302" x="5694.7" y="783.4" transform="matrix(0.9579 -0.2872 0.2872 0.9579 18.4233 1694.9713)" width="184.2" height="2.6"/>
	</g>
</g>
<g id="g308">
</g>
<g id="g314">
	<g id="g312">
		<polygon id="polygon310" points="5972.5,829 5969.9,829 5969.9,742.7 5927.6,759.6 5926.6,757.2 5972.5,738.8 		"/>
	</g>
</g>
<g id="g326">
	<g id="g320">
		<g id="g318">
			<polygon id="polygon316" points="6728.6,803.8 6550.9,803.8 6550.9,783.8 6728.3,739.5 6729,742.1 6553.5,785.9 6553.5,801.2 
				6728.6,801.2 			"/>
		</g>
	</g>
	<g id="g324">
		<rect id="rect322" x="6727.3" y="758.4" width="2.6" height="70.6"/>
	</g>
</g>
<g id="g334">
	<g id="g332">
		<g id="g330">
			<path id="path328" d="M7918.2,1014.2h-2.6v-24.9l-176.4-44.7v-20l179.1,0.6v89L7918.2,1014.2L7918.2,1014.2z M7741.7,942.6
				l173.8,44v-58.8l-173.8-0.6V942.6z"/>
		</g>
	</g>
</g>
<g id="g340">
	<g id="g338">
		<polygon id="polygon336" points="6761.5,830.3 6760.9,827.7 6936.4,783.8 6936.4,768.6 6760,768.6 6760,739.4 6937.7,739.4 
			6937.7,742.1 6762.6,742.1 6762.6,765.9 6939,765.9 6939,785.9 		"/>
	</g>
</g>
<g id="g346">
	<g id="g344">
		<path id="path342" d="M7012.7,830.6v-91.1h177.8v2.6h-175.1v23.8h176.4v33.3L7012.7,830.6z M7015.4,768.6v58.8l173.8-30.4v-28.4
			L7015.4,768.6L7015.4,768.6z"/>
	</g>
</g>
<g id="g352">
	<g id="g350">
		<path id="path348" d="M7012.7,1592.2v-63.3h1.2l-0.1-1.3l176.4-26.5l0.4,2.6l-158.9,23.8h160v33.3L7012.7,1592.2z M7015.4,1530.2
			v58.8l173.8-30.4v-28.4H7015.4z"/>
	</g>
</g>
<g id="g358">
	<g id="g356">
		<path id="path354" d="M7191.8,1000.7h-179.1v-90.9h177.8v2.6h-175.1v23.8h176.4L7191.8,1000.7L7191.8,1000.7z M7015.4,998h173.8
			v-59.1h-173.8V998z"/>
	</g>
</g>
<g id="g364">
	<g id="g362">
		<path id="path360" d="M7191.8,1289.5h-179.1v-63.1h1.2l-0.1-1.3l176.4-26.5l0.4,2.6l-158.9,23.8h160L7191.8,1289.5L7191.8,1289.5z
			 M7015.4,1286.8h173.8v-59.1h-173.8V1286.8z"/>
	</g>
</g>
<g id="g370">
	<g id="g368">
		<path id="path366" d="M7012.7,1126.1v-91h177.8v2.6h-175.1v23.9l176.4,17.6v26L7012.7,1126.1z M7015.4,1064.3v58.8l173.8-20.2
			v-21.3L7015.4,1064.3z"/>
	</g>
</g>
<g id="g376">
	<g id="g374">
		<path id="path372" d="M7012.7,1453.3v-62l-9.4-1l186.9-28.1l0.4,2.6l-165.9,24.9l167.1,16.7v26l-1.1,0.2L7012.7,1453.3z
			 M7015.4,1391.5v58.8l173.8-20.2v-21.3L7015.4,1391.5z"/>
	</g>
</g>
<polygon id="polygon378" points="4530.7,829.6 4530.7,805.8 4705.8,805.8 4705.8,803.1 4528,803.1 4528,832.2 4704.5,832.2 
	4704.5,847.6 4529,891.4 4529.7,894 4707.1,849.6 4707.1,829.6 "/>
<polygon id="polygon380" points="4320.8,803.1 4320.8,805.8 4495.9,805.8 4495.9,829.6 4320.8,829.6 4320.8,832.2 4495.9,832.2 
	4495.9,847.6 4320.5,891.4 4321.1,894 4498.6,849.6 4498.6,830.9 4498.6,829.6 4498.6,803.1 "/>
<polygon id="polygon382" points="4299.6,625.5 4299.6,628.1 4474.7,628.1 4474.7,651.9 4299.6,651.9 4299.6,654.6 4474.7,654.6 
	4474.7,669.9 4299.2,713.8 4299.8,716.3 4477.3,672 4477.3,653.3 4477.3,651.9 4477.3,625.5 "/>
<g id="g386">
	<polygon id="polygon384" points="6243.4,1000.7 6065.7,1000.7 6065.7,971.5 6242.1,971.5 6242.1,956.3 6066.7,912.4 6067.3,909.8 
		6244.8,954.2 6244.8,974.2 6068.3,974.2 6068.3,998 6243.4,998 	"/>
</g>
<g id="g390">
	<polygon id="polygon388" points="6243.4,1139.5 6065.7,1139.5 6065.7,1110.7 6242.1,1066.6 6242.1,1051.3 6067,1051.3 6067,1048.6 
		6244.8,1048.6 6244.8,1068.7 6068.3,1112.8 6068.3,1136.9 6243.4,1136.9 	"/>
</g>
<g id="g394">
	<polygon id="polygon392" points="6243.4,830.3 6065.7,830.3 6065.7,801.5 6242.1,757.4 6242.1,742.1 6067,742.1 6067,739.4 
		6244.8,739.4 6244.8,759.5 6068.3,803.6 6068.3,827.7 6243.4,827.7 	"/>
</g>
<g id="g398">
	<polygon id="polygon396" points="4102.8,892.7 4100.2,892.7 4100.2,865.2 4276.6,821.1 4276.6,805.8 4101.5,805.8 4101.5,803.1 
		4279.3,803.1 4279.3,823.2 4102.8,867.3 	"/>
</g>
<g id="g402">
	<polygon id="polygon400" points="4568.5,715 4565.9,715 4565.9,687.6 4742.3,643.5 4742.3,628.1 4567.2,628.1 4567.2,625.5 
		4745,625.5 4745,645.5 4568.5,689.6 	"/>
</g>
<g id="g406">
	<polygon id="polygon404" points="6243.4,1280.1 6060.1,1280.1 6242.1,1207.3 6242.1,1191.9 6067,1191.9 6067,1189.3 6244.8,1189.3 
		6244.8,1209.1 6243.9,1209.5 6073.8,1277.5 6243.4,1277.5 	"/>
</g>
<g id="g410">
	<polygon id="polygon408" points="6243.4,1401.8 6061.4,1401.8 6237.8,1313.6 6067,1313.6 6067,1310.9 6249,1310.9 6072.6,1399.1 
		6243.4,1399.1 	"/>
</g>
<g id="g414">
	<polygon id="polygon412" points="6243.4,1540.6 6065.7,1540.6 6065.7,1512 6211.1,1452.4 6067,1452.4 6067,1449.8 6243.4,1449.8 
		6243.4,1452.4 6218.1,1452.4 6068.3,1513.7 6068.3,1538 6243.4,1538 	"/>
</g>
<polygon id="polygon416" points="3789.9,1577.3 3789.9,1553.1 3612.2,1553.1 3612.2,1555.7 3787.3,1555.7 3787.3,1575.2 
	3610.8,1619.3 3610.8,1643.9 3788.6,1643.9 3788.6,1641.3 3613.5,1641.3 3613.5,1621.4 "/>
<g id="g426">
	<g id="g420">
		
			<rect id="rect418" x="7361.6" y="2130.2" transform="matrix(0.9762 -0.2169 0.2169 0.9762 -285.1352 1665.1185)" width="162.7" height="2.6"/>
	</g>
	<g id="g424">
		<path id="path422" d="M7532.7,2177.1H7353l9.3-27.9l-9-63H7533l-9.3,27.9L7532.7,2177.1z M7356.6,2174.5h173.1l-8.6-60.5l8.4-25.1
			h-173.1l8.6,60.5L7356.6,2174.5z"/>
	</g>
</g>
<g id="g436">
	<g id="g430">
		
			<rect id="rect428" x="7491.6" y="783.6" transform="matrix(0.9762 -0.2168 0.2168 0.9762 9.9488 1660.5057)" width="162.7" height="2.6"/>
	</g>
	<g id="g434">
		<path id="path432" d="M7663.1,830.3h-179.8l9.3-27.9l-9-63h179.8l-9.3,27.9L7663.1,830.3z M7487.1,827.7h173.1l-8.6-60.5l8.4-25.1
			h-173.1l8.6,60.5L7487.1,827.7z"/>
	</g>
</g>
<g id="g442">
	<g id="g440">
		<polygon id="polygon438" points="7117.9,2175.8 7115.2,2175.8 7115.2,2089.5 7073,2106.5 7072,2104 7117.9,2085.6 		"/>
	</g>
</g>
<g id="g448">
	<g id="g446">
		<polygon id="polygon444" points="7609.2,2175.8 7606.6,2175.8 7606.6,2089.5 7564.3,2106.5 7563.4,2104 7609.2,2085.6 		"/>
	</g>
</g>
<g id="g460">
	<g id="g454">
		<g id="g452">
			<polygon id="polygon450" points="7322.1,2133 7144.3,2133 7144.3,2086.3 7322.1,2086.3 7322.1,2088.9 7147,2088.9 7147,2130.4 
				7322.1,2130.4 			"/>
		</g>
	</g>
	<g id="g458">
		<rect id="rect456" x="7320.8" y="2087.6" width="2.6" height="88.2"/>
	</g>
</g>
<g id="g472">
	<g id="g466">
		<g id="g464">
			<polygon id="polygon462" points="7916.8,786.2 7739.1,786.2 7739.1,739.4 7916.8,739.4 7916.8,742.1 7741.7,742.1 7741.7,783.6 
				7916.8,783.6 			"/>
		</g>
	</g>
	<g id="g470">
		<rect id="rect468" x="7915.5" y="740.8" width="2.6" height="88.2"/>
	</g>
</g>
<polygon id="polygon474" points="4427,1239.2 4427,1255.8 4253.2,1299.2 4253.2,1239.2 4250.6,1239.2 4250.6,1327.4 4253.2,1327.4 
	4253.2,1301.9 4429.7,1257.8 4429.7,1239.2 "/>
<g id="g484">
	<g id="g478">
		<polygon id="polygon476" points="6309.9,830.3 6309.3,827.7 6484.7,783.8 6484.7,768.6 6309.6,768.6 6309.6,765.9 6487.4,765.9 
			6487.4,785.9 		"/>
	</g>
	<g id="g482">
		<polygon id="polygon480" points="6487.4,767.2 6484.7,767.2 6484.7,742.1 6309.6,742.1 6309.6,739.4 6487.4,739.4 		"/>
	</g>
</g>
<g id="g488">
	<polygon id="polygon486" points="7231.2,829 7228.6,829 7228.6,801.5 7405,757.4 7405,742.1 7229.9,742.1 7229.9,739.4 
		7407.7,739.4 7407.7,759.5 7231.2,803.6 	"/>
</g>
<g id="g306_1_">
	<g id="g300_1_">
		<path id="path298_1_" d="M2742.9,3393.2c-44.3,0-66.5,0-77.8-5.6c-11.7-5.9-11.7-17.2-11.7-39.8s0-33.9,11.7-39.8
			c11.3-5.6,33.5-5.6,77.8-5.6s66.5,0,77.8,5.6c11.7,5.9,11.7,17.2,11.7,39.8s0,33.9-11.7,39.8
			C2809.3,3393.2,2787.2,3393.2,2742.9,3393.2z M2742.9,3305c-43.8,0-65.8,0-76.6,5.4c-10.3,5.1-10.3,16-10.3,37.4s0,32.3,10.3,37.4
			c10.8,5.4,32.7,5.4,76.6,5.4s65.8,0,76.6-5.4c10.3-5.1,10.3-16,10.3-37.4s0-32.3-10.3-37.4C2808.7,3305,2786.7,3305,2742.9,3305z"
			/>
	</g>
	<g id="g304_1_">
		
			<rect id="rect302_1_" x="2651.2" y="3346.6" transform="matrix(0.9579 -0.2872 0.2872 0.9579 -845.9116 928.8924)" width="184.2" height="2.6"/>
	</g>
</g>
<g id="g306_2_">
	<g id="g300_2_">
		<path id="path298_2_" d="M1696.7,3014.3c-44.3,0-66.5,0-77.8-5.6c-11.7-5.9-11.7-17.2-11.7-39.8s0-33.9,11.7-39.8
			c11.3-5.6,33.5-5.6,77.8-5.6s66.5,0,77.8,5.6c11.7,5.9,11.7,17.2,11.7,39.8s0,33.9-11.7,39.8
			C1763.1,3014.3,1741,3014.3,1696.7,3014.3z M1696.7,2926.1c-43.8,0-65.8,0-76.6,5.4c-10.3,5.1-10.3,16-10.3,37.4s0,32.3,10.3,37.4
			c10.8,5.4,32.7,5.4,76.6,5.4s65.8,0,76.6-5.4c10.3-5.1,10.3-16,10.3-37.4s0-32.3-10.3-37.4
			C1762.5,2926.1,1740.5,2926.1,1696.7,2926.1z"/>
	</g>
	<g id="g304_2_">
		
			<rect id="rect302_2_" x="1605" y="2967.7" transform="matrix(0.9579 -0.2872 0.2872 0.9579 -781.1675 612.4608)" width="184.2" height="2.6"/>
	</g>
</g>
<g id="g314_1_">
	<g id="g312_1_">
		<polygon id="polygon310_1_" points="2929.3,3391.9 2926.6,3391.9 2926.6,3305.6 2884.4,3322.5 2883.3,3320.1 2929.3,3301.7 		"/>
	</g>
</g>
<g id="g326_1_">
	<g id="g320_1_">
		<g id="g318_1_">
			<polygon id="polygon316_1_" points="3685.4,3366.7 3507.6,3366.7 3507.6,3346.7 3685,3302.4 3685.7,3305 3510.3,3348.8 
				3510.3,3364.1 3685.4,3364.1 			"/>
		</g>
	</g>
	<g id="g324_1_">
		<rect id="rect322_1_" x="3684.1" y="3321.3" width="2.6" height="70.6"/>
	</g>
</g>
<g id="g340_1_">
	<g id="g338_1_">
		<polygon id="polygon336_1_" points="3718.3,3393.2 3717.7,3390.7 3893.1,3346.7 3893.1,3331.5 3716.7,3331.5 3716.7,3302.3 
			3894.5,3302.3 3894.5,3305 3719.4,3305 3719.4,3328.8 3895.8,3328.8 3895.8,3348.8 		"/>
	</g>
</g>
<g id="g346_1_">
	<g id="g344_1_">
		<path id="path342_1_" d="M3969.5,3393.5v-91.1h177.8v2.6h-175.1v23.8h176.4v33.3L3969.5,3393.5z M3972.1,3331.5v58.8l173.8-30.4
			v-28.4L3972.1,3331.5L3972.1,3331.5z"/>
	</g>
</g>
<g id="g394_1_">
	<polygon id="polygon392_1_" points="3200.2,3393.2 3022.4,3393.2 3022.4,3364.4 3198.9,3320.3 3198.9,3305 3023.8,3305 
		3023.8,3302.3 3201.5,3302.3 3201.5,3322.4 3025.1,3366.5 3025.1,3390.6 3200.2,3390.6 	"/>
</g>
<g id="g436_1_">
	<g id="g430_1_">
		
			<rect id="rect428_1_" x="4448.4" y="3346.3" transform="matrix(0.9762 -0.2168 0.2168 0.9762 -618.0238 1061.6923)" width="162.7" height="2.6"/>
	</g>
	<g id="g434_1_">
		<path id="path432_1_" d="M4619.9,3393.2h-179.8l9.3-27.9l-9-63h179.8l-9.3,27.9L4619.9,3393.2z M4443.8,3390.6h173.1l-8.6-60.5
			l8.4-25.1h-173.1l8.6,60.5L4443.8,3390.6z"/>
	</g>
</g>
<g id="g472_1_">
	<g id="g466_1_">
		<g id="g464_1_">
			<polygon id="polygon462_1_" points="4873.6,3349.1 4695.8,3349.1 4695.8,3302.3 4873.6,3302.3 4873.6,3305 4698.5,3305 
				4698.5,3346.5 4873.6,3346.5 			"/>
		</g>
	</g>
	<g id="g470_1_">
		<rect id="rect468_1_" x="4872.3" y="3303.7" width="2.6" height="88.2"/>
	</g>
</g>
<g id="g484_1_">
	<g id="g478_1_">
		<polygon id="polygon476_1_" points="3266.6,3393.2 3266,3390.7 3441.5,3346.7 3441.5,3331.5 3266.4,3331.5 3266.4,3328.8 
			3444.1,3328.8 3444.1,3348.8 		"/>
	</g>
	<g id="g482_1_">
		<polygon id="polygon480_1_" points="3444.1,3330.1 3441.5,3330.1 3441.5,3305 3266.4,3305 3266.4,3302.3 3444.1,3302.3 		"/>
	</g>
</g>
<g id="g488_1_">
	<polygon id="polygon486_1_" points="4188,3391.9 4185.3,3391.9 4185.3,3364.4 4361.8,3320.3 4361.8,3305 4186.6,3305 
		4186.6,3302.3 4364.4,3302.3 4364.4,3322.4 4188,3366.5 	"/>
</g>
<polygon id="polygon490" points="5911.2,1678.2 5908.6,1678.2 5908.6,1763.2 5822.6,1677.2 5821.7,1678.2 5820.4,1678.2 
	5820.4,1763.2 5734.4,1677.2 5732.5,1679.1 5820.7,1767.3 5821.7,1766.4 5823,1766.4 5823,1681.3 5908.9,1767.3 5909.9,1766.4 
	5911.2,1766.4 "/>
<g id="g504">
	<g id="g494">
		
			<rect id="rect492" x="6322.4" y="1712" transform="matrix(0.9286 -0.3712 0.3712 0.9286 -177.4711 2504.4302)" width="190" height="2.6"/>
	</g>
	<g id="g498">
		<rect id="rect496" x="6326.6" y="1678.2" width="2.6" height="88.2"/>
	</g>
	<g id="g502">
		
			<rect id="rect500" x="6481" y="1689.4" transform="matrix(0.848 -0.53 0.53 0.848 67.8914 3698.7251)" width="2.6" height="83.2"/>
	</g>
</g>
<g id="g518">
	<g id="g508">
		<rect id="rect506" x="5732.1" y="2226.1" width="2.6" height="88.2"/>
	</g>
	<g id="g512">
		<rect id="rect510" x="5908.6" y="2226.1" width="2.6" height="88.2"/>
	</g>
	<g id="g516">
		<polygon id="polygon514" points="5909.4,2297.9 5821.7,2262.8 5733.9,2297.9 5732.9,2295.4 5821.7,2260 5910.3,2295.4 		"/>
	</g>
</g>
<g id="g536">
	<polygon id="polygon534" points="5861.2,2206.2 5829.9,2118.7 5797.1,2206.1 5740.5,2115.6 5742.8,2114.2 5796.5,2200.2 
		5829.9,2111.1 5861.8,2200.1 5915.5,2114.2 5917.7,2115.6 	"/>
</g>
<g id="g550">
	<g id="g540">
		<path id="path538" d="M6139.3,1766.4h-2.6v-89.5h123.9c22,0,55.1,0,55.1,23.4c0,12.1-10.7,17.4-29.2,22.3
			c-16.7,4.5-133.3,17.1-147.2,18.6L6139.3,1766.4L6139.3,1766.4z M6139.3,1679.5v58.9c14.5-1.6,130.4-14.1,146.5-18.4
			c17.6-4.8,27.3-9.3,27.3-19.8c0-20.7-30.3-20.7-52.5-20.7H6139.3z"/>
	</g>
	<g id="g544">
		<rect id="rect542" x="6136.6" y="1678.2" width="2.6" height="88.2"/>
	</g>
	<g id="g548">
		
			<rect id="rect546" x="6299" y="1717.2" transform="matrix(0.848 -0.53 0.53 0.848 33.4528 3604.2192)" width="2.6" height="53.2"/>
	</g>
</g>
<g id="g564">
	<g id="g554">
		
			<rect id="rect552" x="6301.5" y="2259.9" transform="matrix(0.9286 -0.3712 0.3712 0.9286 -382.3434 2535.8159)" width="190" height="2.6"/>
	</g>
	<g id="g558">
		<rect id="rect556" x="6305.7" y="2226.1" width="2.6" height="88.2"/>
	</g>
	<g id="g562">
		
			<rect id="rect560" x="6460.1" y="2237.4" transform="matrix(0.848 -0.53 0.53 0.848 -225.7326 3770.9568)" width="2.6" height="83.2"/>
	</g>
</g>
<g id="g568">
	<polygon id="polygon566" points="5866,2563.5 5821.7,2510.2 5777.3,2563.5 5732.2,2473.5 5734.6,2472.3 5777.8,2558.7 
		5821.7,2506.1 5865.5,2558.7 5908.7,2472.3 5911,2473.5 	"/>
</g>
<g id="g582">
	<g id="g572">
		<path id="path570" d="M6117.2,2314.3h-2.6v-89.5h123.9c22,0,55.1,0,55.1,23.4c0,12.1-10.7,17.4-29.2,22.3
			c-16.7,4.5-133.3,17.1-147.2,18.6L6117.2,2314.3L6117.2,2314.3z M6117.2,2227.4v58.9c14.5-1.6,130.4-14.1,146.5-18.4
			c17.6-4.8,27.3-9.3,27.3-19.8c0-20.7-30.3-20.7-52.5-20.7H6117.2L6117.2,2227.4z"/>
	</g>
	<g id="g576">
		<rect id="rect574" x="6114.6" y="2226.1" width="2.6" height="88.2"/>
	</g>
	<g id="g580">
		
			<rect id="rect578" x="6276.9" y="2265.1" transform="matrix(0.848 -0.53 0.53 0.848 -260.3073 3675.7947)" width="2.6" height="53.2"/>
	</g>
</g>
<g id="g588">
	<g id="g586">
		<polygon id="polygon584" points="5919.4,1932.8 5829.9,1843.2 5740.3,1932.8 5740.3,1841.4 5743,1841.4 5743,1926.4 
			5829.9,1839.5 5916.8,1926.4 5916.8,1841.4 5919.4,1841.4 		"/>
	</g>
</g>
<g id="g588_1_">
	<g id="g586_1_">
		<polygon id="polygon584_1_" points="4974.8,2259.6 5064.3,2349.2 5153.9,2259.6 5153.9,2351 5151.2,2351 5151.2,2266 
			5064.3,2352.9 4977.4,2266 4977.4,2351 4974.8,2351 		"/>
	</g>
</g>
<g id="g588_2_">
	<g id="g586_2_">
		<polygon id="polygon584_2_" points="5053,2994.7 5142.6,3084.3 5232.1,2994.7 5232.1,3086.1 5229.5,3086.1 5229.5,3001.1 
			5142.6,3088 5055.7,3001.1 5055.7,3086.1 5053,3086.1 		"/>
	</g>
</g>
<g id="g594">
	<g id="g592">
		<polygon id="polygon590" points="5919.4,2060.7 5829.9,2016 5740.3,2060.7 5740.3,1970.3 5743,1970.3 5743,2056.4 5829.9,2013 
			5830.5,2013.2 5916.8,2056.4 5916.8,1970.3 5919.4,1970.3 		"/>
	</g>
</g>
<g id="g598">
	<path id="path596" d="M6034.3,1930.9c-44.3,0-66.5,0-77.8-5.6c-11.7-5.9-11.7-17.2-11.7-39.8s0-33.9,11.7-39.8
		c11.3-5.6,33.5-5.6,77.8-5.6s66.5,0,77.8,5.6c11.7,5.9,11.7,17.2,11.7,39.8s0,33.9-11.7,39.8
		C6100.8,1930.9,6078.6,1930.9,6034.3,1930.9z M6034.3,1842.7c-43.8,0-65.8,0-76.6,5.4c-10.3,5.1-10.3,16-10.3,37.4
		s0,32.3,10.3,37.4c10.8,5.4,32.7,5.4,76.6,5.4c43.8,0,65.8,0,76.6-5.4c10.3-5.1,10.3-16,10.3-37.4s0-32.3-10.3-37.4
		C6100.2,1842.7,6078.1,1842.7,6034.3,1842.7z"/>
</g>
<g id="g602">
	<path id="path600" d="M6012.8,2315.6c-44.3,0-66.5,0-77.8-5.6c-11.7-5.9-11.7-17.2-11.7-39.8s0-33.9,11.7-39.8
		c11.3-5.6,33.5-5.6,77.8-5.6s66.5,0,77.8,5.6c11.7,5.9,11.7,17.2,11.7,39.8s0,33.9-11.7,39.8
		C6079.4,2315.6,6057.1,2315.6,6012.8,2315.6z M6012.8,2227.4c-43.8,0-65.8,0-76.6,5.4c-10.3,5.1-10.3,16-10.3,37.4
		s0,32.3,10.3,37.4c10.8,5.4,32.7,5.4,76.6,5.4s65.8,0,76.6-5.4c10.3-5.1,10.3-16,10.3-37.4s0-32.3-10.3-37.4
		C6078.7,2227.4,6056.7,2227.4,6012.8,2227.4z"/>
</g>
<g id="g606">
	<path id="path604" d="M6034.3,1770.2c-78.3,0-94.4-19.1-94.4-47.9c0-11.6,1.9-24.7,16.5-34.1c14.5-9.4,40-13.9,78-13.9
		s63.5,4.5,78,13.9s16.5,22.5,16.5,34.1C6128.8,1751,6112.7,1770.2,6034.3,1770.2z M6034.3,1677c-37.5,0-62.5,4.4-76.5,13.4
		c-13.4,8.6-15.3,20.9-15.3,31.8c0,21.9,7.1,45.3,91.7,45.3c84.7,0,91.7-23.4,91.7-45.3c0-19.3-7.7-26.9-15.3-31.8
		C6096.8,1681.4,6071.9,1677,6034.3,1677z"/>
</g>
<g id="g606_1_">
	<path id="path604_1_" d="M5584.5,3214.9c-78.3,0-94.4-19.1-94.4-47.9c0-11.6,1.9-24.7,16.5-34.1c14.5-9.4,40-13.9,78-13.9
		s63.5,4.5,78,13.9s16.5,22.5,16.5,34.1C5678.9,3195.8,5662.9,3214.9,5584.5,3214.9z M5584.5,3121.8c-37.5,0-62.5,4.4-76.5,13.4
		c-13.4,8.6-15.3,20.9-15.3,31.8c0,21.9,7.1,45.3,91.7,45.3c84.7,0,91.7-23.4,91.7-45.3c0-19.3-7.7-26.9-15.3-31.8
		C5647,3126.2,5622,3121.8,5584.5,3121.8z"/>
</g>
<g id="g624">
	<g id="g610">
		<rect id="rect608" x="5908.6" y="2355" width="2.6" height="88.2"/>
	</g>
	<g id="g614">
		<rect id="rect612" x="5732.1" y="2355" width="2.6" height="88.2"/>
	</g>
	<g id="g618">
		
			<rect id="rect616" x="5729.5" y="2397.7" transform="matrix(0.9286 -0.3712 0.3712 0.9286 -476.0656 2324.5442)" width="142.6" height="2.6"/>
	</g>
	<g id="g622">
		
			<rect id="rect620" x="5886.4" y="2364.6" transform="matrix(0.7682 -0.6402 0.6402 0.7682 -171.1458 4325.3853)" width="2.6" height="68.9"/>
	</g>
</g>
<polygon points="5908.6,1552.3 5908.6,1620.9 5823,1586.7 5823,1552.3 5820.4,1552.3 5820.4,1586.7 5734.8,1620.9 5734.8,1552.3 
	5732.1,1552.3 5732.1,1640.5 5734.8,1640.5 5734.8,1623.7 5821.7,1589 5908.6,1623.7 5908.6,1640.5 5911.2,1640.5 5911.2,1552.3 "/>
<g id="g4358" transform="translate(249.43281,466.15311)">
	<g id="g4348">
		<rect id="rect4346" x="4134.5" y="1449.7" width="2.6" height="88.2"/>
	</g>
	<g id="g4352">
		<rect id="rect4350" x="4310.9" y="1449.7" width="2.6" height="88.2"/>
	</g>
	<g id="g4356">
		<rect id="rect4354" x="4135.8" y="1504.4" width="176.4" height="2.6"/>
	</g>
</g>
<g id="g4358_2_" transform="translate(249.43281,466.15311)">
	<g id="g4348_2_">
		<rect id="rect4346_2_" x="3916.8" y="2533.7" width="2.6" height="88.2"/>
	</g>
	<g id="g4352_2_">
		<rect id="rect4350_2_" x="4093.2" y="2533.7" width="2.6" height="88.2"/>
	</g>
	<g id="g4356_2_">
		<rect id="rect4354_2_" x="3918.1" y="2588.3" width="176.4" height="2.6"/>
	</g>
</g>
<g id="g4358_1_" transform="translate(249.43281,466.15311)">
	<g id="g4348_1_">
		<rect id="rect4346_1_" x="4347.8" y="1679" width="2.6" height="88.2"/>
	</g>
	<g id="g4352_1_">
		<rect id="rect4350_1_" x="4524.2" y="1679" width="2.6" height="88.2"/>
	</g>
	<g id="g4356_1_">
		<rect id="rect4354_1_" x="4349.1" y="1733.7" width="176.4" height="2.6"/>
	</g>
</g>
<g id="g4368" transform="translate(-1.3630208,464.79009)">
	<g id="g4362">
		<polygon id="polygon4360" points="4668.1,1451.8 4580.9,1539.1 4579,1537.2 4668.1,1448 4757.3,1537.2 4755.5,1539.1 		"/>
	</g>
	<g id="g4366">
		<rect id="rect4364" x="4598.6" y="1518.2" width="139.1" height="2.6"/>
	</g>
</g>
<g id="g4368_1_" transform="translate(-1.3630208,464.79009)">
	<g id="g4362_1_">
		<polygon id="polygon4360_1_" points="4885.6,1682.8 4798.3,1770 4796.5,1768.2 4885.6,1679 4974.8,1768.2 4972.9,1770 		"/>
	</g>
	<g id="g4366_1_">
		<rect id="rect4364_1_" x="4816.1" y="1749.1" width="139.1" height="2.6"/>
	</g>
</g>
<g id="g4368_2_" transform="translate(-1.3630208,464.79009)">
	<g id="g4362_2_">
		<polygon id="polygon4360_2_" points="5261.8,1800.5 5174.6,1887.7 5172.7,1885.9 5261.8,1796.7 5351,1885.9 5349.2,1887.7 		"/>
	</g>
	<g id="g4366_2_">
		<rect id="rect4364_2_" x="5192.3" y="1866.8" width="139.1" height="2.6"/>
	</g>
</g>
<g>
	<g id="g4362_3_">
		<polygon id="polygon4360_3_" points="2729.8,3000.8 2642.6,3088.1 2640.7,3086.2 2729.8,2997 2819,3086.2 2817.1,3088.1 		"/>
	</g>
	<g id="g4366_3_">
		<rect id="rect4364_3_" x="2638.2" y="3058.7" width="177.6" height="2.6"/>
	</g>
</g>
<g id="g4378" transform="translate(-290.32343,464.79009)">
	<g id="g4372">
		<rect id="rect4370" x="5115.4" y="1449.9" width="2.6" height="88.2"/>
	</g>
	<g id="g4376">
		<rect id="rect4374" x="5028.5" y="1448.6" width="176.4" height="2.6"/>
	</g>
</g>
<g id="g4384" transform="translate(2.7260416,354.38541)">
	<path id="path4382" inkscape:connector-curvature="0" d="M4458.8,1762.1c-44.3,0-66.5,0-77.8-5.6c-11.7-5.9-11.7-17.2-11.7-39.8
		c0-22.6,0-33.9,11.7-39.8c11.3-5.6,33.5-5.6,77.8-5.6s66.5,0,77.8,5.6c11.7,5.9,11.7,17.2,11.7,39.8c0,22.6,0,33.9-11.7,39.8
		C4525.3,1762.1,4503.1,1762.1,4458.8,1762.1z M4458.8,1673.9c-43.8,0-65.8,0-76.6,5.4c-10.3,5.1-10.3,16-10.3,37.4
		s0,32.3,10.3,37.4c10.8,5.4,32.7,5.4,76.6,5.4s65.8,0,76.6-5.4c10.3-5.1,10.3-16,10.3-37.4s0-32.3-10.3-37.4
		C4524.6,1673.9,4502.7,1673.9,4458.8,1673.9z"/>
</g>
<g id="g4384_1_" transform="translate(2.7260416,354.38541)">
	<path id="path4382_1_" inkscape:connector-curvature="0" d="M4441,2134.2c-44.3,0-66.5,0-77.8-5.6c-11.7-5.9-11.7-17.2-11.7-39.8
		s0-33.9,11.7-39.8c11.3-5.6,33.5-5.6,77.8-5.6s66.5,0,77.8,5.6c11.7,5.9,11.7,17.2,11.7,39.8s0,33.9-11.7,39.8
		C4507.4,2134.2,4485.3,2134.2,4441,2134.2z M4441,2046c-43.8,0-65.8,0-76.6,5.4c-10.3,5.1-10.3,16-10.3,37.4s0,32.3,10.3,37.4
		c10.8,5.4,32.7,5.4,76.6,5.4c43.8,0,65.8,0,76.6-5.4c10.3-5.1,10.3-16,10.3-37.4s0-32.3-10.3-37.4
		C4506.8,2046,4484.9,2046,4441,2046z"/>
</g>
<g id="g4384_2_" transform="translate(2.7260416,354.38541)">
	<path id="path4382_2_" inkscape:connector-curvature="0" d="M5588.4,2733.7c-44.3,0-66.5,0-77.8-5.6c-11.7-5.9-11.7-17.2-11.7-39.8
		s0-33.9,11.7-39.8c11.3-5.6,33.5-5.6,77.8-5.6s66.5,0,77.8,5.6c11.7,5.9,11.7,17.2,11.7,39.8s0,33.9-11.7,39.8
		C5654.8,2733.7,5632.7,2733.7,5588.4,2733.7z M5588.4,2645.5c-43.8,0-65.8,0-76.6,5.4c-10.3,5.1-10.3,16-10.3,37.4
		s0,32.3,10.3,37.4c10.8,5.4,32.7,5.4,76.6,5.4c43.8,0,65.8,0,76.6-5.4c10.3-5.1,10.3-16,10.3-37.4s0-32.3-10.3-37.4
		C5654.2,2645.5,5632.2,2645.5,5588.4,2645.5z"/>
</g>
<g id="g4388" transform="translate(226.32793,352.45781)">
	<path id="path4386" inkscape:connector-curvature="0" sodipodi:nodetypes="cscscsccscscscc" d="M4346.9,1671.8
		c0,0-1.3,23.8-1.3,45.3c0,21.4,0,32.3,10.3,37.4c10.8,5.4,32.7,5.4,76.6,5.4c43.8,0,65.8,0,76.6-5.4c10.3-5.1,10.3-16,10.3-37.4
		s-0.4-44.9-0.4-44.9l3-0.3c0,0,0,22.6,0,45.2s0,33.9-11.7,39.8c-11.4,5.6-33.5,5.6-77.8,5.6s-66.5,0-77.8-5.6
		c-11.7-5.9-11.7-17.2-11.7-39.8c0-22.6,0.6-45.5,0.6-45.5L4346.9,1671.8z"/>
</g>
<g id="g4388_1_" transform="translate(226.32793,352.45781)">
	<path id="path4386_1_" inkscape:connector-curvature="0" sodipodi:nodetypes="cscscsccscscscc" d="M6566.9,2781.8
		c0,0-1.3,23.8-1.3,45.3s0,32.3,10.3,37.4c10.8,5.4,32.7,5.4,76.6,5.4c43.8,0,65.8,0,76.6-5.4c10.3-5.1,10.3-16,10.3-37.4
		s-0.4-44.9-0.4-44.9l3-0.3c0,0,0,22.6,0,45.2s0,33.9-11.7,39.8c-11.4,5.6-33.5,5.6-77.8,5.6s-66.5,0-77.8-5.6
		c-11.7-5.9-11.7-17.2-11.7-39.8s0.6-45.5,0.6-45.5L6566.9,2781.8z"/>
</g>
<path d="M3091.7,2481.7c-0.7,10.6-2.9,16.8-10,20.4c-10.8,5.4-32.7,5.4-76.5,5.4s-65.7,0-76.5-5.4c-10.3-5.1-10.3-16-10.3-37.4
	s0-32.3,10.3-37.4c10.8-5.4,32.7-5.4,76.5-5.4s65.8,0,76.5,5.4c7.1,3.5,9.4,9.8,10,20.4h2.6c-0.7-11.7-3.1-18.6-11.5-22.8
	c-11.3-5.6-33.5-5.6-77.7-5.6s-66.4,0-77.7,5.6c-11.7,5.9-11.7,17.2-11.7,39.8s0,33.9,11.7,39.8c11.3,5.6,33.5,5.6,77.7,5.6
	s66.4,0,77.7-5.6c8.3-4.1,10.8-11.1,11.5-22.8H3091.7L3091.7,2481.7z"/>
<path d="M4575.8,2207.3c-0.7,10.6-2.9,16.8-10,20.4c-10.8,5.4-32.7,5.4-76.5,5.4s-65.7,0-76.5-5.4c-10.3-5.1-10.3-16-10.3-37.4
	s0-32.3,10.3-37.4c10.8-5.4,32.7-5.4,76.5-5.4s65.8,0,76.5,5.4c7.1,3.5,9.4,9.8,10,20.4h2.6c-0.7-11.7-3.1-18.6-11.5-22.8
	c-11.3-5.6-33.5-5.6-77.7-5.6c-44.3,0-66.4,0-77.7,5.6c-11.7,5.9-11.7,17.2-11.7,39.8s0,33.9,11.7,39.8c11.3,5.6,33.5,5.6,77.7,5.6
	c44.3,0,66.4,0,77.7-5.6c8.3-4.1,10.8-11.1,11.5-22.8H4575.8L4575.8,2207.3z"/>
<path d="M3277.7,3059.6c-0.7,10.6-2.9,16.8-10,20.4c-10.8,5.4-32.7,5.4-76.5,5.4s-65.7,0-76.5-5.4c-10.3-5.1-10.3-16-10.3-37.4
	s0-32.3,10.3-37.4c10.8-5.4,32.7-5.4,76.5-5.4s65.8,0,76.5,5.4c7.1,3.5,9.4,9.8,10,20.4h2.6c-0.7-11.7-3.1-18.6-11.5-22.8
	c-11.3-5.6-33.5-5.6-77.7-5.6s-66.4,0-77.7,5.6c-11.7,5.9-11.7,17.2-11.7,39.8s0,33.9,11.7,39.8c11.3,5.6,33.5,5.6,77.7,5.6
	s66.4,0,77.7-5.6c8.3-4.1,10.8-11.1,11.5-22.8H3277.7L3277.7,3059.6z"/>
<path d="M3272,2502.7c-11.1,4.9-33.1,4.9-75.3,4.9c-43.8,0-65.7,0-76.5-5.4c-10.3-5.1-10.3-16-10.3-37.4s0-32.3,10.3-37.4
	c10.8-5.4,32.7-5.4,76.5-5.4c42.3,0,64.3,0,75.3,4.9l3-1.5c-0.2-0.1-0.4-0.3-0.6-0.4c-11.3-5.6-33.5-5.6-77.7-5.6
	c-44.3,0-66.4,0-77.7,5.6c-11.7,5.9-11.7,17.2-11.7,39.8s0,33.9,11.7,39.8c11.3,5.6,33.5,5.6,77.7,5.6c44.3,0,66.4,0,77.7-5.6
	c0.2-0.1,0.4-0.2,0.6-0.4L3272,2502.7z"/>
<line class="st0" x1="5999.4" y1="3042.5" x2="6086.3" y2="3088"/>
<g>
	<g id="g4366_4_">
		<rect id="rect4364_4_" x="4764.4" y="2348.1" width="176.4" height="2.6"/>
	</g>
	<g id="g4366_5_">
		<rect id="rect4364_5_" x="4764.4" y="2262.1" width="2.6" height="88.7"/>
	</g>
</g>
<g>
	<g id="g4366_9_">
		<rect id="rect4364_9_" x="4764.4" y="2109.3" width="176.4" height="2.6"/>
	</g>
	<g id="g4366_8_">
		<rect id="rect4364_8_" x="4764.4" y="2023.4" width="2.6" height="88.7"/>
	</g>
</g>
<g>
	<g id="g4366_11_">
		<rect id="rect4364_11_" x="4849.1" y="3079.7" width="176.4" height="2.6"/>
	</g>
	<g id="g4366_10_">
		<rect id="rect4364_10_" x="4849.1" y="2993.8" width="2.6" height="88.7"/>
	</g>
</g>
<g>
	<g id="g4366_7_">
		<rect id="rect4364_7_" x="4795" y="2318.6" width="145.8" height="2.6"/>
	</g>
	<g id="g4366_6_">
		<rect id="rect4364_6_" x="4795" y="2262.1" width="2.6" height="59.3"/>
	</g>
</g>
<g>
	<polygon class="st1" points="2260.4,3921.5 2084,3921.5 2084,3895 2260.4,3859.7 2260.4,3833.2 2084,3833.2 2084,3877.4 
		2260.4,3877.4 	"/>
</g>
<g>
	<polygon class="st1" points="2260.4,3647.5 2084,3647.5 2084,3603.3 2260.4,3585.7 2260.4,3559.2 2084,3559.2 2084,3585.7 
		2260.4,3603.3 	"/>
</g>
<g>
	<polygon class="st1" points="2260.4,3767.8 2084,3767.8 2084,3741.1 2260.4,3706 2260.4,3679.6 2084,3679.6 	"/>
</g>
<g>
	<polygon class="st1" points="2260.4,4048.6 2084,4048.6 2084,4022.1 2260.4,3986.8 2260.4,3960.4 2084,3960.4 2084,3986.8 
		2260.4,4022.1 	"/>
</g>
<rect x="576.2" y="4537.7" class="st2" width="147.4" height="147.4"/>
<line class="st1" x1="1483.5" y1="4921.1" x2="1483.5" y2="5009.3"/>
<g>
	<line class="st1" x1="1805.5" y1="4921.1" x2="1805.5" y2="5009.3"/>
	<line class="st1" x1="1717.2" y1="4921.1" x2="1893.7" y2="4921.1"/>
</g>
<g>
	<line class="st1" x1="1262.4" y1="4750.2" x2="1438.8" y2="4679.6"/>
	<line class="st1" x1="1262.4" y1="4679.6" x2="1262.4" y2="4767.8"/>
	<line class="st1" x1="1394.7" y1="4697.2" x2="1438.8" y2="4767.8"/>
</g>
<g>
	<line class="st1" x1="1410.6" y1="5073.4" x2="1438.8" y2="5118.5"/>
</g>
<g>
	<line class="st1" x1="1056.9" y1="4991.6" x2="1233.4" y2="4921.1"/>
	<line class="st1" x1="1056.9" y1="4921.1" x2="1056.9" y2="5009.3"/>
	<line class="st1" x1="1189.3" y1="4938.7" x2="1233.4" y2="5009.3"/>
</g>
<g>
	<line class="st1" x1="746.4" y1="4991.6" x2="570" y2="4921.1"/>
	<line class="st1" x1="746.4" y1="4921.1" x2="746.4" y2="5009.3"/>
	<line class="st1" x1="570" y1="4921.1" x2="570" y2="5009.3"/>
</g>
<g>
	<line class="st1" x1="1858.5" y1="5108" x2="1717.2" y2="5196.2"/>
	<line class="st1" x1="1717.2" y1="5108" x2="1893.8" y2="5108"/>
	<line class="st1" x1="1717.2" y1="5196.2" x2="1893.8" y2="5196.2"/>
</g>
<g>
	<line class="st1" x1="1752.4" y1="5318.4" x2="1893.8" y2="5230.2"/>
	<line class="st1" x1="1893.8" y1="5318.4" x2="1717.2" y2="5318.4"/>
	<line class="st1" x1="1893.8" y1="5230.2" x2="1717.2" y2="5230.2"/>
</g>
<g>
	<polyline class="st3" points="1893.8,5440.6 1717.2,5440.6 1893.8,5352.4 1717.2,5352.4 	"/>
</g>
<g>
	<line class="st1" x1="1873" y1="5903.3" x2="1696.5" y2="5832.7"/>
	<line class="st1" x1="1873" y1="5832.7" x2="1873" y2="5920.9"/>
	<line class="st1" x1="1696.5" y1="5832.7" x2="1696.5" y2="5920.9"/>
</g>
<g>
	<line class="st1" x1="499" y1="6263.1" x2="410.7" y2="6174.9"/>
	<line class="st1" x1="499" y1="6174.9" x2="499" y2="6263.1"/>
</g>
<g>
	<line class="st1" x1="587.2" y1="6263.1" x2="499" y2="6174.9"/>
	<line class="st1" x1="587.2" y1="6174.9" x2="587.2" y2="6263.1"/>
	<path class="st1" d="M499,6263.1"/>
	<path class="st1" d="M499,6174.9"/>
</g>
<g>
	<line class="st1" x1="1503.8" y1="4679.6" x2="1503.8" y2="4767.8"/>
	<line class="st1" x1="1621.4" y1="4697.2" x2="1680.2" y2="4767.8"/>
	<line class="st1" x1="1503.8" y1="4732.5" x2="1680.2" y2="4679.6"/>
</g>
<g>
	<line class="st1" x1="746.4" y1="5051.8" x2="746.4" y2="5140"/>
	<line class="st1" x1="746.4" y1="5104.7" x2="570" y2="5051.8"/>
	<line class="st1" x1="570" y1="5051.8" x2="570" y2="5140"/>
</g>
<g>
	<line class="st1" x1="1110.1" y1="4546" x2="1110.1" y2="4634.3"/>
	<polyline class="st1" points="1110.1,4599 933.7,4546 933.7,4634.3 	"/>
</g>
<g>
	<path class="st1" d="M1385,4826.3c22.1,0,53.8,0,53.8-22.1s-31.8-22.1-53.8-22.1h-122.6v88.2H1385c22.1,0,53.8,0,53.8-22.1
		C1438.8,4826.3,1407.1,4826.3,1385,4826.3h-122.6"/>
</g>
<g>
	<path class="st1" d="M2826.2,4826.3c22.1,0,53.8,0,53.8-22.1s-31.8-22.1-53.8-22.1h-122.6v88.2h122.6c22.1,0,53.8,0,53.8-22.1
		C2880,4826.3,2848.3,4826.3,2826.2,4826.3h-122.6"/>
</g>
<g>
	<path class="st1" d="M1081.2,3154.2c22.1,0,53.8,0,53.8-22.1s-31.8-22.1-53.8-22.1H958.6v88.2h122.6c22.1,0,53.8,0,53.8-22.1
		S1103.3,3154.2,1081.2,3154.2H958.6"/>
</g>
<g>
	<line class="st1" x1="1385" y1="5074.4" x2="1262.4" y2="5074.4"/>
	<path class="st1" d="M1385,5074.4c22.1,0,53.8,0,53.8-22.1s-31.8-22.1-53.8-22.1h-122.6v88.2"/>
</g>
<g>
	<g>
		<line class="st1" x1="818.7" y1="4799.8" x2="995.1" y2="4729.3"/>
		<line class="st1" x1="818.7" y1="4729.3" x2="818.7" y2="4817.5"/>
		<line class="st1" x1="951" y1="4746.9" x2="995.1" y2="4817.5"/>
	</g>
	<g>
		<g>
			<path class="st4" d="M906.6,4773.4c10.6,0,25.8,0,25.8-10.6s-15.3-10.6-25.8-10.6h-58.8v42.3h58.8c10.6,0,25.8,0,25.8-10.6
				C932.5,4773.4,917.2,4773.4,906.6,4773.4h-58.8"/>
		</g>
		<g>
			<path class="st1" d="M906.6,4773.4c10.6,0,25.8,0,25.8-10.6s-15.3-10.6-25.8-10.6h-58.8v42.3h58.8c10.6,0,25.8,0,25.8-10.6
				C932.5,4773.4,917.2,4773.4,906.6,4773.4h-58.8"/>
		</g>
	</g>
</g>
<g>
	<path class="st1" d="M1262.4,4983.8c0,0,130.7-14,148.2-18.7s28.2-9.4,28.2-21c0-22.1-31.8-22.1-53.8-22.1h-122.6v88.2"/>
	<line class="st1" x1="1262.4" y1="4922" x2="1262.4" y2="5010.2"/>
	<line class="st1" x1="1410.6" y1="4965.2" x2="1438.8" y2="5010.2"/>
</g>
<path class="st1" d="M1520,5000.5c0,8.4,11.6,8.8,17.6,8.8c6.1,0,105,0,105,0c22.1,0,53.8,0.4,53.8-22.1c0-11.9-22.8-14.3-36.2-15.9
	c-13.4-1.6-94.2-11-104.1-12.4s-36.2-4.6-36.2-15.9c0-21.2,31.8-22.1,53.8-22.1c0,0,96.6,0,105,0s17.6,1.1,17.6,8.8"/>
<line class="st1" x1="1024.3" y1="5832.7" x2="1024.3" y2="5920.9"/>
<line class="st1" x1="2726.9" y1="5316.9" x2="2726.9" y2="5405.1"/>
<line class="st1" x1="1232.9" y1="4546" x2="1232.9" y2="4634.3"/>
<line class="st1" x1="1454.8" y1="5832.7" x2="1454.8" y2="5920.9"/>
<g>
	<line class="st1" x1="2888.9" y1="5316.9" x2="2888.9" y2="5405.1"/>
	<polyline class="st5" points="2888.9,5387.5 2844.8,5316.9 2844.8,5405.1 	"/>
</g>
<line class="st1" x1="2830.5" y1="5316.9" x2="2830.5" y2="5405.1"/>
<g>
	<line class="st1" x1="1342.8" y1="5832.7" x2="1342.8" y2="5920.9"/>
	<line class="st1" x1="1254.5" y1="5832.7" x2="1431" y2="5832.7"/>
</g>
<g>
	<line class="st1" x1="3644.2" y1="5836.8" x2="3644.2" y2="5925.1"/>
	<line class="st1" x1="3556" y1="5836.8" x2="3732.4" y2="5836.8"/>
</g>
<g>
	<line class="st1" x1="2929.8" y1="5316.9" x2="2929.8" y2="5405.1"/>
	<line class="st1" x1="2907.7" y1="5316.9" x2="2951.9" y2="5316.9"/>
</g>
<g>
	<line class="st1" x1="606.2" y1="5903.3" x2="782.7" y2="5832.7"/>
	<line class="st1" x1="606.2" y1="5832.7" x2="606.2" y2="5920.9"/>
	<line class="st1" x1="738.6" y1="5850.3" x2="782.7" y2="5920.9"/>
</g>
<g>
	<line class="st1" x1="1005.2" y1="6245.5" x2="1181.7" y2="6174.9"/>
	<line class="st1" x1="1005.2" y1="6174.9" x2="1005.2" y2="6263.1"/>
	<line class="st1" x1="1137.6" y1="6192.5" x2="1181.7" y2="6263.1"/>
</g>
<g>
	<line class="st1" x1="410.7" y1="6722.8" x2="410.7" y2="6811"/>
	<line class="st1" x1="587.2" y1="6722.8" x2="587.2" y2="6811"/>
	<polyline class="st1" points="587.2,6793.4 499,6758.1 410.7,6793.4 	"/>
</g>
<g>
	<line class="st1" x1="666.9" y1="6881.4" x2="666.9" y2="6969.7"/>
	<line class="st1" x1="843.4" y1="6881.4" x2="843.4" y2="6969.7"/>
	<polyline class="st1" points="843.4,6952 755.1,6916.7 666.9,6952 	"/>
</g>
<g>
	<path class="st1" d="M815.2,5894.5c0,0,130.7-14,148.2-18.7s28.2-9.4,28.2-21c0-22.1-31.8-22.1-53.8-22.1H815.2v88.2"/>
	<line class="st1" x1="815.2" y1="5832.7" x2="815.2" y2="5920.9"/>
	<line class="st1" x1="963.5" y1="5875.8" x2="991.7" y2="5920.9"/>
</g>
<polyline class="st1" points="418.9,6611.7 474.1,6699.9 507.2,6611.7 538.8,6699.9 594,6611.7 "/>
<g>
	<path class="st1" d="M815.2,6236.7c0,0,130.7-14,148.2-18.7s28.2-9.4,28.2-21c0-22.1-31.8-22.1-53.8-22.1H815.2v88.2"/>
	<line class="st1" x1="815.2" y1="6174.9" x2="815.2" y2="6263.1"/>
	<line class="st1" x1="963.5" y1="6218" x2="991.7" y2="6263.1"/>
</g>
<g>
	<line class="st1" x1="984.3" y1="6793.4" x2="1160.8" y2="6722.8"/>
	<line class="st1" x1="984.3" y1="6722.8" x2="984.3" y2="6811"/>
	<line class="st1" x1="1116.7" y1="6740.5" x2="1160.8" y2="6811"/>
</g>
<polyline class="st1" points="587.2,6969.7 543.1,7057.9 499,7004.9 454.9,7057.9 410.7,6969.7 "/>
<g>
	<path class="st1" d="M793.2,6784.6c0,0,130.7-14,148.2-18.7s28.2-9.4,28.2-21c0-22.1-31.8-22.1-53.8-22.1H793.2v88.2"/>
	<line class="st1" x1="793.2" y1="6722.8" x2="793.2" y2="6811"/>
	<line class="st1" x1="941.4" y1="6765.9" x2="969.6" y2="6811"/>
</g>
<g>
	<path class="st1" d="M3348.7,5898.6c0,0,130.7-14,148.2-18.7s28.2-9.4,28.2-21c0-22.1-31.8-22.1-53.8-22.1h-122.6v88.2"/>
	<line class="st1" x1="3348.7" y1="5836.8" x2="3348.7" y2="5925.1"/>
	<line class="st1" x1="3497" y1="5879.9" x2="3525.1" y2="5925.1"/>
</g>
<g>
	<line class="st1" x1="2435.8" y1="5201.6" x2="2435.8" y2="5228.9"/>
	<polyline class="st1" points="2524,5140.7 2524,5201.6 2347.6,5201.6 2347.6,5140.7 	"/>
</g>
<g>
	<line class="st1" x1="4103.6" y1="4930.1" x2="4103.6" y2="5018.3"/>
	<line class="st1" x1="4015.4" y1="4930.1" x2="4191.8" y2="4930.1"/>
</g>
<g>
	<line class="st1" x1="3443.7" y1="4930.1" x2="3443.7" y2="5018.3"/>
	<line class="st1" x1="3355.5" y1="4930.1" x2="3531.9" y2="4930.1"/>
</g>
<g>
	<path class="st1" d="M3139.1,4991.8c0,0,130.7-14,148.2-18.7s28.2-9.4,28.2-21c0-22.1-31.8-22.1-53.8-22.1h-122.6v88.2"/>
	<line class="st1" x1="3139.1" y1="4930.1" x2="3139.1" y2="5018.3"/>
	<line class="st1" x1="3287.4" y1="4973.1" x2="3315.6" y2="5018.3"/>
</g>
<g>
	<path class="st1" d="M1165.6,3171.9c0,0,130.7-14,148.2-18.7s28.2-9.4,28.2-21c0-22.1-31.8-22.1-53.8-22.1h-122.6v88.2"/>
	<line class="st1" x1="1165.6" y1="3110.1" x2="1165.6" y2="3198.3"/>
	<line class="st1" x1="1313.8" y1="3153.2" x2="1342.1" y2="3198.3"/>
</g>
<g>
	<line class="st1" x1="566.4" y1="5431.6" x2="654.6" y2="5431.6"/>
	<polyline class="st1" points="654.6,5361 566.4,5361 566.4,5449.2 654.6,5449.2 	"/>
</g>
<g>
	<line class="st1" x1="1127.9" y1="4616.6" x2="1216.1" y2="4616.6"/>
	<polyline class="st1" points="1216.1,4546 1127.9,4546 1127.9,4634.3 1216.1,4634.3 	"/>
</g>
<g>
	<line class="st2" x1="1110.1" y1="4671.3" x2="1110.1" y2="4759.5"/>
	<polyline class="st2" points="1110.1,4724.2 1088.1,4671.3 1088.1,4759.5 	"/>
</g>
<line class="st2" x1="1148.9" y1="4671.3" x2="1148.9" y2="4759.5"/>
<g>
	<line class="st2" x1="1119.8" y1="4740.3" x2="1141.9" y2="4740.3"/>
	<polyline class="st2" points="1141.9,4674 1119.8,4674 1119.8,4756.9 1141.9,4756.9 	"/>
</g>
<g>
	<g>
		<line class="st2" x1="633.2" y1="4567.2" x2="633.2" y2="4655.4"/>
		<polyline class="st2" points="633.2,4620.1 611.2,4567.2 611.2,4655.4 		"/>
	</g>
	<line class="st2" x1="686.2" y1="4567.2" x2="686.2" y2="4655.4"/>
	<g>
		<line class="st2" x1="650" y1="4636.2" x2="672" y2="4636.2"/>
		<polyline class="st2" points="672,4569.9 650,4569.9 650,4652.8 672,4652.8 		"/>
	</g>
</g>
<g>
	<line class="st1" x1="566.4" y1="5299.2" x2="742.8" y2="5299.2"/>
	<polyline class="st1" points="742.8,5228.7 566.4,5228.7 566.4,5316.9 742.8,5316.9 	"/>
</g>
<line class="st1" x1="771.8" y1="5228.7" x2="771.8" y2="5316.9"/>
<path class="st1" d="M1056.9,5912.1c0,8.4,11.6,8.8,17.6,8.8c6.1,0,105,0,105,0c22.1,0,53.8,0.4,53.8-22.1
	c0-11.9-22.8-14.3-36.2-15.9s-94.2-11-104.1-12.4s-36.2-4.6-36.2-15.9c0-21.2,31.8-22.1,53.8-22.1c0,0,96.6,0,105,0
	s17.6,1.1,17.6,8.8"/>
<path class="st1" d="M815.2,5597.9c0,8.4,11.6,8.8,17.6,8.8c6.1,0,105,0,105,0c22.1,0,53.8,0.4,53.8-22.1
	c0-11.9-22.8-14.3-36.2-15.9s-94.2-11-104.1-12.4c-9.9-1.3-36.2-4.6-36.2-15.9c0-21.2,31.8-22.1,53.8-22.1c0,0,96.6,0,105,0
	s17.6,1.1,17.6,8.8"/>
<g>
	<path class="st1" d="M1487.4,5920.9v-66.2c0-22.1,31.8-22.1,53.8-22.1h68.8c22.1,0,53.8,0,53.8,22.1v66.2"/>
	<line class="st1" x1="1663.9" y1="5875.8" x2="1487.4" y2="5875.8"/>
</g>
<g>
	<path class="st1" d="M1350.6,5343.4v-66.2c0-22.1,31.8-22.1,53.8-22.1h68.8c22.1,0,53.8,0,53.8,22.1v66.2"/>
	<line class="st1" x1="1527.1" y1="5298.3" x2="1350.6" y2="5298.3"/>
</g>
<g>
	<path class="st1" d="M1153.2,5550v-17.6c0-22.1,31.8-70.6,53.8-70.6h68.8c22.1,0,53.8,48.5,53.8,70.6v17.6"/>
	<line class="st1" x1="1329.6" y1="5532.3" x2="1153.2" y2="5532.3"/>
</g>
<g>
	<path class="st1" d="M1153.2,5440.6V5423c0-22.1,31.8-70.6,53.8-70.6h68.8c22.1,0,53.8,48.5,53.8,70.6v17.6"/>
	<line class="st1" x1="1329.6" y1="5422.9" x2="1153.2" y2="5422.9"/>
</g>
<g>
	<path class="st1" d="M1560.8,5553.8v-25.4c0-22.1,72.1-62.8,88.2-62.8s88.2,40.8,88.2,62.8v25.4"/>
	<line class="st1" x1="1737.3" y1="5528.3" x2="1560.8" y2="5528.3"/>
</g>
<path class="st6" d="M2391.2,4652.3c-16.6,0-31.2,5.6-39.9,14.1c-8.7-8.5-23.3-14.1-39.9-14.1c-26.6,0-48.3,14.5-48.3,32.3
	c0,22.1,72.1,62.8,88.2,62.8c16.1,0,88.2-40.8,88.2-62.8C2439.6,4666.7,2418,4652.3,2391.2,4652.3z"/>
<g>
	<path class="st1" d="M1350.6,5440.6v-45.2c0,0,31.8-43,53.8-43h68.8c22.1,0,53.8,43,53.8,43v45.2"/>
	<line class="st1" x1="1527.1" y1="5395.4" x2="1350.6" y2="5395.4"/>
</g>
<g>
	<polyline class="st1" points="1350.6,5550 1404.4,5461.7 1473.2,5461.7 1527.1,5550 	"/>
	<line class="st1" x1="1500.1" y1="5504.8" x2="1377.5" y2="5504.8"/>
</g>
<g>
	<polyline class="st1" points="1350.6,5662.5 1438.8,5574.3 1527.1,5662.5 	"/>
	<line class="st1" x1="1527.1" y1="5636.2" x2="1350.6" y2="5636.2"/>
</g>
<g>
	<polyline class="st1" points="1153.2,5662.5 1241.4,5574.3 1329.6,5662.5 	"/>
	<line class="st1" x1="1311" y1="5643.9" x2="1171.9" y2="5643.9"/>
</g>
<g>
	<polyline class="st1" points="3216.9,6683.3 3305.1,6595.1 3393.3,6683.3 	"/>
	<line class="st1" x1="3374.7" y1="6664.6" x2="3235.6" y2="6664.6"/>
</g>
<g>
	<polyline class="st1" points="3141.4,5925.1 3229.7,5836.8 3317.9,5925.1 	"/>
	<line class="st1" x1="3299.2" y1="5906.4" x2="3160.1" y2="5906.4"/>
</g>
<g>
	<polyline class="st1" points="2916.1,4870.4 3004.3,4782.2 3092.6,4870.4 	"/>
	<line class="st1" x1="3074" y1="4851.7" x2="2934.8" y2="4851.7"/>
</g>
<g>
	<g>
		<line class="st1" x1="3160.1" y1="4851.7" x2="3160.1" y2="4870.4"/>
	</g>
	<g>
		<polyline class="st1" points="3229.7,4782.2 3160.1,4851.7 3090.5,4782.2 		"/>
	</g>
</g>
<g>
	<polyline class="st1" points="595.4,6338.2 595.4,6426.4 507.2,6338.2 418.9,6426.4 418.9,6338.2 	"/>
</g>
<g>
	<polyline class="st1" points="595.4,6467.1 595.4,6555.3 507.2,6511.2 418.9,6555.3 418.9,6467.1 	"/>
</g>
<g>
	<polyline class="st1" points="2900.2,6046.5 2900.2,6134.7 2811.9,6090.6 2723.7,6134.7 2723.7,6046.5 	"/>
</g>
<g>
	<polyline class="st1" points="1566.7,5662.5 1654.9,5574.3 1743.1,5662.5 	"/>
	<line class="st1" x1="1696.4" y1="5617.4" x2="1611.8" y2="5617.4"/>
</g>
<g>
	<line class="st1" x1="771.8" y1="5290.5" x2="948.3" y2="5290.5"/>
	<polyline class="st1" points="948.3,5228.7 771.8,5228.7 771.8,5316.9 948.3,5316.9 	"/>
</g>
<g>
	<line class="st1" x1="2726.9" y1="5836.8" x2="2726.9" y2="5925.1"/>
	<line class="st1" x1="2903.3" y1="5836.8" x2="2903.3" y2="5925.1"/>
	<line class="st1" x1="2726.9" y1="5892.8" x2="2903.3" y2="5892.8"/>
</g>
<g>
	<line class="st1" x1="2965.1" y1="5316.9" x2="2965.1" y2="5405.1"/>
	<line class="st1" x1="3009.2" y1="5316.9" x2="3009.2" y2="5405.1"/>
	<line class="st1" x1="2965.1" y1="5372.9" x2="3009.2" y2="5372.9"/>
</g>
<g>
	<line class="st1" x1="2934.1" y1="5898.7" x2="3110.6" y2="5898.7"/>
	<polyline class="st1" points="3110.6,5836.8 2934.1,5836.8 2934.1,5925.1 3110.6,5925.1 	"/>
</g>
<g>
	<line class="st1" x1="3577.2" y1="4991.9" x2="3753.7" y2="4991.9"/>
	<polyline class="st1" points="3753.7,4930.1 3577.2,4930.1 3577.2,5018.3 3753.7,5018.3 	"/>
</g>
<g>
	<line class="st1" x1="3796.4" y1="4991.9" x2="3972.8" y2="4991.9"/>
	<polyline class="st1" points="3972.8,4930.1 3796.4,4930.1 3796.4,5018.3 3972.8,5018.3 	"/>
</g>
<g>
	<line class="st1" x1="3022.4" y1="5378.7" x2="3066.5" y2="5378.7"/>
	<polyline class="st1" points="3066.5,5316.9 3022.4,5316.9 3022.4,5405.1 3066.5,5405.1 	"/>
</g>
<g>
	<line class="st1" x1="976.7" y1="5272.8" x2="1153.2" y2="5272.8"/>
	<polyline class="st1" points="1153.2,5228.7 976.7,5228.7 976.7,5316.9 1153.2,5316.9 	"/>
</g>
<g>
	<path class="st1" d="M991.7,5701c0,7.2-6,13.2-13.2,13.2h-150c-7.2,0-13.2-6-13.2-13.2v-61.8c0-7.2,6-13.2,13.2-13.2h150
		c7.2,0,13.2,6,13.2,13.2V5701z"/>
</g>
<ellipse class="st1" cx="683.6" cy="5670.1" rx="88.2" ry="44.1"/>
<ellipse class="st1" cx="683.6" cy="5556.5" rx="88.2" ry="44.1"/>
<ellipse class="st1" cx="711.7" cy="6382.3" rx="88.2" ry="44.1"/>
<ellipse class="st1" cx="690.1" cy="6766.9" rx="88.2" ry="44.1"/>
<g>
	<line class="st1" x1="3350.3" y1="6117" x2="3526.7" y2="6046.5"/>
	<line class="st1" x1="3350.3" y1="6046.5" x2="3350.3" y2="6134.7"/>
	<line class="st1" x1="3482.6" y1="6064.1" x2="3526.7" y2="6134.7"/>
</g>
<g>
	<path class="st1" d="M3141.4,6108.2c0,0,130.7-14,148.2-18.7s28.2-9.4,28.2-21c0-22.1-31.8-22.1-53.8-22.1h-122.6v88.2"/>
	<line class="st1" x1="3141.4" y1="6046.5" x2="3141.4" y2="6134.7"/>
	<line class="st1" x1="3289.6" y1="6089.6" x2="3317.9" y2="6134.7"/>
</g>
<ellipse class="st1" cx="3020.8" cy="6090.6" rx="88.2" ry="44.1"/>
<g>
	<ellipse class="st1" cx="3092.6" cy="6764.9" rx="88.2" ry="44.1"/>
	<line class="st1" x1="3004.3" y1="6791.4" x2="3180.8" y2="6738.4"/>
</g>
<ellipse class="st1" cx="711.7" cy="6219" rx="93.1" ry="46.6"/>
<g>
	<line class="st1" x1="587.2" y1="6851.8" x2="587.2" y2="6940"/>
	<line class="st1" x1="410.7" y1="6851.8" x2="410.7" y2="6940"/>
	<line class="st1" x1="410.7" y1="6922.4" x2="543.1" y2="6869.4"/>
	<line class="st1" x1="543.1" y1="6869.4" x2="587.2" y2="6922.4"/>
</g>
<line class="st1" x1="755.1" y1="6916.7" x2="755.1" y2="6881.4"/>
<path class="st1" d="M2735.4,5395.8c0,5.1,4.1,9.3,9.3,9.3h16.3c10.2,0,18.5-8.3,18.5-18.5c0-5.1-2.1-9.8-5.5-13.1
	s-29.9-21.5-33.3-24.9s-5.5-8-5.5-13.1c0-10.2,8.3-18.5,18.5-18.5h16.3c5.1,0,9.3,4.1,9.3,9.3"/>
<g>
	<line class="st1" x1="2332.2" y1="6665.7" x2="2508.7" y2="6595.1"/>
	<line class="st1" x1="2332.2" y1="6595.1" x2="2332.2" y2="6683.3"/>
	<line class="st1" x1="2464.5" y1="6612.7" x2="2508.7" y2="6683.3"/>
</g>
<g>
	<line class="st1" x1="3599.3" y1="6674.5" x2="3422.9" y2="6603.9"/>
	<line class="st1" x1="3599.3" y1="6603.9" x2="3599.3" y2="6692.1"/>
	<line class="st1" x1="3422.9" y1="6603.9" x2="3422.9" y2="6692.1"/>
</g>
<g>
	<path class="st1" d="M3180.8,6738.4"/>
	<path class="st1" d="M3004.3,6791.4"/>
</g>
<g>
	<polyline class="st1" points="2975.2,6809 2975.2,6720.8 2931.1,6738.4 	"/>
</g>
<g>
	<polyline class="st1" points="1645.1,3198.3 1645.1,3110.1 1601,3127.8 	"/>
</g>
<line class="st1" x1="2750.4" y1="6595.1" x2="2750.4" y2="6683.3"/>
<line class="st1" x1="3180.8" y1="6595.1" x2="3180.8" y2="6683.3"/>
<g>
	<line class="st1" x1="3068.8" y1="6595.1" x2="3068.8" y2="6683.3"/>
	<line class="st1" x1="2980.6" y1="6595.1" x2="3157.1" y2="6595.1"/>
</g>
<g>
	<path class="st1" d="M2541.3,6656.8c0,0,130.7-14,148.2-18.7s28.2-9.4,28.2-21c0-22.1-31.8-22.1-53.8-22.1h-122.6v88.2"/>
	<line class="st1" x1="2541.3" y1="6595.1" x2="2541.3" y2="6683.3"/>
	<line class="st1" x1="2689.5" y1="6638.1" x2="2717.7" y2="6683.3"/>
</g>
<path class="st1" d="M2783,6674.5c0,8.4,11.6,8.8,17.6,8.8c6.1,0,105,0,105,0c22.1,0,53.8,0.4,53.8-22.1c0-11.9-22.8-14.3-36.2-15.9
	s-94.2-11-104.1-12.4s-36.2-4.6-36.2-15.9c0-21.2,31.8-22.1,53.8-22.1c0,0,96.6,0,105,0s17.6,1.1,17.6,8.8"/>
<path class="st1" d="M2920.1,5009.5c0,8.4,11.6,8.8,17.6,8.8s105,0,105,0c22.1,0,53.8,0.4,53.8-22.1c0-11.9-22.8-14.3-36.2-15.9
	s-94.2-11-104.1-12.4c-9.9-1.3-36.2-4.6-36.2-15.9c0-21.2,31.8-22.1,53.8-22.1c0,0,96.6,0,105,0s17.6,1.1,17.6,8.8"/>
<g>
	<g>
		<polyline class="st1" points="3389.9,6782.5 3213.4,6782.5 3213.4,6764.9 3389.9,6720.8 		"/>
	</g>
	<line class="st1" x1="3389.9" y1="6738.4" x2="3389.9" y2="6809"/>
</g>
<g>
	<polyline class="st1" points="3598.9,6720.8 3422.5,6720.8 3422.5,6747.3 3598.9,6747.3 3598.9,6764.9 3422.5,6809 	"/>
</g>
<g>
	<ellipse class="st1" cx="297.5" cy="3330" rx="88.2" ry="44.1"/>
	<line class="st1" x1="209.3" y1="3356.4" x2="385.7" y2="3303.5"/>
</g>
<g>
	<polyline class="st1" points="553.2,3374.1 553.2,3285.9 509.1,3303.5 	"/>
</g>
<g>
	<g>
		<polyline class="st1" points="1310.6,3347.6 1134.1,3347.6 1134.1,3330 1310.6,3285.9 		"/>
	</g>
	<line class="st1" x1="1310.6" y1="3303.5" x2="1310.6" y2="3374.1"/>
</g>
<g>
	<g>
		<polyline class="st1" points="2498.9,3621.6 2322.4,3576.9 2322.4,3559.2 2498.9,3559.9 2498.9,3647.5 		"/>
	</g>
</g>
<g>
	<g>
		<polyline class="st1" points="2498.9,3895.6 2322.4,3850.9 2322.4,3833.2 2498.9,3833.9 2498.9,3921.5 2348,3921.5 		"/>
	</g>
</g>
<g>
	<g>
		<polyline class="st1" points="2217.5,2989.6 2041,2944.9 2041,2927.2 2217.5,2927.9 2217.5,3015.5 		"/>
	</g>
</g>
<g>
	<polyline class="st1" points="1519.6,3285.9 1343.2,3285.9 1343.2,3312.3 1519.6,3312.3 1519.6,3330 1343.2,3374.1 	"/>
</g>
<g>
	<polyline class="st1" points="1772.4,3285.9 1595.9,3285.9 1595.9,3312.3 1772.4,3312.3 1772.4,3343.2 1595.9,3374.1 
		1595.9,3312.3 	"/>
</g>
<g>
	<polyline class="st1" points="1772.4,4135.7 1595.9,4162.2 1772.4,4162.2 1772.4,4193.1 1595.9,4224 1595.9,4162.2 	"/>
</g>
<g>
	<polyline class="st1" points="2325.9,3762 2502.4,3735.5 2325.9,3735.5 2325.9,3704.6 2502.4,3673.7 2502.4,3735.5 	"/>
</g>
<g>
	<polyline class="st1" points="1772.4,3544.3 1595.9,3544.3 1595.9,3570.8 1772.4,3570.8 1772.4,3632.5 1595.9,3632.5 
		1595.9,3570.8 	"/>
</g>
<g>
	<polyline class="st1" points="2327.9,4052.5 2504.4,4052.5 2504.4,4026 2327.9,4026 2327.9,3964.3 2504.4,3964.3 2504.4,4026 	"/>
</g>
<g>
	<polyline class="st1" points="1772.4,3833.2 1595.9,3859.7 1772.4,3859.7 1772.4,3921.5 1595.9,3921.5 1595.9,3859.7 	"/>
</g>
<g>
	<polyline class="st1" points="1772.4,3669.6 1595.9,3669.6 1595.9,3696.1 1772.4,3713.7 1772.4,3737.4 1595.9,3757.8 
		1595.9,3696.1 	"/>
</g>
<g>
	<polyline class="st1" points="1772.4,3996.8 1595.9,4023.3 1772.4,4040.9 1772.4,4064.6 1595.9,4085 1595.9,4023.3 	"/>
</g>
<polyline class="st1" points="3601.3,4646.8 3424.9,4646.8 3424.9,4673.3 3601.3,4673.3 3601.3,4690.9 3424.9,4735 "/>
<g>
	<polyline class="st1" points="3216.3,4673.3 3392.8,4673.3 3392.8,4690.9 3216.3,4735 	"/>
	<polyline class="st1" points="3216.3,4646.8 3392.8,4646.8 3392.8,4673.3 	"/>
</g>
<g>
	<polyline class="st1" points="1408,3136.6 1584.4,3136.6 1584.4,3154.2 1408,3198.3 	"/>
	<polyline class="st1" points="1408,3110.1 1584.4,3110.1 1584.4,3136.6 	"/>
</g>
<polyline class="st1" points="825.4,3632.5 648.9,3632.5 648.9,3606.1 825.4,3606.1 825.4,3588.4 648.9,3544.3 "/>
<polyline class="st1" points="825.4,3771.5 648.9,3771.5 648.9,3745 825.4,3700.9 825.4,3683.3 648.9,3683.3 "/>
<polyline class="st1" points="825.4,3374.1 648.9,3374.1 648.9,3347.6 825.4,3303.5 825.4,3285.9 648.9,3285.9 "/>
<polyline class="st1" points="2997,4735 2997,4708.5 3173.5,4664.4 3173.5,4646.8 2997,4646.8 "/>
<polyline class="st1" points="6672.7,3825 6496.3,3825 6496.3,3851.4 6672.7,3851.4 6672.7,3869.1 6496.3,3913.2 "/>
<g>
	<polyline class="st1" points="6287.7,3851.4 6464.2,3851.4 6464.2,3869.1 6287.7,3913.2 	"/>
	<polyline class="st1" points="6287.7,3825 6464.2,3825 6464.2,3851.4 	"/>
</g>
<polyline class="st1" points="6068.4,3913.2 6068.4,3886.7 6244.8,3842.6 6244.8,3825 6068.4,3825 "/>
<polyline class="st1" points="1675.7,3198.3 1675.7,3171.9 1852.1,3127.8 1852.1,3110.1 1675.7,3110.1 "/>
<g>
	<path class="st1" d="M1081.2,2970.4c22.1,0,53.8,0,53.8-22.1s-31.8-22.1-53.8-22.1H958.6v88.2h122.6c22.1,0,53.8,0,53.8-22.1
		S1103.3,2970.4,1081.2,2970.4H958.6"/>
</g>
<g>
	<path class="st1" d="M1165.6,2988.1c0,0,130.7-14,148.2-18.7s28.2-9.4,28.2-21c0-22.1-31.8-22.1-53.8-22.1h-122.6v88.2"/>
	<line class="st1" x1="1165.6" y1="2926.3" x2="1165.6" y2="3014.5"/>
	<line class="st1" x1="1313.8" y1="2969.4" x2="1342.1" y2="3014.5"/>
</g>
<path class="st1" d="M3555.2,4782.2"/>
<polyline class="st1" points="825.4,3912 648.9,3912 825.4,3841.4 825.4,3823.8 648.9,3823.8 "/>
<polyline class="st1" points="825.4,4033.7 648.9,4033.7 825.4,3945.5 648.9,3945.5 "/>
<polyline class="st1" points="825.4,4172.5 648.9,4172.5 648.9,4146.1 799.8,4084.3 825.4,4084.3 648.9,4084.3 "/>
<polyline class="st1" points="1687,5196.2 1510.6,5196.2 1510.6,5174 1687,5129.9 1687,5108 1510.6,5108 "/>
<g>
	<line class="st1" x1="3935.3" y1="6656.8" x2="4094.1" y2="6621.5"/>
	<polygon class="st1" points="3926.5,6683.3 3935.3,6656.8 3926.5,6595.1 4102.9,6595.1 4094.1,6621.5 4102.9,6683.3 	"/>
</g>
<g>
	<line class="st1" x1="2075.9" y1="3347.6" x2="2234.7" y2="3312.3"/>
	<polygon class="st1" points="2067.1,3374.1 2075.9,3347.6 2067.1,3285.9 2243.6,3285.9 2234.7,3312.3 2243.6,3374.1 	"/>
</g>
<g>
	<polyline class="st1" points="3688.3,6683.3 3688.3,6595.1 3644.2,6612.7 	"/>
</g>
<g>
	<polyline class="st1" points="4179.7,6683.3 4179.7,6595.1 4135.6,6612.7 	"/>
</g>
<g>
	<g>
		<polyline class="st1" points="3893.8,6595.1 3717.4,6595.1 3717.4,6639.2 3893.8,6639.2 		"/>
	</g>
	<line class="st1" x1="3893.8" y1="6595.1" x2="3893.8" y2="6683.3"/>
</g>
<g>
	<g>
		<polyline class="st1" points="2498.9,3285.9 2322.4,3285.9 2322.4,3330 2498.9,3330 		"/>
	</g>
	<line class="st1" x1="2498.9" y1="3285.9" x2="2498.9" y2="3374.1"/>
</g>
<polyline class="st1" points="2544.6,5140.7 2544.6,5228.9 2544.6,5202.5 2721,5158.4 2721,5140.7 "/>
<g>
	<polyline class="st1" points="922.7,3312.3 1068,3312.3 1068,3330 891.5,3374.1 	"/>
	<polyline class="st1" points="891.5,3285.9 1068,3285.9 1035.8,3312.3 	"/>
</g>
<g>
	<path class="st1" d="M922.7,3709.8c0,0,73,0,114.3,0c41.3,0,41.9,15.1,1.6,25c-40.3,9.9-147.1,36.8-147.1,36.8"/>
	<polyline class="st1" points="891.5,3683.4 1068,3683.4 1035.8,3709.8 	"/>
</g>
<g>
	<polyline class="st1" points="891.5,3557.7 1068,3557.7 1068,3575.4 891.5,3619.5 	"/>
	<polyline class="st1" points="891.5,3531.3 1068,3531.3 1068,3557.7 	"/>
</g>
<polyline class="st1" points="1811.9,3374.1 1811.9,3347.6 1988.3,3303.5 1988.3,3285.9 1811.9,3285.9 "/>
<polyline class="st1" points="1861.9,3628.1 1861.9,3601.6 1988.3,3557.5 1988.3,3539.9 1811.9,3539.9 "/>
<polyline class="st1" points="2095.9,2847.1 2188.3,2803 2188.3,2785.4 2011.9,2785.4 2011.9,2803 "/>
<line class="st1" x1="2095.9" y1="2873.6" x2="2095.9" y2="2857.6"/>
<path class="st1" d="M6960.3,2998.4c0,0,0,42.4,0,44.1c0,24.3-11.3,44.1-88.2,44.1s-88.2-19.8-88.2-44.1c0-1.4,0-44.1,0-44.1"/>
<polyline class="st1" points="7158.3,2998.2 7158.3,3042.4 7070,3086.5 6981.8,3042.4 6981.8,2998.2 "/>
<polyline class="st1" points="7565.8,2998.2 7565.8,3020.1 7477.6,3041.9 7389.4,3020.1 7389.4,2998.2 "/>
<polyline class="st1" points="7389.4,3088 7389.4,3066.1 7477.6,3044.2 7565.8,3066.1 7565.8,3088 "/>
<polyline class="st1" points="7781.3,3305.3 7781.3,3327.1 7693,3349 7604.8,3327.1 7604.8,3305.3 "/>
<line class="st1" x1="7693" y1="3349.4" x2="7693" y2="3393.1"/>
<line class="st1" x1="7390.3" y1="3116" x2="7566.7" y2="3204.2"/>
<line class="st1" x1="7566.7" y1="3116" x2="7390.3" y2="3204.2"/>
<ellipse class="st1" cx="3860.3" cy="2643.3" rx="88.2" ry="44.1"/>
<path class="st1" d="M4519.3,2999.8h88.2c0,0,0,28.8,0,44.1c0,24.3-11.3,44.1-88.2,44.1s-88.2-19.8-88.2-44.1"/>
<path class="st1" d="M4141.7,3055.9v28.5c0,0-11.3,0-88.2,0c-76.9,0-88.2-19.8-88.2-44.1s10.7-44.1,88.2-44.1c60.2,0,88.2,0,88.2,0"
	/>
<path class="st1" d="M4141.7,3119.3c0,0-28.1,0-88.2,0c-77.5,0-88.2,19.8-88.2,44.1s11.3,44.1,88.2,44.1c76.9,0,88.2,0,88.2,0V3179
	h-89.5"/>
<path class="st1" d="M4141.7,2865.2c0,0-28.1,0-88.2,0c-77.5,0-88.2,19.8-88.2,44.1s11.3,44.1,88.2,44.1c76.9,0,70.8,0,75,0
	s13.2-2.6,13.2-14.5s-9.7-14-13.2-14s-76.2,0-76.2,0"/>
<ellipse class="st1" cx="3860.3" cy="2529.7" rx="88.2" ry="44.1"/>
<g>
	<line class="st1" x1="7686.5" y1="3169.9" x2="7686.5" y2="3197.3"/>
	<polyline class="st1" points="7774.7,3109.1 7774.7,3169.9 7598.3,3169.9 7598.3,3109.1 	"/>
</g>
<polyline class="st1" points="7607.3,3209.6 7607.3,3297.8 7607.3,3271.4 7783.7,3227.3 7783.7,3209.6 "/>
<g>
	<path class="st6" d="M425.3,5728.2c-84.2,0-101.5-20.6-101.5-51.5c0-12.4,2.1-26.5,17.7-36.6c15.5-10,42.9-14.9,83.8-14.9
		s68.3,4.9,83.8,14.9c15.6,10.1,17.7,24.2,17.7,36.6C526.8,5707.6,509.5,5728.2,425.3,5728.2z M425.3,5628.2
		c-40.3,0-67.1,4.7-82.2,14.4c-14.4,9.3-16.3,22.5-16.3,34.1c0,23.5,7.6,48.5,98.5,48.5s98.5-25,98.5-48.5
		c0-11.6-1.9-24.8-16.3-34.1C492.4,5632.9,465.6,5628.2,425.3,5628.2z"/>
</g>
<g>
	<path class="st6" d="M425.3,5599.5c-50.2,0-75.4,0-88.2-6.4c-13.3-6.7-13.3-19.5-13.3-45.1s0-38.4,13.3-45.1
		c12.8-6.4,38-6.4,88.2-6.4s75.4,0,88.2,6.4c13.3,6.7,13.3,19.5,13.3,45.1s0,38.4-13.3,45.1C500.7,5599.5,475.5,5599.5,425.3,5599.5
		z M425.3,5499.5c-49.7,0-74.6,0-86.8,6.1c-11.7,5.8-11.7,18.1-11.7,42.4s0,36.6,11.7,42.4c12.2,6.1,37.1,6.1,86.8,6.1
		s74.6,0,86.8-6.1c11.7-5.8,11.7-18.1,11.7-42.4s0-36.6-11.7-42.4C499.9,5499.5,475,5499.5,425.3,5499.5z"/>
</g>
<path class="st1" d="M644.9,4235.2c0-7.7,9.2-8.8,17.6-8.8s105,0,105,0c22,0,53.8,0.9,53.8,22.1c0,11.3-20.3,15.3-36.2,19.9
	s-162.3,46.4-140.2,46.4c0,0,152.6,0,158.7,0c6,0,17.6-0.4,17.6-8.8"/>
<g id="g130_3_">
	<path id="path128_3_" d="M2037.7,1334.8c-0.3,0-0.6,0-0.9,0h-105.9c-4.7,0-19,0-19-10.1h2.6c0,5.1,5.2,7.5,16.3,7.5h105.9
		c10.8,0,24.1,0,34.4-2.7c11.6-3.1,17.2-8.9,17.2-18c0-10.5-21.4-13-34.2-14.5l-3.7-0.4c-61-7.1-95.1-11.2-101.3-12l-0.7-0.1
		c-10.9-1.5-36.6-4.9-36.6-17.1c0-23.4,35.9-23.4,55.1-23.4h105c5.2,0,19,0,19,10.1h-2.6c0-5.1-5.2-7.5-16.3-7.5h-104.9
		c-27.3,0-52.5,2.5-52.5,20.7c0,9.9,25,13.2,34.3,14.5l0.7,0.1c6.2,0.8,40.2,4.9,101.2,12l3.7,0.4c14.6,1.7,36.5,4.2,36.5,17.1
		c0,10.3-6.4,17.2-19.1,20.6C2061.5,1334.8,2048.3,1334.8,2037.7,1334.8z"/>
</g>
<polygon id="polygon82_3_" points="1353.4,816.2 1177,816.2 1177,818.8 1263.9,818.8 1263.9,1016.1 1266.5,1016.1 1266.5,818.8 
	1353.4,818.8 "/>
<polygon id="polygon176_3_" points="1743.9,818.2 1743.9,815.5 1566.1,815.5 1566.1,906.4 1743.9,906.4 1743.9,903.7 1568.8,903.7 
	1568.8,880 1743.9,880 1743.9,877.4 1568.8,877.4 1568.8,818.2 "/>
<g id="g4358_3_" transform="translate(249.43281,466.15311)">
	<g id="g4348_3_">
		<rect id="rect4346_3_" x="1119.3" y="350.7" width="2.6" height="88.2"/>
	</g>
	<g id="g4352_3_">
		<rect id="rect4350_3_" x="1295.7" y="350.7" width="2.6" height="88.2"/>
	</g>
	<g id="g4356_3_">
		<rect id="rect4354_3_" x="1120.6" y="405.4" width="176.4" height="2.6"/>
	</g>
</g>
<polygon id="polygon176_6_" points="887.2,1381 887.2,1378.3 709.4,1378.3 709.4,1469.2 887.2,1469.2 887.2,1466.5 712.1,1466.5 
	712.1,1442.8 887.2,1442.8 887.2,1440.2 712.1,1440.2 712.1,1381 "/>
<g id="g4358_4_" transform="translate(249.43281,466.15311)">
	<g id="g4348_4_">
		<rect id="rect4346_4_" x="264.3" y="913.5" width="2.6" height="88.2"/>
	</g>
	<g id="g4352_4_">
		<rect id="rect4350_4_" x="440.7" y="913.5" width="2.6" height="88.2"/>
	</g>
	<g id="g4356_4_">
		<rect id="rect4354_4_" x="265.6" y="968.2" width="176.4" height="2.6"/>
	</g>
</g>
<g id="g4384_3_" transform="translate(2.7260416,354.38541)">
	<path id="path4382_3_" inkscape:connector-curvature="0" d="M753.9,760.1c-44.3,0-66.5,0-77.8-5.6c-11.7-5.9-11.7-17.2-11.7-39.8
		s0-33.9,11.7-39.8c11.3-5.6,33.5-5.6,77.8-5.6s66.5,0,77.8,5.6c11.7,5.9,11.7,17.2,11.7,39.8s0,33.9-11.7,39.8
		C820.4,760.1,798.2,760.1,753.9,760.1z M753.9,671.9c-43.8,0-65.8,0-76.6,5.4c-10.3,5.1-10.3,16-10.3,37.4s0,32.3,10.3,37.4
		c10.8,5.4,32.7,5.4,76.6,5.4s65.8,0,76.6-5.4c10.3-5.1,10.3-16,10.3-37.4s0-32.3-10.3-37.4C819.7,671.9,797.8,671.9,753.9,671.9z"
		/>
</g>
<g id="g110_4_">
	<g id="g100_4_">
		<path id="path98_4_" d="M1493.8,1016.1h-2.6v-89.5h123.9c22,0,55.1,0,55.1,23.4c0,12.1-10.7,17.4-29.2,22.3
			c-16.7,4.5-133.3,17.1-147.2,18.6L1493.8,1016.1L1493.8,1016.1z M1493.8,929.2v58.9c14.5-1.6,130.4-14.1,146.5-18.4
			c17.6-4.8,27.3-9.3,27.3-19.8c0-20.7-30.3-20.7-52.5-20.7H1493.8z"/>
	</g>
	<g id="g104_4_">
		<rect id="rect102_4_" x="1491.1" y="927.9" width="2.6" height="88.2"/>
	</g>
	<g id="g108_4_">
		
			<rect id="rect106_4_" x="1653.4" y="966.9" transform="matrix(0.848 -0.53 0.53 0.848 -275.0432 1027.9944)" width="2.6" height="53.2"/>
	</g>
</g>
<polygon id="polygon176_4_" points="1870.6,928.9 1870.6,926.2 1692.8,926.2 1692.8,1017.1 1870.6,1017.1 1870.6,1014.4 
	1695.5,1014.4 1695.5,990.7 1870.6,990.7 1870.6,988.1 1695.5,988.1 1695.5,928.9 "/>
<polygon id="polygon206_4_" points="1040.8,928.9 1040.8,926.2 863,926.2 863,1114.5 865.7,1114.5 865.7,989.3 1014.6,989.3 
	1014.6,986.6 865.7,986.6 865.7,928.9 "/>
<g id="g4388_2_" transform="translate(226.32793,352.45781)">
	<path id="path4386_2_" inkscape:connector-curvature="0" sodipodi:nodetypes="cscscsccscscscc" d="M836.3,574
		c0,0-1.3,23.8-1.3,45.3c0,21.4,0,32.3,10.3,37.4c10.8,5.4,32.7,5.4,76.6,5.4c43.8,0,65.8,0,76.6-5.4c10.3-5.1,10.3-16,10.3-37.4
		s-0.4-44.9-0.4-44.9l3-0.3c0,0,0,22.6,0,45.2s0,33.9-11.7,39.8c-11.4,5.6-33.5,5.6-77.8,5.6s-66.5,0-77.8-5.6
		c-11.7-5.9-11.7-17.2-11.7-39.8s0.6-45.5,0.6-45.5L836.3,574z"/>
</g>
<g id="g4388_3_" transform="translate(226.32793,352.45781)">
	<path id="path4386_3_" inkscape:connector-curvature="0" sodipodi:nodetypes="cscscsccscscscc" d="M1071.3,574
		c0,0-1.3,23.8-1.3,45.3c0,21.4,0,32.3,10.3,37.4c10.8,5.4,32.7,5.4,76.6,5.4c43.8,0,65.8,0,76.6-5.4c10.3-5.1,10.3-16,10.3-37.4
		s-0.4-44.9-0.4-44.9l3-0.3c0,0,0,22.6,0,45.2s0,33.9-11.7,39.8c-11.4,5.6-33.5,5.6-77.8,5.6s-66.5,0-77.8-5.6
		c-11.7-5.9-11.7-17.2-11.7-39.8s0.6-45.5,0.6-45.5L1071.3,574z"/>
</g>
<polygon id="polygon48_3_" points="2310.1,1139.4 2310.1,1208 2135.5,1138.2 2135,1139.4 2133.7,1139.4 2133.7,1227.6 
	2136.3,1227.6 2136.3,1141.4 2310.1,1210.9 2310.1,1227.6 2312.8,1227.6 2312.8,1139.4 "/>
<g id="g80_5_">
	<rect id="rect78_5_" x="2108.3" y="1138.8" width="2.6" height="88.2"/>
</g>
<g id="g110_5_">
	<g id="g100_5_">
		<path id="path98_5_" d="M1494.3,1227.3h-2.6v-89.5h123.9c22,0,55.1,0,55.1,23.4c0,12.1-10.7,17.4-29.2,22.3
			c-16.7,4.5-133.3,17.1-147.2,18.6L1494.3,1227.3L1494.3,1227.3z M1494.3,1140.4v58.9c14.5-1.6,130.4-14.1,146.5-18.4
			c17.6-4.8,27.3-9.3,27.3-19.8c0-20.7-30.3-20.7-52.5-20.7H1494.3z"/>
	</g>
	<g id="g104_5_">
		<rect id="rect102_5_" x="1491.6" y="1139.1" width="2.6" height="88.2"/>
	</g>
	<g id="g108_5_">
		
			<rect id="rect106_5_" x="1653.9" y="1178.1" transform="matrix(0.848 -0.53 0.53 0.848 -386.8959 1060.3563)" width="2.6" height="53.2"/>
	</g>
</g>
<g id="g110_3_">
	<g id="g100_3_">
		<path id="path98_3_" d="M908.6,1469.2H906v-331.4h123.9c22,0,55.1,10,55.1,33.4c0,12.1-10.7,27.4-29.2,32.3
			c-16.7,4.5-133.3,27.1-147.2,28.6L908.6,1469.2L908.6,1469.2z M908.6,1140.4v88.9c14.5-1.6,130.4-24.1,146.5-28.4
			c17.6-4.8,27.3-19.3,27.3-29.8c0-20.7-30.3-30.7-52.5-30.7H908.6z"/>
	</g>
	<g id="g104_3_">
		<rect id="rect102_3_" x="905.9" y="1139.1" width="2.6" height="330.1"/>
	</g>
	<g id="g108_3_">
		<polygon id="rect106_3_" points="1054.3,1202.9 1056.5,1201.5 1084.7,1469.2 1082.5,1469.2 		"/>
	</g>
</g>
<polygon id="polygon82_5_" points="2088.2,1138.1 1911.8,1138.1 1911.8,1140.7 1998.7,1140.7 1998.7,1227.6 2001.3,1227.6 
	2001.3,1140.7 2088.2,1140.7 "/>
<polygon id="polygon176_5_" points="1279.4,1140.1 1279.4,1137.4 1101.6,1137.4 1101.6,1469.2 1279.4,1469.2 1279.4,1466.5 
	1104.3,1466.5 1104.3,1251.9 1279.4,1251.9 1279.4,1249.3 1104.3,1249.3 1104.3,1140.1 "/>
<g id="g4388_4_" transform="translate(226.32793,352.45781)">
	<path id="path4386_4_" inkscape:connector-curvature="0" sodipodi:nodetypes="cscscsccscscscc" d="M1471.3,785.2
		c0,0-1.3,23.8-1.3,45.3c0,21.4,0,32.3,10.3,37.4c10.8,5.4,32.7,5.4,76.6,5.4c43.8,0,65.8,0,76.6-5.4c10.3-5.1,10.3-16,10.3-37.4
		s-0.4-44.9-0.4-44.9l3-0.3c0,0,0,22.6,0,45.2s0,33.9-11.7,39.8c-11.4,5.6-33.5,5.6-77.8,5.6s-66.5,0-77.8-5.6
		c-11.7-5.9-11.7-17.2-11.7-39.8s0.6-45.5,0.6-45.5L1471.3,785.2z"/>
</g>
<path d="M1474.8,1199.9c-0.7,10.6-2.9,16.8-10,20.4c-10.8,5.4-32.7,5.4-76.5,5.4s-65.7,0-76.5-5.4c-10.3-5.1-10.3-16-10.3-37.4
	s0-32.3,10.3-37.4c10.8-5.4,32.7-5.4,76.5-5.4s65.8,0,76.5,5.4c7.1,3.5,9.4,9.8,10,20.4h2.6c-0.7-11.7-3.1-18.6-11.5-22.8
	c-11.3-5.6-33.5-5.6-77.7-5.6c-44.3,0-66.4,0-77.7,5.6c-11.7,5.9-11.7,17.2-11.7,39.8s0,33.9,11.7,39.8c11.3,5.6,33.5,5.6,77.7,5.6
	c44.3,0,66.4,0,77.7-5.6c8.3-4.1,10.8-11.1,11.5-22.8H1474.8L1474.8,1199.9z"/>
<path class="st1" d="M2515.3,1198.5v28.5c0,0-11.3,0-88.2,0s-88.2-19.8-88.2-44.1s10.7-44.1,88.2-44.1c60.2,0,88.2,0,88.2,0"/>
<g>
	<polyline class="st1" points="1439.8,2953.6 1585.1,2953.6 1585.1,2971.3 1408.6,3015.4 	"/>
	<polyline class="st1" points="1408.6,2927.2 1585.1,2927.2 1552.9,2953.6 	"/>
</g>
<polyline class="st1" points="1993.2,2926.2 1963.2,3015.5 1832,3015.5 "/>
<g>
	<path class="st1" d="M1993.2,2926.2h-122.6c-22,0-53.8,0-53.8,22.1s31.7,22.1,53.8,22.1h108.3"/>
</g>
<polyline class="st1" points="2501.2,3426.2 2471.2,3515.5 2340,3515.5 "/>
<g>
	<path class="st1" d="M2501.2,3426.2h-122.6c-22,0-53.8,0-53.8,22.1s31.7,22.1,53.8,22.1h108.3"/>
</g>
<text transform="matrix(1 0 0 1 3643.6567 4091.0564)" class="st7 st8">0123456789</text>
<text transform="matrix(1 0 0 1 3643.6567 3877.7231)" class="st9 st8">0123456789</text>
<text transform="matrix(1 0 0 1 3643.6567 3991.0564)" class="st10 st8">0123456789</text>
<text transform="matrix(1 0 0 1 3643.6567 4183.0562)" class="st11 st8">0123456789</text>
<text transform="matrix(1 0 0 1 3643.6567 4323.0562)" class="st12 st8">0123456789</text>
</svg>
