<?xml version="1.0" encoding="UTF-8" standalone="no"?>
<!-- Generator: Adobe Illustrator 22.1.0, SVG Export Plug-In . SVG Version: 6.00 Build 0)  -->

<svg
   xmlns:dc="http://purl.org/dc/elements/1.1/"
   xmlns:cc="http://creativecommons.org/ns#"
   xmlns:rdf="http://www.w3.org/1999/02/22-rdf-syntax-ns#"
   xmlns:svg="http://www.w3.org/2000/svg"
   xmlns="http://www.w3.org/2000/svg"
   xmlns:sodipodi="http://sodipodi.sourceforge.net/DTD/sodipodi-0.dtd"
   xmlns:inkscape="http://www.inkscape.org/namespaces/inkscape"
   version="1.1"
   id="Layer_1"
   x="0px"
   y="0px"
   viewBox="0 0 422.40001 979.19999"
   xml:space="preserve"
   sodipodi:docname="housenumbers3.svg"
   width="4.4000001in"
   height="10.2in"
   inkscape:version="0.92.4 (5da689c313, 2019-01-14)"><metadata
   id="metadata5195"><rdf:RDF><cc:Work
       rdf:about=""><dc:format>image/svg+xml</dc:format><dc:type
         rdf:resource="http://purl.org/dc/dcmitype/StillImage" /><dc:title></dc:title></cc:Work></rdf:RDF></metadata><defs
   id="defs5193" /><sodipodi:namedview
   pagecolor="#ffffff"
   bordercolor="#666666"
   borderopacity="1"
   objecttolerance="10"
   gridtolerance="10"
   guidetolerance="10"
   inkscape:pageopacity="0"
   inkscape:pageshadow="2"
   inkscape:window-width="1920"
   inkscape:window-height="1024"
   id="namedview5191"
   showgrid="false"
   inkscape:document-units="in"
   units="in"
   inkscape:zoom="0.67647059"
   inkscape:cx="187.90543"
   inkscape:cy="469.27127"
   inkscape:window-x="0"
   inkscape:window-y="28"
   inkscape:window-maximized="1"
   inkscape:current-layer="Layer_1" />
<style
   type="text/css"
   id="style5146">
	.st0{fill:none;stroke:#231F20;stroke-width:18;stroke-linecap:round;stroke-linejoin:round;stroke-miterlimit:10;}
	.st1{fill:none;stroke:#231F20;stroke-width:10;stroke-linecap:round;stroke-linejoin:round;stroke-miterlimit:10;}
</style>







<g
   id="g5158"
   transform="matrix(0,-1.3524597,1.3524597,0,-1320.7744,1040.5628)"
   style="stroke-width:17.74544627;stroke-miterlimit:10;stroke-dasharray:none">
	<path
   style="color:#000000;font-style:normal;font-variant:normal;font-weight:normal;font-stretch:normal;font-size:medium;line-height:normal;font-family:sans-serif;font-variant-ligatures:normal;font-variant-position:normal;font-variant-caps:normal;font-variant-numeric:normal;font-variant-alternates:normal;font-feature-settings:normal;text-indent:0;text-align:start;text-decoration:none;text-decoration-line:none;text-decoration-style:solid;text-decoration-color:#000000;letter-spacing:normal;word-spacing:normal;text-transform:none;writing-mode:lr-tb;direction:ltr;text-orientation:mixed;dominant-baseline:auto;baseline-shift:baseline;text-anchor:start;white-space:normal;shape-padding:0;clip-rule:nonzero;display:inline;overflow:visible;visibility:visible;opacity:1;isolation:auto;mix-blend-mode:normal;color-interpolation:sRGB;color-interpolation-filters:linearRGB;solid-color:#000000;solid-opacity:1;vector-effect:none;fill:#231f20;fill-opacity:1;fill-rule:nonzero;stroke:none;stroke-width:18;stroke-linecap:square;stroke-linejoin:miter;stroke-miterlimit:10;stroke-dasharray:none;stroke-dashoffset:0;stroke-opacity:1;color-rendering:auto;image-rendering:auto;shape-rendering:auto;text-rendering:auto;enable-background:accumulate"
   d="M 60.283203 337.99219 L 60.283203 636.04297 L 78.285156 636.04297 L 78.285156 376.88086 L 120.19727 412.45508 L 120.19727 586.8125 L 120.19727 595.8125 L 138.19727 595.8125 L 138.19727 586.8125 L 138.19727 366.43555 L 168.71875 366.43555 L 254.64258 638.75 L 257.35156 647.33203 L 274.51758 641.91797 L 271.81055 633.33594 L 181.91406 348.43555 L 120.19727 348.43555 L 120.19727 388.84375 L 60.283203 337.99219 z "
   transform="matrix(0,0.73939359,-0.73939359,0,769.38544,976.57209)"
   id="polyline5154" />
	
</g><g
   id="g5170"
   transform="matrix(0,-1.3524597,1.3524597,0,-1320.7744,1012.4406)"
   style="stroke-width:17.74544627;stroke-miterlimit:10;stroke-dasharray:none">
	<path
   style="color:#000000;font-style:normal;font-variant:normal;font-weight:normal;font-stretch:normal;font-size:medium;line-height:normal;font-family:sans-serif;font-variant-ligatures:normal;font-variant-position:normal;font-variant-caps:normal;font-variant-numeric:normal;font-variant-alternates:normal;font-feature-settings:normal;text-indent:0;text-align:start;text-decoration:none;text-decoration-line:none;text-decoration-style:solid;text-decoration-color:#000000;letter-spacing:normal;word-spacing:normal;text-transform:none;writing-mode:lr-tb;direction:ltr;text-orientation:mixed;dominant-baseline:auto;baseline-shift:baseline;text-anchor:start;white-space:normal;shape-padding:0;clip-rule:nonzero;display:inline;overflow:visible;visibility:visible;opacity:1;isolation:auto;mix-blend-mode:normal;color-interpolation:sRGB;color-interpolation-filters:linearRGB;solid-color:#000000;solid-opacity:1;vector-effect:none;fill:#231f20;fill-opacity:1;fill-rule:nonzero;stroke:none;stroke-width:13.30908489;stroke-linecap:square;stroke-linejoin:miter;stroke-miterlimit:10;stroke-dasharray:none;stroke-dashoffset:0;stroke-opacity:1;color-rendering:auto;image-rendering:auto;shape-rendering:auto;text-rendering:auto;enable-background:accumulate"
   d="m 34.445312,1021.1445 v 13.3106 h 6.654297 199.345701 v 22.4668 l -205.999998,65 v 49.2773 6.6563 h 13.308594 v -6.6563 -39.5215 l 206.000004,-65 v -45.5332 H 41.099609 Z"
   id="polyline5168"
   inkscape:connector-curvature="0" />
</g><g
   id="g5184"
   transform="matrix(0,-1.3524597,1.3524597,0,-1320.7744,1062.1952)">
	<path
   style="color:#000000;font-style:normal;font-variant:normal;font-weight:normal;font-stretch:normal;font-size:medium;line-height:normal;font-family:sans-serif;font-variant-ligatures:normal;font-variant-position:normal;font-variant-caps:normal;font-variant-numeric:normal;font-variant-alternates:normal;font-feature-settings:normal;text-indent:0;text-align:start;text-decoration:none;text-decoration-line:none;text-decoration-style:solid;text-decoration-color:#000000;letter-spacing:normal;word-spacing:normal;text-transform:none;writing-mode:lr-tb;direction:ltr;text-orientation:mixed;dominant-baseline:auto;baseline-shift:baseline;text-anchor:start;white-space:normal;shape-padding:0;clip-rule:nonzero;display:inline;overflow:visible;visibility:visible;opacity:1;isolation:auto;mix-blend-mode:normal;color-interpolation:sRGB;color-interpolation-filters:linearRGB;solid-color:#000000;solid-opacity:1;vector-effect:none;fill:#231f20;fill-opacity:1;fill-rule:nonzero;stroke:none;stroke-width:13.30908489;stroke-linecap:square;stroke-linejoin:miter;stroke-miterlimit:10;stroke-dasharray:none;stroke-dashoffset:0;stroke-opacity:1;color-rendering:auto;image-rendering:auto;shape-rendering:auto;text-rendering:auto;enable-background:accumulate"
   d="m 550.44531,1021.1445 v 57.711 H 756.3457 v 22.4668 l -201.24804,63.5312 -6.34766,2.0039 4.00781,12.6914 6.34571,-2.0039 210.55078,-66.4668 v -45.5332 H 563.75391 v -31.0898 H 763 h 6.6543 v -13.3106 H 763 Z"
   id="polyline5182"
   inkscape:connector-curvature="0" />
</g>

<g
   aria-label="BAY STREET"
   transform="matrix(0,-1.0319652,1.0319652,0,-12.086439,-23.34658)"
   style="font-style:normal;font-weight:normal;font-size:101.15817261px;line-height:1.25;font-family:sans-serif;letter-spacing:0px;word-spacing:0px;fill:#000000;fill-opacity:1;stroke:none;stroke-width:2.52895427"
   id="text5215"><path
     d="m -889.68022,327.6341 c 0,-3.03474 -0.60695,-5.76601 -1.71969,-8.39613 -1.11274,-2.63011 -2.63011,-4.85559 -4.55212,-6.87875 -2.02316,-1.92201 -4.24864,-3.43938 -6.87875,-4.55212 -2.63012,-1.11274 -5.36139,-1.71969 -8.39613,-1.71969 h -50.37677 v 71.92346 h 50.37677 c 3.03474,0 5.76601,-0.50579 8.39613,-1.61853 2.63011,-1.11274 4.85559,-2.63011 6.87875,-4.65327 1.92201,-1.92201 3.43938,-4.14749 4.55212,-6.7776 1.11274,-2.63011 1.71969,-5.46254 1.71969,-8.49729 0,-2.83243 -0.50579,-5.46254 -1.51737,-7.89034 -1.01158,-2.42779 -2.32664,-4.65327 -4.04633,-6.57528 1.71969,-1.922 3.03475,-4.04632 4.04633,-6.47412 1.01158,-2.4278 1.51737,-5.05791 1.51737,-7.89034 z m -16.48878,33.88799 c -1.41622,1.41621 -3.03475,2.02316 -5.05791,2.02316 h -36.21463 v -14.2633 h 36.21463 c 2.02316,0 3.64169,0.70811 5.05791,2.02316 1.31505,1.41622 2.02316,3.13591 2.02316,5.15907 0,2.02316 -0.70811,3.74285 -2.02316,5.05791 z m 0,-28.72892 c -1.41622,1.41621 -3.03475,2.02316 -5.05791,2.02316 h -36.21463 v -14.56677 h 36.21463 c 1.82085,0 3.54053,0.80926 4.95675,2.22548 1.41621,1.41621 2.12432,3.1359 2.12432,5.15906 0,1.71969 -0.70811,3.43938 -2.02316,5.15907 z"
     style="font-style:normal;font-variant:normal;font-weight:normal;font-stretch:extra-expanded;font-family:Alfphabet;-inkscape-font-specification:'Alfphabet Extra-Expanded';letter-spacing:14.09000015px;stroke-width:2.52895427"
     id="path5236"
     inkscape:connector-curvature="0" /><path
     d="m -838.08109,305.98625 -28.22313,72.12578 h 15.57836 l 4.3498,-10.62161 h 32.57293 l 4.24864,10.62161 h 15.57836 l -28.42544,-72.12578 z m -2.73127,46.83624 10.72276,-27.21155 10.62161,27.21155 z"
     style="font-style:normal;font-variant:normal;font-weight:normal;font-stretch:extra-expanded;font-family:Alfphabet;-inkscape-font-specification:'Alfphabet Extra-Expanded';letter-spacing:14.09000015px;stroke-width:2.52895427"
     id="path5238"
     inkscape:connector-curvature="0" /><path
     d="m -720.87614,306.08741 -17.39921,23.4687 -17.905,-23.4687 h -18.10731 l 28.52661,37.93432 v 34.0903 h 14.36446 v -34.0903 l 28.72892,-37.93432 z"
     style="font-style:normal;font-variant:normal;font-weight:normal;font-stretch:extra-expanded;font-family:Alfphabet;-inkscape-font-specification:'Alfphabet Extra-Expanded';letter-spacing:14.09000015px;stroke-width:2.52895427"
     id="path5240"
     inkscape:connector-curvature="0" /><path
     d="m -544.59742,334.81633 h -29.13355 c -2.02317,0 -3.74285,-0.70811 -5.15907,-2.12432 -1.41621,-1.41621 -2.12432,-3.03474 -2.12432,-5.05791 0,-0.91042 0.20232,-1.82085 0.60695,-2.73127 0.40463,-0.80926 0.91042,-1.61853 1.61853,-2.32664 0.60695,-0.7081 1.41621,-1.31505 2.32664,-1.71969 0.80926,-0.40463 1.71969,-0.7081 2.73127,-0.7081 h 29.13355 c 0.80927,0 1.61853,0.20231 2.4278,0.60695 0.80926,0.40463 1.61853,0.91042 2.32664,1.51737 0.7081,0.60695 1.31505,1.41621 1.71969,2.32664 0.40463,1.01158 0.7081,2.02316 0.7081,3.03474 h 14.46562 c 0,-3.1359 -0.60695,-6.06949 -1.82085,-8.6996 -1.21389,-2.63011 -2.73127,-4.85559 -4.75443,-6.7776 -2.02316,-1.922 -4.24864,-3.43938 -6.87876,-4.55212 -2.63011,-1.01158 -5.36138,-1.61853 -8.19381,-1.61853 h -29.13355 c -3.03475,0 -5.76602,0.60695 -8.39613,1.71969 -2.63011,1.11274 -4.95675,2.63011 -6.87876,4.55212 -2.02316,1.922 -3.54053,4.14748 -4.65327,6.7776 -1.2139,2.63011 -1.71969,5.5637 -1.71969,8.59844 0,3.03475 0.50579,5.76602 1.61853,8.39613 1.01158,2.63011 2.52895,4.85559 4.45096,6.87876 1.92201,2.02316 4.24864,3.54053 6.87876,4.65327 2.63011,1.2139 5.56369,1.71969 8.6996,1.71969 h 29.13355 c 1.71969,0 3.33822,0.70811 4.85559,2.02316 1.51738,1.31506 2.32664,3.03475 2.32664,5.15907 0,1.11274 -0.30347,2.12432 -0.7081,3.03475 -0.5058,0.91042 -1.11274,1.71969 -1.82085,2.32663 -0.70811,0.60695 -1.51737,1.11274 -2.32664,1.41622 -0.80927,0.40463 -1.61853,0.50579 -2.32664,0.50579 h -29.13355 c -1.92201,0 -3.6417,-0.70811 -5.05791,-2.22548 -1.51737,-1.41621 -2.22548,-3.1359 -2.22548,-5.05791 h -14.36446 c 0,3.03475 0.50579,5.86718 1.61853,8.49729 1.11274,2.63011 2.63011,4.95675 4.65328,6.87875 1.922,2.02317 4.24864,3.54054 6.87875,4.65328 2.63011,1.11274 5.46254,1.61853 8.49729,1.61853 h 29.13355 c 2.83243,0 5.5637,-0.50579 8.19381,-1.61853 2.63012,-1.01158 4.8556,-2.52896 6.87876,-4.45096 2.02316,-1.92201 3.54054,-4.24864 4.75443,-6.87876 1.2139,-2.63011 1.82085,-5.46254 1.82085,-8.6996 0,-3.03474 -0.60695,-5.96833 -1.82085,-8.59844 -1.21389,-2.63012 -2.73127,-4.8556 -4.65327,-6.7776 -2.02317,-1.92201 -4.24865,-3.43938 -6.87876,-4.55212 -2.63011,-1.11274 -5.46254,-1.71969 -8.29497,-1.71969 z"
     style="font-style:normal;font-variant:normal;font-weight:normal;font-stretch:extra-expanded;font-family:Alfphabet;-inkscape-font-specification:'Alfphabet Extra-Expanded';letter-spacing:14.09000015px;stroke-width:2.52895427"
     id="path5242"
     inkscape:connector-curvature="0" /><path
     d="m -428.32974,306.28973 h -71.82231 v 14.06098 h 28.72893 v 57.76132 h 14.36446 v -57.76132 h 28.72892 z"
     style="font-style:normal;font-variant:normal;font-weight:normal;font-stretch:extra-expanded;font-family:Alfphabet;-inkscape-font-specification:'Alfphabet Extra-Expanded';letter-spacing:14.09000015px;stroke-width:2.52895427"
     id="path5244"
     inkscape:connector-curvature="0" /><path
     d="m -404.26774,306.08741 v 72.02462 h 14.56677 v -21.85017 h 32.26946 l 9.61003,21.85017 h 15.88183 l -11.53203,-25.89649 c 1.61853,-1.01158 3.03474,-2.22548 4.45096,-3.74285 1.41621,-1.41622 2.63011,-3.03475 3.64169,-4.8556 1.01158,-1.82084 1.71969,-3.64169 2.32664,-5.66485 0.50579,-2.02317 0.80927,-3.94517 0.80927,-5.96834 v -1.01158 -1.01158 c 0,-2.83243 -0.60695,-5.66486 -1.71969,-8.39613 -1.11274,-2.63011 -2.63012,-5.05791 -4.55212,-7.28339 -1.92201,-2.22548 -4.24864,-4.04632 -6.87876,-5.46254 -2.63011,-1.41621 -5.46254,-2.32664 -8.49728,-2.73127 z m 14.56677,35.60768 v -21.64785 h 32.26946 c 1.41621,0 2.73127,0.30347 4.04633,0.91042 1.31505,0.60695 2.52895,1.41622 3.54053,2.4278 1.01158,1.01158 1.82085,2.22548 2.4278,3.54053 0.60695,1.31506 0.91042,2.63012 0.91042,4.04633 0,1.61853 -0.30347,3.03475 -0.91042,4.24864 -0.60695,1.31506 -1.31506,2.4278 -2.32664,3.43938 -1.01158,1.01158 -2.22548,1.71969 -3.54053,2.22548 -1.31506,0.60695 -2.73128,0.80927 -4.14749,0.80927 z"
     style="font-style:normal;font-variant:normal;font-weight:normal;font-stretch:extra-expanded;font-family:Alfphabet;-inkscape-font-specification:'Alfphabet Extra-Expanded';letter-spacing:14.09000015px;stroke-width:2.52895427"
     id="path5246"
     inkscape:connector-curvature="0" /><path
     d="m -232.90208,320.35071 v -14.16214 h -71.92346 v 14.16214 57.76132 h 71.92346 v -14.46562 h -57.76132 v -14.56678 h 30.04398 v -14.46561 h -30.04398 v -14.26331 z"
     style="font-style:normal;font-variant:normal;font-weight:normal;font-stretch:extra-expanded;font-family:Alfphabet;-inkscape-font-specification:'Alfphabet Extra-Expanded';letter-spacing:14.09000015px;stroke-width:2.52895427"
     id="path5248"
     inkscape:connector-curvature="0" /><path
     d="m -132.6696,320.35071 v -14.16214 h -71.92346 v 14.16214 57.76132 h 71.92346 v -14.46562 h -57.76132 v -14.56678 h 30.04398 v -14.46561 h -30.04398 v -14.26331 z"
     style="font-style:normal;font-variant:normal;font-weight:normal;font-stretch:extra-expanded;font-family:Alfphabet;-inkscape-font-specification:'Alfphabet Extra-Expanded';letter-spacing:14.09000015px;stroke-width:2.52895427"
     id="path5250"
     inkscape:connector-curvature="0" /><path
     d="m -36.6857,306.28973 h -71.8223 v 14.06098 h 28.728919 v 57.76132 h 14.36446 V 320.35071 H -36.6857 Z"
     style="font-style:normal;font-variant:normal;font-weight:normal;font-stretch:extra-expanded;font-family:Alfphabet;-inkscape-font-specification:'Alfphabet Extra-Expanded';letter-spacing:14.09000015px;stroke-width:2.52895427"
     id="path5252"
     inkscape:connector-curvature="0" /></g></svg>