<?xml version="1.0" encoding="utf-8"?>
<!-- Generator: Adobe Illustrator 22.1.0, SVG Export Plug-In . SVG Version: 6.00 Build 0)  -->
<svg version="1.1" baseProfile="basic" id="Layer_1"
	 xmlns="http://www.w3.org/2000/svg" xmlns:xlink="http://www.w3.org/1999/xlink" x="0px" y="0px" viewBox="0 0 792 1224"
	 xml:space="preserve">
<path d="M611.8,1116.2h-432v-1008h432V1116.2z M303.3,991.7l195.5-89.4c4.5-2.1,7.4-6.5,7.4-11.5v-35.7c0-7-5.6-12.6-12.6-12.6
	H310.6v-28.5h182.9c7,0,12.6-5.6,12.6-12.6s-5.6-12.6-12.6-12.6H298c-7,0-12.6,5.6-12.6,12.6v53.7c0,7,5.6,12.6,12.6,12.6H481v15
	l-188.2,86.1c-6.3,2.9-9.1,10.4-6.2,16.7c2.1,4.6,6.7,7.4,11.5,7.4C299.8,992.8,301.6,992.5,303.3,991.7z M493.7,510.1H297.9
	c-7,0-12.6,5.6-12.6,12.6s5.6,12.6,12.6,12.6h183.1v28.5H297.9c-7,0-12.6,5.6-12.6,12.6s5.6,12.6,12.6,12.6h183.1v15l-188.4,86.1
	c-6.3,2.9-9.1,10.4-6.2,16.7c2.1,4.6,6.7,7.4,11.5,7.4c1.8,0,3.5-0.4,5.2-1.1l195.7-89.4c4.5-2,7.4-6.5,7.4-11.5v-35.7v-53.7
	C506.3,515.8,500.6,510.1,493.7,510.1z M310.5,423v-45.7l188.4-86.1c4.5-2,7.4-6.5,7.4-11.5v-35.7c0-7-5.6-12.6-12.6-12.6H297.9
	c-7,0-12.6,5.6-12.6,12.6s5.6,12.6,12.6,12.6h183.1v15l-188.4,86.1c-4.5,2-7.4,6.5-7.4,11.5V423c0,7,5.6,12.6,12.6,12.6
	S310.5,430,310.5,423z"/>
</svg>
